{"glyphs":{"0":{"ha":940,"x_min":49,"x_max":892,"o":"m 785 113 q 471 -22 679 -22 q 157 113 263 -22 q 49 494 49 246 q 157 878 49 742 q 471 1011 264 1011 q 785 878 678 1011 q 892 494 892 742 q 785 113 892 247 m 338 249 q 471 172 381 172 q 604 249 561 172 q 647 494 647 322 q 603 740 647 663 q 471 817 560 817 q 337 740 381 817 q 293 494 293 663 q 338 249 293 325 z "},"1":{"ha":578,"x_min":38,"x_max":503,"o":"m 318 989 l 503 989 l 503 0 l 268 0 l 268 618 l 38 618 l 38 778 l 60 779 q 232 834 169 786 q 318 989 294 882 z "},"2":{"ha":858,"x_min":46,"x_max":810,"o":"m 310 194 l 810 194 l 810 0 l 46 0 l 51 88 q 83 261 57 188 q 131 350 103 311 q 342 496 201 440 l 419 531 q 534 601 500 564 q 568 693 568 638 q 532 785 568 753 q 429 817 496 817 q 281 658 281 817 l 57 658 q 151 918 56 825 q 435 1011 247 1011 q 704 928 606 1011 q 801 715 801 844 q 733 511 801 588 q 517 367 664 433 l 435 328 q 342 269 369 297 q 310 194 315 240 z "},"3":{"ha":890,"x_min":47,"x_max":853,"o":"m 682 528 q 808 436 763 499 q 853 288 853 374 q 749 64 853 150 q 461 -22 643 -22 q 153 74 258 -22 q 47 346 47 169 l 272 346 q 317 213 274 254 q 453 172 361 172 q 569 206 528 172 q 611 299 611 240 q 444 432 611 432 l 371 432 l 371 597 l 449 597 q 600 715 600 597 q 563 797 600 767 q 456 828 525 828 q 342 795 381 828 q 299 692 304 763 l 74 692 q 457 1011 85 1011 q 726 938 628 1011 q 824 738 824 864 q 785 614 824 669 q 682 528 747 558 z "},"4":{"ha":917,"x_min":44,"x_max":879,"o":"m 750 408 l 879 408 l 879 215 l 750 215 l 750 0 l 515 0 l 515 215 l 44 215 l 44 436 l 492 989 l 750 989 l 750 408 m 522 408 l 522 757 l 240 408 l 522 408 z "},"5":{"ha":861,"x_min":49,"x_max":821,"o":"m 479 653 q 733 558 643 653 q 821 328 821 463 q 713 74 821 167 q 433 -22 603 -22 q 169 61 275 -22 q 49 288 64 142 l 269 288 q 324 194 281 229 q 433 160 368 160 q 554 206 508 160 q 600 328 600 253 q 554 449 600 403 q 433 496 508 496 q 281 408 325 496 l 64 408 l 161 989 l 774 989 l 774 794 l 342 794 l 304 593 q 479 653 376 653 z "},"6":{"ha":885,"x_min":49,"x_max":842,"o":"m 264 543 q 507 653 347 653 q 754 557 667 653 q 842 328 842 461 q 735 72 842 167 q 457 -22 625 -22 q 213 49 310 -22 q 49 474 49 167 q 154 873 49 735 q 460 1011 260 1011 q 711 938 614 1011 q 828 731 808 864 l 614 731 q 463 840 592 840 q 319 772 367 840 q 264 543 271 703 m 338 206 q 457 160 381 160 q 576 206 533 160 q 621 322 621 253 q 576 439 621 392 q 457 485 533 485 q 338 439 381 485 q 292 322 292 393 q 338 206 292 251 z "},"7":{"ha":740,"x_min":18,"x_max":722,"o":"m 18 794 l 18 989 l 722 989 l 722 800 q 493 461 567 644 q 418 0 421 278 l 175 0 q 263 439 178 233 q 490 794 349 646 l 18 794 z "},"8":{"ha":872,"x_min":32,"x_max":843,"o":"m 679 521 q 843 281 843 458 q 735 61 843 144 q 438 -22 626 -22 q 140 61 249 -22 q 32 281 32 144 q 196 521 32 458 q 72 735 72 594 q 172 937 72 863 q 438 1011 271 1011 q 703 937 604 1011 q 803 735 803 863 q 679 521 803 594 m 553 811 q 438 844 511 844 q 324 811 364 844 q 282 718 282 778 q 323 626 282 660 q 438 593 364 593 q 552 626 511 593 q 593 718 593 660 q 553 811 593 778 m 307 196 q 438 157 350 157 q 569 196 525 157 q 614 300 614 233 q 568 405 614 368 q 438 442 522 442 q 307 405 353 442 q 261 300 261 368 q 307 196 261 233 z "},"9":{"ha":885,"x_min":42,"x_max":835,"o":"m 672 936 q 835 513 835 817 q 732 114 835 253 q 432 -25 629 -25 q 176 49 276 -25 q 56 256 76 122 l 271 256 q 429 146 293 146 q 568 216 522 146 q 621 443 614 286 q 378 333 540 333 q 131 429 218 333 q 42 658 42 524 q 150 914 42 818 q 428 1008 260 1008 q 672 936 575 1008 m 428 501 q 547 547 501 501 q 592 664 592 593 q 547 781 592 735 q 428 826 501 826 q 308 781 353 826 q 263 664 263 736 q 308 547 263 592 q 428 501 353 501 z "},"\u0000":{"ha":0,"x_min":0,"x_max":0,"o":""},"\r":{"ha":324,"x_min":0,"x_max":0,"o":""}," ":{"ha":324,"x_min":0,"x_max":0,"o":""},"!":{"ha":339,"x_min":47,"x_max":292,"o":"m 228 331 l 111 331 l 53 747 l 53 989 l 288 989 l 288 747 l 228 331 m 292 0 l 47 0 l 47 239 l 292 239 l 292 0 z "},"\"":{"ha":707,"x_min":75,"x_max":632,"o":"m 274 524 l 113 524 l 75 989 l 310 989 l 274 524 m 594 524 l 435 524 l 397 989 l 632 989 l 594 524 z "},"#":{"ha":986,"x_min":32,"x_max":954,"o":"m 954 757 l 918 581 l 794 581 l 760 408 l 883 408 l 849 233 l 724 233 l 676 0 l 482 0 l 529 233 l 349 233 l 301 0 l 107 0 l 154 233 l 32 233 l 67 408 l 190 408 l 225 581 l 103 581 l 139 757 l 261 757 l 308 989 l 503 989 l 456 757 l 636 757 l 683 989 l 878 989 l 831 757 l 954 757 m 385 408 l 565 408 l 600 581 l 419 581 l 385 408 z "},"$":{"ha":903,"x_min":26,"x_max":879,"o":"m 879 290 q 780 68 879 149 q 504 -21 681 -12 l 504 -161 l 403 -161 l 403 -21 q 125 83 222 -7 q 26 325 28 174 l 254 325 q 403 165 256 182 l 403 404 l 378 408 q 47 718 47 464 q 140 925 47 846 q 403 1011 233 1004 l 403 1150 l 504 1150 l 504 1008 q 753 913 667 994 q 846 689 840 831 l 624 689 q 504 822 618 803 l 504 597 l 538 592 q 798 488 717 560 q 879 290 879 417 m 286 728 q 313 660 286 685 q 403 618 340 635 l 403 826 q 286 728 286 814 m 504 383 l 504 163 q 636 275 636 175 q 608 343 636 319 q 504 383 579 367 z "},"%":{"ha":1263,"x_min":28,"x_max":1235,"o":"m 522 701 q 522 628 522 701 q 460 479 522 556 q 275 403 397 403 q 90 479 153 403 q 28 701 28 556 q 90 925 28 847 q 275 1001 153 1001 q 460 925 397 1001 q 522 701 522 847 m 436 0 l 299 0 l 826 989 l 964 989 l 436 0 m 207 568 q 275 529 229 529 q 343 568 321 529 q 365 701 365 604 q 343 836 365 797 q 275 875 321 875 q 207 836 229 875 q 185 701 185 797 q 207 568 185 604 m 988 -12 q 739 286 739 -12 q 801 510 739 433 q 988 586 864 586 q 1172 509 1108 586 q 1235 286 1235 432 q 1172 64 1235 140 q 988 -12 1108 -12 m 988 114 q 1055 153 1033 114 q 1076 286 1076 193 q 1055 419 1076 379 q 988 460 1033 460 q 918 420 940 460 q 896 286 896 381 q 918 153 896 193 q 988 114 940 114 z "},"&":{"ha":996,"x_min":32,"x_max":996,"o":"m 815 200 l 996 0 l 729 0 l 674 61 q 399 -22 549 -22 q 129 61 228 -22 q 32 275 32 142 q 238 553 32 460 l 236 554 q 161 660 183 614 q 139 761 139 707 q 219 940 139 869 q 439 1011 300 1011 q 657 946 572 1011 q 739 771 739 879 q 532 511 739 606 l 685 343 q 719 492 715 408 l 914 492 q 815 200 907 329 m 519 821 q 413 838 478 860 q 354 761 349 815 q 425 631 354 710 l 432 624 q 546 760 546 682 q 519 821 546 796 m 258 296 q 303 197 258 238 q 419 157 347 157 q 557 194 492 157 l 343 433 q 258 296 258 382 z "},"'":{"ha":385,"x_min":75,"x_max":310,"o":"m 274 524 l 113 524 l 75 989 l 310 989 l 274 524 z "},"(":{"ha":417,"x_min":54,"x_max":413,"o":"m 413 -272 l 214 -272 q 93 50 131 -107 q 54 407 54 206 q 93 769 54 613 q 214 1092 131 929 l 413 1092 q 275 407 275 803 q 413 -272 275 32 z "},")":{"ha":417,"x_min":4,"x_max":363,"o":"m 203 -272 l 4 -272 q 142 407 142 32 q 4 1092 142 803 l 203 1092 q 325 769 285 931 q 363 407 363 608 q 325 50 363 208 q 203 -272 285 -110 z "},"*":{"ha":629,"x_min":25,"x_max":604,"o":"m 314 575 l 204 428 l 94 514 l 208 667 l 25 725 l 71 856 l 244 799 l 244 989 l 385 989 l 385 799 l 558 856 l 604 725 l 421 667 l 535 514 l 425 428 l 314 575 z "},"+":{"ha":733,"x_min":40,"x_max":693,"o":"m 465 586 l 693 586 l 693 404 l 465 404 l 465 175 l 267 175 l 267 404 l 40 404 l 40 586 l 267 586 l 267 815 l 465 815 l 465 586 z "},",":{"ha":339,"x_min":47,"x_max":292,"o":"m 47 0 l 47 239 l 292 239 l 292 -18 q 78 -235 292 -233 l 47 -236 l 47 -117 l 79 -117 q 151 -24 151 -115 l 151 0 l 47 0 z "},"-":{"ha":500,"x_min":40,"x_max":460,"o":"m 460 299 l 40 299 l 40 481 l 460 481 l 460 299 z "},".":{"ha":339,"x_min":47,"x_max":292,"o":"m 292 0 l 47 0 l 47 239 l 292 239 l 292 0 z "},"/":{"ha":564,"x_min":0,"x_max":564,"o":"m 210 0 l 0 0 l 354 989 l 564 989 l 210 0 z "},":":{"ha":339,"x_min":47,"x_max":292,"o":"m 292 443 l 47 443 l 47 681 l 292 681 l 292 443 m 292 0 l 47 0 l 47 239 l 292 239 l 292 0 z "},";":{"ha":339,"x_min":47,"x_max":292,"o":"m 47 442 l 47 681 l 292 681 l 292 442 l 47 442 m 151 0 l 47 0 l 47 239 l 292 239 l 292 -18 q 78 -235 292 -233 l 47 -236 l 47 -117 l 79 -117 q 151 -24 151 -115 l 151 0 z "},"<":{"ha":733,"x_min":40,"x_max":693,"o":"m 693 853 l 693 640 l 615 611 q 249 494 431 549 q 615 378 431 440 l 693 349 l 693 138 l 40 389 l 40 600 l 693 853 z "},"=":{"ha":733,"x_min":40,"x_max":693,"o":"m 693 546 l 40 546 l 40 718 l 693 718 l 693 546 m 693 271 l 40 271 l 40 443 l 693 443 l 693 271 z "},">":{"ha":733,"x_min":40,"x_max":693,"o":"m 40 640 l 40 853 l 693 600 l 693 389 l 40 138 l 40 349 l 117 378 q 483 494 319 447 q 117 611 319 542 l 40 640 z "},"?":{"ha":760,"x_min":24,"x_max":733,"o":"m 471 329 l 263 329 q 269 435 263 397 q 296 503 276 469 q 399 599 321 546 q 485 674 463 640 q 500 726 500 700 q 381 831 500 831 q 276 797 307 831 q 244 682 246 763 l 25 682 q 116 928 24 844 q 388 1011 208 1011 q 640 942 547 1011 q 733 750 733 872 q 590 510 733 611 q 492 425 507 447 q 471 329 471 397 m 489 0 l 244 0 l 244 239 l 489 239 l 489 0 z "},"@":{"ha":1281,"x_min":33,"x_max":1247,"o":"m 643 1011 q 1079 863 910 1011 q 1247 481 1247 715 q 1171 213 1247 314 q 961 108 1094 108 q 835 140 886 108 q 767 229 785 172 q 574 114 708 114 q 395 194 463 114 q 328 425 328 275 q 399 651 328 569 q 575 733 469 733 q 738 647 683 733 l 738 717 l 928 717 l 928 349 q 988 268 928 268 q 1064 325 1038 268 q 1090 475 1090 382 q 972 761 1090 653 q 639 869 853 869 q 313 747 435 869 q 190 424 190 625 q 317 89 190 210 q 651 -32 444 -32 q 939 21 810 -32 l 939 -118 q 650 -167 810 -167 q 203 -6 372 -167 q 33 424 33 157 q 201 844 33 678 q 643 1011 368 1011 m 632 267 q 740 425 740 267 q 631 581 740 581 q 519 425 519 581 q 632 267 519 267 z "},"A":{"ha":1017,"x_min":0,"x_max":1015,"o":"m 1015 0 l 767 0 l 708 172 l 297 172 l 240 0 l 0 0 l 364 989 l 643 989 l 1015 0 m 419 538 l 363 368 l 642 368 l 585 538 q 501 788 558 613 q 419 538 428 561 z "},"B":{"ha":940,"x_min":75,"x_max":917,"o":"m 744 526 q 871 431 825 497 q 917 288 917 365 q 826 76 917 151 q 558 0 735 0 l 75 0 l 75 989 l 544 989 q 792 919 708 989 q 876 736 876 850 q 744 526 876 589 m 529 801 l 310 801 l 310 590 l 529 590 q 613 619 583 590 q 643 699 643 649 q 613 774 643 746 q 529 801 583 801 m 310 188 l 544 188 q 641 217 607 188 q 675 300 675 246 q 544 413 675 413 l 310 413 l 310 188 z "},"C":{"ha":1029,"x_min":33,"x_max":997,"o":"m 526 -22 q 169 118 306 -22 q 33 494 33 258 q 167 872 33 733 q 526 1011 300 1011 q 838 914 710 1011 q 994 635 968 815 l 757 635 q 674 763 735 718 q 526 808 614 808 q 342 726 407 808 q 278 494 278 644 q 342 263 278 344 q 526 181 407 181 q 682 233 618 181 q 763 381 746 286 l 997 381 q 846 83 975 189 q 526 -22 715 -22 z "},"D":{"ha":1019,"x_min":75,"x_max":986,"o":"m 75 989 l 481 989 q 856 858 725 989 q 986 494 986 726 q 856 131 986 263 q 481 0 725 0 l 75 0 l 75 989 m 310 199 l 476 199 q 673 273 604 199 q 742 494 742 347 q 673 716 742 642 q 476 790 604 790 l 310 790 l 310 199 z "},"E":{"ha":865,"x_min":75,"x_max":831,"o":"m 831 989 l 831 779 l 310 779 l 310 600 l 783 600 l 783 403 l 310 403 l 310 210 l 829 210 l 829 0 l 75 0 l 75 989 l 831 989 z "},"F":{"ha":819,"x_min":75,"x_max":801,"o":"m 801 989 l 801 779 l 310 779 l 310 600 l 764 600 l 764 401 l 310 401 l 310 0 l 75 0 l 75 989 l 801 989 z "},"G":{"ha":1081,"x_min":33,"x_max":1019,"o":"m 564 368 l 564 551 l 1019 551 l 1019 0 l 856 0 l 828 131 q 507 -22 728 -22 q 163 119 292 -22 q 33 494 33 258 q 168 872 33 733 q 535 1011 301 1011 q 856 915 728 1011 q 1007 656 985 818 l 767 656 q 686 768 746 728 q 536 808 626 808 q 347 725 415 808 q 278 494 278 642 q 349 264 278 347 q 547 181 421 181 q 705 233 639 181 q 783 368 771 285 l 564 368 z "},"H":{"ha":1017,"x_min":75,"x_max":942,"o":"m 707 611 l 707 989 l 942 989 l 942 0 l 707 0 l 707 400 l 310 400 l 310 0 l 75 0 l 75 989 l 310 989 l 310 611 l 707 611 z "},"I":{"ha":385,"x_min":75,"x_max":310,"o":"m 310 0 l 75 0 l 75 989 l 310 989 l 310 0 z "},"J":{"ha":790,"x_min":32,"x_max":729,"o":"m 378 -22 q 124 63 217 -22 q 32 294 32 147 l 32 357 l 256 357 l 256 294 q 288 206 256 238 q 375 175 319 175 q 463 206 431 175 q 494 294 494 238 l 494 989 l 729 989 l 729 294 q 638 67 729 156 q 378 -22 544 -22 z "},"K":{"ha":1007,"x_min":75,"x_max":1006,"o":"m 719 989 l 1006 989 l 608 585 l 1006 0 l 728 0 l 443 428 l 310 296 l 310 0 l 75 0 l 75 989 l 310 989 l 310 561 l 719 989 z "},"L":{"ha":781,"x_min":75,"x_max":763,"o":"m 310 989 l 310 210 l 763 210 l 763 0 l 75 0 l 75 989 l 310 989 z "},"M":{"ha":1247,"x_min":75,"x_max":1172,"o":"m 692 568 l 821 989 l 1172 989 l 1172 0 l 949 0 l 949 290 q 957 768 949 567 q 890 543 931 667 l 719 0 l 528 0 l 357 543 q 292 767 326 642 q 299 290 299 533 l 299 0 l 75 0 l 75 989 l 426 989 l 557 564 q 625 318 583 474 q 692 568 658 450 z "},"N":{"ha":1017,"x_min":75,"x_max":942,"o":"m 718 782 l 718 989 l 942 989 l 942 0 l 689 0 l 447 394 q 293 664 336 579 q 299 207 299 474 l 299 0 l 75 0 l 75 989 l 328 989 l 569 594 q 724 322 674 422 q 718 782 718 515 z "},"O":{"ha":1081,"x_min":33,"x_max":1047,"o":"m 907 119 q 540 -22 767 -22 q 174 119 314 -22 q 33 494 33 263 q 174 869 33 726 q 540 1011 314 1011 q 907 869 767 1011 q 1047 494 1047 726 q 907 119 1047 263 m 350 265 q 540 182 421 182 q 732 265 658 182 q 804 494 804 347 q 732 724 804 642 q 540 807 658 807 q 350 724 421 807 q 278 494 278 642 q 350 265 278 347 z "},"P":{"ha":924,"x_min":75,"x_max":890,"o":"m 75 989 l 525 989 q 793 899 696 989 q 890 656 890 810 q 793 412 890 501 q 525 322 696 322 l 310 322 l 310 0 l 75 0 l 75 989 m 310 521 l 510 521 q 617 556 579 521 q 656 656 656 590 q 617 756 656 721 q 510 790 578 790 l 310 790 l 310 521 z "},"Q":{"ha":1081,"x_min":33,"x_max":1047,"o":"m 1047 494 q 914 126 1047 268 l 1024 7 l 908 -101 l 788 32 q 540 -22 675 -22 q 174 119 314 -22 q 33 494 33 263 q 174 869 33 726 q 540 1011 314 1011 q 907 869 767 1011 q 1047 494 1047 726 m 540 182 q 636 199 592 182 l 532 314 l 647 421 l 757 300 q 804 494 804 376 q 733 723 804 639 q 540 807 661 807 q 350 724 421 807 q 278 494 278 642 q 350 265 278 347 q 540 182 421 182 z "},"R":{"ha":940,"x_min":75,"x_max":917,"o":"m 882 246 l 889 107 q 917 0 890 40 l 675 0 q 651 108 653 42 l 647 219 q 610 333 644 301 q 501 364 576 364 l 310 364 l 310 0 l 75 0 l 75 989 l 543 989 q 809 912 717 989 q 901 703 901 835 q 742 468 901 532 q 848 392 818 443 q 882 246 878 340 m 310 801 l 310 540 l 517 540 q 622 574 585 540 q 660 672 660 608 q 513 801 660 801 l 310 801 z "},"S":{"ha":903,"x_min":26,"x_max":879,"o":"m 460 -22 q 140 69 253 -22 q 26 325 28 161 l 254 325 q 308 197 256 233 q 468 161 360 161 q 636 275 636 161 q 599 349 636 325 q 458 393 563 374 l 378 408 q 47 718 47 464 q 148 932 47 853 q 433 1011 249 1011 q 735 928 631 1011 q 846 689 839 844 l 624 689 q 576 794 619 761 q 438 828 532 828 q 286 728 286 828 q 323 651 286 678 q 454 607 360 625 l 538 592 q 798 488 717 560 q 879 290 879 417 q 768 58 879 139 q 460 -22 657 -22 z "},"T":{"ha":878,"x_min":18,"x_max":861,"o":"m 18 989 l 861 989 l 861 779 l 557 779 l 557 0 l 321 0 l 321 779 l 18 779 l 18 989 z "},"U":{"ha":982,"x_min":61,"x_max":921,"o":"m 490 -22 q 179 82 297 -22 q 61 376 61 183 l 61 989 l 296 989 l 296 374 q 347 230 296 279 q 490 181 397 181 q 635 230 583 181 q 686 374 686 279 l 686 989 l 921 989 l 921 376 q 806 82 921 186 q 490 -22 692 -22 z "},"V":{"ha":981,"x_min":0,"x_max":981,"o":"m 596 554 l 739 989 l 981 989 l 635 0 l 357 0 l 0 989 l 251 989 l 396 554 q 497 207 464 342 q 596 554 546 397 z "},"W":{"ha":1379,"x_min":0,"x_max":1379,"o":"m 1051 650 l 1135 989 l 1379 989 l 1108 0 l 846 0 l 764 350 q 690 707 725 507 q 617 350 660 546 l 533 0 l 271 0 l 0 989 l 246 989 l 328 650 q 415 263 381 433 q 493 650 463 513 l 572 989 l 807 989 l 886 650 q 964 260 925 481 q 1051 650 983 349 z "},"X":{"ha":957,"x_min":0,"x_max":957,"o":"m 936 989 l 615 507 l 957 0 l 685 0 l 603 124 q 475 321 544 211 q 349 124 454 286 l 267 0 l 0 0 l 343 503 l 21 989 l 292 989 l 367 874 q 482 690 368 869 q 597 874 547 797 l 674 989 l 936 989 z "},"Y":{"ha":972,"x_min":0,"x_max":972,"o":"m 631 847 l 714 989 l 972 989 l 606 385 l 606 0 l 371 0 l 371 385 l 0 989 l 265 989 l 351 846 q 424 721 399 764 q 451 672 435 700 q 476 628 467 644 q 493 600 486 611 q 631 847 571 743 z "},"Z":{"ha":896,"x_min":35,"x_max":861,"o":"m 625 210 l 861 210 l 861 0 l 35 0 l 35 185 l 365 574 q 547 782 419 638 q 261 779 292 779 l 51 779 l 51 989 l 853 989 l 853 806 l 521 415 q 338 207 425 303 q 625 210 593 210 z "},"[":{"ha":508,"x_min":75,"x_max":490,"o":"m 490 -272 l 75 -272 l 75 1092 l 490 1092 l 490 911 l 281 911 l 281 -92 l 490 -92 l 490 -272 z "},"\\":{"ha":564,"x_min":0,"x_max":564,"o":"m 564 0 l 354 0 l 0 989 l 210 989 l 564 0 z "},"]":{"ha":508,"x_min":18,"x_max":433,"o":"m 433 -272 l 18 -272 l 18 -92 l 228 -92 l 228 911 l 18 911 l 18 1092 l 433 1092 l 433 -272 z "},"^":{"ha":594,"x_min":1,"x_max":592,"o":"m 196 989 l 399 989 l 592 590 l 403 590 l 324 764 q 311 796 321 772 q 297 831 301 819 q 283 796 293 819 q 271 764 274 772 l 192 590 l 1 590 l 196 989 z "},"_":{"ha":682,"x_min":-1,"x_max":683,"o":"m 683 -236 l -1 -236 l -1 -78 l 683 -78 l 683 -236 z "},"`":{"ha":556,"x_min":99,"x_max":457,"o":"m 457 799 l 285 799 l 99 999 l 335 999 l 457 799 z "},"a":{"ha":776,"x_min":26,"x_max":753,"o":"m 753 0 l 535 0 q 517 81 518 32 q 288 -17 444 -17 q 98 42 169 -17 q 26 203 26 100 q 307 426 26 403 l 419 436 q 513 507 513 446 q 403 579 513 579 q 309 559 336 579 q 276 485 282 539 l 61 485 q 404 733 81 733 q 724 513 724 733 l 724 132 q 753 0 724 42 m 353 129 q 469 167 426 129 q 513 282 513 206 l 513 335 q 440 307 493 314 l 351 297 q 247 211 247 286 q 275 151 247 174 q 353 129 303 129 z "},"b":{"ha":836,"x_min":63,"x_max":803,"o":"m 490 733 q 719 632 635 733 q 803 358 803 531 q 719 85 803 186 q 490 -17 635 -17 q 274 96 347 -17 l 274 0 l 63 0 l 63 989 l 279 989 l 279 629 q 490 733 353 733 m 431 157 q 543 210 503 157 q 583 364 583 264 q 431 560 583 560 q 276 358 276 560 q 431 157 276 157 z "},"c":{"ha":775,"x_min":33,"x_max":756,"o":"m 401 -17 q 133 86 233 -17 q 33 358 33 189 q 133 632 33 531 q 401 733 233 733 q 642 656 549 733 q 751 447 736 579 l 536 447 q 401 557 518 557 q 253 358 253 557 q 401 161 253 161 q 540 282 526 161 l 756 282 q 649 64 746 146 q 401 -17 551 -17 z "},"d":{"ha":835,"x_min":33,"x_max":772,"o":"m 556 631 l 556 989 l 772 989 l 772 0 l 561 0 l 561 93 q 346 -17 489 -17 q 118 85 201 -17 q 33 358 33 186 q 118 632 33 531 q 346 733 201 733 q 556 631 482 733 m 406 157 q 560 358 560 157 q 406 560 560 560 q 293 506 333 560 q 253 353 253 453 q 406 157 253 157 z "},"e":{"ha":811,"x_min":33,"x_max":772,"o":"m 772 338 l 772 294 l 242 294 q 296 182 253 221 q 406 143 339 143 q 550 224 511 143 l 756 224 q 632 48 726 113 q 406 -17 538 -17 q 136 86 239 -17 q 33 358 33 189 q 135 631 33 529 q 403 733 235 733 q 672 626 569 733 q 772 338 772 518 m 400 574 q 243 432 267 574 l 560 432 q 507 536 549 499 q 400 574 465 574 z "},"f":{"ha":513,"x_min":15,"x_max":483,"o":"m 483 828 l 425 828 q 339 751 339 828 l 339 717 l 481 717 l 481 558 l 339 558 l 339 0 l 122 0 l 122 558 l 15 558 l 15 717 l 122 717 l 122 758 q 187 931 122 867 q 381 994 251 994 q 483 989 429 994 l 483 828 z "},"g":{"ha":835,"x_min":33,"x_max":772,"o":"m 561 622 l 561 717 l 772 717 l 772 22 q 676 -206 772 -124 q 406 -289 579 -289 q 156 -219 246 -289 q 58 -26 65 -149 l 272 -26 q 410 -126 281 -126 q 518 -90 481 -126 q 556 14 556 -53 l 556 117 q 350 15 488 15 q 121 115 208 15 q 33 375 33 215 q 119 635 33 533 q 346 733 206 733 q 561 622 490 733 m 406 189 q 519 237 479 189 q 560 375 560 285 q 520 513 560 465 q 406 560 481 560 q 293 510 333 560 q 253 372 253 461 q 293 237 253 285 q 406 189 333 189 z "},"h":{"ha":810,"x_min":63,"x_max":747,"o":"m 499 733 q 680 665 613 733 q 747 469 747 596 l 747 0 l 531 0 l 531 426 q 415 549 531 549 q 318 510 357 549 q 279 400 279 471 l 279 0 l 63 0 l 63 989 l 279 989 l 279 622 q 499 733 361 733 z "},"i":{"ha":343,"x_min":63,"x_max":279,"o":"m 275 799 l 68 799 l 68 982 l 275 982 l 275 799 m 279 0 l 63 0 l 63 717 l 279 717 l 279 0 z "},"j":{"ha":343,"x_min":-32,"x_max":279,"o":"m 275 799 l 68 799 l 68 982 l 275 982 l 275 799 m 39 -275 q -32 -274 -18 -275 l -32 -108 l -6 -108 q 47 -94 31 -108 q 63 -44 63 -81 l 63 717 l 279 717 l 279 -69 q 222 -226 279 -178 q 39 -275 165 -275 z "},"k":{"ha":806,"x_min":63,"x_max":804,"o":"m 804 0 l 557 0 l 372 296 l 275 196 l 275 0 l 63 0 l 63 989 l 275 989 l 275 433 l 540 717 l 789 717 l 519 439 l 804 0 z "},"l":{"ha":343,"x_min":63,"x_max":279,"o":"m 279 0 l 63 0 l 63 989 l 279 989 l 279 0 z "},"m":{"ha":1238,"x_min":63,"x_max":1175,"o":"m 924 733 q 1108 663 1042 733 q 1175 465 1175 593 l 1175 0 l 958 0 l 958 428 q 851 549 958 549 q 761 510 794 549 q 728 396 728 471 l 728 0 l 511 0 l 511 428 q 404 549 511 549 q 313 510 347 549 q 279 396 279 471 l 279 0 l 63 0 l 63 717 l 274 717 l 274 615 q 478 733 353 733 q 700 604 639 733 q 924 733 788 733 z "},"n":{"ha":810,"x_min":63,"x_max":747,"o":"m 499 733 q 680 665 613 733 q 747 469 747 596 l 747 0 l 531 0 l 531 426 q 415 549 531 549 q 318 510 357 549 q 279 400 279 471 l 279 0 l 63 0 l 63 717 l 274 717 l 274 615 q 499 733 357 733 z "},"o":{"ha":818,"x_min":33,"x_max":785,"o":"m 683 86 q 410 -17 581 -17 q 136 86 239 -17 q 33 358 33 189 q 136 632 33 529 q 410 733 238 733 q 683 632 582 733 q 785 358 785 531 q 683 86 785 188 m 410 157 q 525 208 485 157 q 565 358 565 260 q 525 508 565 457 q 410 560 485 560 q 293 508 333 560 q 253 358 253 457 q 293 208 253 260 q 410 157 333 157 z "},"p":{"ha":836,"x_min":63,"x_max":803,"o":"m 490 733 q 719 632 635 733 q 803 358 803 531 q 719 85 803 186 q 490 -17 635 -17 q 279 88 353 -17 l 279 -272 l 63 -272 l 63 717 l 274 717 l 274 621 q 490 733 347 733 m 431 157 q 543 210 503 157 q 583 364 583 264 q 431 560 583 560 q 276 358 276 560 q 431 157 276 157 z "},"q":{"ha":835,"x_min":33,"x_max":772,"o":"m 561 624 l 561 717 l 772 717 l 772 -272 l 556 -272 l 556 86 q 346 -17 482 -17 q 118 85 201 -17 q 33 358 33 186 q 118 632 33 531 q 346 733 201 733 q 561 624 489 733 m 406 157 q 560 358 560 157 q 406 560 560 560 q 293 506 333 560 q 253 353 253 453 q 406 157 253 157 z "},"r":{"ha":554,"x_min":63,"x_max":525,"o":"m 478 728 q 525 725 483 728 l 525 528 l 469 528 q 279 333 279 528 l 279 0 l 63 0 l 63 717 l 274 717 l 274 583 q 478 728 324 728 z "},"s":{"ha":722,"x_min":19,"x_max":706,"o":"m 364 -21 q 112 38 194 -21 q 19 228 29 97 l 231 228 q 267 147 236 171 q 368 124 299 124 q 489 193 489 124 q 463 244 489 226 q 365 272 436 261 l 272 288 q 31 507 31 325 q 114 674 31 615 q 353 733 197 733 q 686 488 674 733 l 485 488 q 353 589 483 589 q 243 521 243 589 q 268 474 243 490 q 347 449 293 457 l 454 433 q 644 360 583 414 q 706 211 706 306 q 616 40 706 100 q 364 -21 526 -21 z "},"t":{"ha":506,"x_min":15,"x_max":476,"o":"m 476 717 l 476 558 l 339 558 l 339 224 q 357 174 339 188 q 421 161 375 161 l 476 161 l 476 0 q 376 -6 438 -6 q 182 42 242 -6 q 122 200 122 90 l 122 558 l 15 558 l 15 717 l 122 717 l 122 929 l 339 929 l 339 717 l 476 717 z "},"u":{"ha":810,"x_min":63,"x_max":747,"o":"m 531 317 l 531 717 l 747 717 l 747 0 l 536 0 l 536 101 q 311 -17 453 -17 q 130 52 197 -17 q 63 247 63 121 l 63 717 l 279 717 l 279 290 q 394 168 279 168 q 492 207 453 168 q 531 317 531 246 z "},"v":{"ha":774,"x_min":1,"x_max":771,"o":"m 511 608 l 549 717 l 771 717 l 515 0 l 257 0 l 1 717 l 235 717 l 272 608 q 329 408 301 506 q 372 255 357 310 q 392 185 388 200 q 411 255 396 200 q 454 408 426 310 q 511 608 482 506 z "},"w":{"ha":1192,"x_min":1,"x_max":1189,"o":"m 890 486 l 957 717 l 1189 717 l 956 0 l 728 0 l 649 269 q 594 463 621 360 q 543 269 569 363 l 464 0 l 236 0 l 1 717 l 235 717 l 301 486 q 368 244 336 365 q 431 488 394 354 l 496 717 l 696 717 l 761 488 q 824 244 797 354 q 890 486 856 365 z "},"x":{"ha":767,"x_min":1,"x_max":765,"o":"m 751 717 l 504 369 l 765 0 l 519 0 l 501 26 q 382 207 479 58 q 261 26 328 126 l 243 0 l 1 0 l 265 367 l 15 717 l 263 717 l 289 679 q 388 529 367 563 q 485 679 439 613 l 511 717 l 751 717 z "},"y":{"ha":765,"x_min":1,"x_max":764,"o":"m 508 614 l 540 717 l 764 717 l 504 -28 q 381 -219 456 -167 q 147 -274 303 -274 q 63 -271 121 -274 l 63 -104 l 132 -104 q 240 -4 240 -104 q 207 135 240 40 l 1 717 l 235 717 l 267 615 q 389 164 336 382 q 508 614 443 390 z "},"z":{"ha":704,"x_min":39,"x_max":667,"o":"m 454 161 l 667 161 l 667 0 l 39 0 l 39 136 l 293 450 q 382 557 342 510 q 238 556 350 556 l 42 556 l 42 717 l 653 717 l 653 581 l 399 267 q 310 160 350 207 q 454 161 342 161 z "},"{":{"ha":522,"x_min":40,"x_max":504,"o":"m 504 -272 l 415 -272 q 154 -26 154 -272 l 154 232 q 128 297 154 275 q 40 319 101 318 l 40 500 q 128 523 101 501 q 154 588 154 544 l 154 846 q 415 1092 154 1092 l 504 1092 l 504 915 l 443 915 q 374 895 393 915 q 354 825 354 875 l 354 540 q 204 411 354 417 l 204 408 q 354 281 354 403 l 354 -7 q 374 -76 354 -56 q 443 -96 393 -96 l 504 -96 l 504 -272 z "},"|":{"ha":329,"x_min":75,"x_max":254,"o":"m 254 -281 l 75 -281 l 75 1107 l 254 1107 l 254 -281 z "},"}":{"ha":522,"x_min":18,"x_max":482,"o":"m 107 -272 l 18 -272 l 18 -96 l 79 -96 q 149 -76 129 -96 q 168 -7 168 -56 l 168 281 q 317 408 168 401 l 317 411 q 168 540 168 418 l 168 825 q 149 895 168 875 q 79 915 129 915 l 18 915 l 18 1092 l 107 1092 q 368 846 368 1092 l 368 588 q 394 523 368 544 q 482 500 421 501 l 482 319 q 394 297 421 318 q 368 232 368 275 l 368 -26 q 107 -272 368 -272 z "},"~":{"ha":733,"x_min":40,"x_max":693,"o":"m 494 371 q 346 415 438 371 q 257 447 285 447 q 210 431 226 447 q 189 372 194 414 l 40 372 q 94 556 43 490 q 239 621 146 621 q 388 575 297 621 q 476 543 454 543 q 523 560 507 543 q 544 618 539 578 l 693 618 q 639 436 690 501 q 494 371 588 371 z "}," ":{"ha":324,"x_min":0,"x_max":0,"o":""},"¡":{"ha":339,"x_min":47,"x_max":292,"o":"m 292 575 l 47 575 l 47 814 l 292 814 l 292 575 m 288 -175 l 53 -175 l 53 67 l 111 483 l 228 483 l 288 67 l 288 -175 z "},"¢":{"ha":775,"x_min":33,"x_max":756,"o":"m 540 282 l 756 282 q 665 78 746 157 q 451 -14 583 0 l 451 -161 l 354 -161 l 354 -14 q 120 101 207 1 q 33 358 33 201 q 119 616 33 517 q 354 731 206 715 l 354 872 l 451 872 l 451 731 q 658 643 579 718 q 751 447 738 568 l 536 447 q 451 550 521 532 l 451 168 q 540 282 529 190 m 253 358 q 354 168 253 197 l 354 550 q 253 358 253 521 z "},"£":{"ha":799,"x_min":21,"x_max":774,"o":"m 415 360 q 349 210 415 275 l 774 210 l 774 0 l 46 0 l 46 185 q 152 250 119 213 q 185 344 185 288 q 174 415 185 374 l 21 415 l 21 521 l 131 521 q 72 726 72 651 q 167 935 72 858 q 424 1011 263 1011 q 774 689 756 1011 l 553 689 q 519 792 550 758 q 421 825 489 825 q 340 800 369 825 q 310 726 310 775 q 356 576 310 681 l 378 521 l 646 521 l 646 415 l 410 415 q 415 360 415 392 z "},"¤":{"ha":811,"x_min":33,"x_max":778,"o":"m 778 801 l 678 701 q 749 494 749 611 q 678 288 749 378 l 778 188 l 703 113 l 599 217 q 410 163 514 163 q 217 221 303 163 l 108 113 l 33 188 l 139 293 q 71 494 71 379 q 139 696 71 610 l 33 801 l 108 876 l 217 768 q 410 826 303 826 q 599 772 514 826 l 703 876 l 778 801 m 297 382 q 410 336 343 336 q 522 382 476 336 q 568 494 568 425 q 522 608 568 563 q 410 653 475 653 q 297 608 344 653 q 251 494 251 563 q 297 382 251 425 z "},"¥":{"ha":972,"x_min":0,"x_max":972,"o":"m 714 989 l 972 989 l 650 458 l 817 458 l 817 354 l 606 354 l 606 250 l 817 250 l 817 146 l 606 146 l 606 0 l 371 0 l 371 146 l 157 146 l 157 250 l 371 250 l 371 354 l 157 354 l 157 458 l 325 458 l 0 989 l 265 989 l 351 846 q 424 721 399 764 q 451 672 435 700 q 476 628 467 644 q 493 600 486 611 q 631 847 571 743 l 714 989 z "},"¦":{"ha":329,"x_min":75,"x_max":254,"o":"m 254 553 l 75 553 l 75 1107 l 254 1107 l 254 553 m 254 -283 l 75 -283 l 75 271 l 254 271 l 254 -283 z "},"§":{"ha":843,"x_min":26,"x_max":818,"o":"m 818 313 q 657 108 818 174 q 735 -49 735 39 q 654 -224 735 -164 q 422 -285 574 -285 q 190 -220 268 -285 q 108 -39 113 -156 l 310 -39 q 425 -140 314 -140 q 522 -62 522 -140 q 502 -12 522 -32 q 424 43 482 8 l 264 136 q 81 271 135 211 q 26 414 26 331 q 188 618 26 553 q 110 775 110 688 q 190 950 110 889 q 422 1011 271 1011 q 654 947 576 1011 q 736 765 732 882 l 535 765 q 419 867 531 867 q 322 789 322 867 q 343 737 322 758 q 421 683 364 715 l 581 590 q 764 456 710 515 q 818 313 818 396 m 347 299 l 508 206 l 513 203 q 606 308 606 238 q 582 367 606 342 q 497 428 558 392 l 336 521 l 332 524 q 239 417 239 489 q 263 360 239 385 q 347 299 286 335 z "},"¨":{"ha":556,"x_min":28,"x_max":528,"o":"m 236 799 l 28 799 l 28 982 l 236 982 l 236 799 m 528 799 l 319 799 l 319 982 l 528 982 l 528 799 z "},"©":{"ha":1124,"x_min":33,"x_max":1090,"o":"m 939 128 q 561 -22 786 -22 q 185 128 336 -22 q 33 494 33 278 q 185 863 33 713 q 561 1011 336 1011 q 939 863 786 1011 q 1090 494 1090 713 q 939 128 1090 278 m 296 231 q 563 124 403 124 q 829 231 722 124 q 933 494 933 338 q 829 760 933 653 q 563 865 724 865 q 296 760 401 865 q 190 494 190 654 q 296 231 190 336 m 565 214 q 369 290 442 214 q 296 494 296 367 q 369 699 296 622 q 565 775 442 775 q 745 715 676 775 q 822 556 814 656 l 660 556 q 565 640 650 640 q 460 494 460 640 q 565 349 460 349 q 664 442 658 349 l 825 442 q 748 276 818 338 q 565 214 678 214 z "},"ª":{"ha":679,"x_min":14,"x_max":639,"o":"m 639 364 l 451 364 q 438 435 442 394 q 243 350 378 350 q 77 400 140 350 q 14 538 14 450 q 72 678 14 631 q 260 736 131 725 l 353 746 q 413 762 396 749 q 431 804 431 775 q 339 865 431 865 q 260 847 283 865 q 233 781 238 829 l 44 781 q 122 947 51 892 q 340 1001 193 1001 q 619 810 619 1001 l 619 488 q 639 364 619 415 m 300 482 q 395 515 360 482 q 431 613 431 549 l 431 653 q 372 632 414 636 l 299 625 q 210 551 210 615 q 233 501 210 519 q 300 482 257 482 z "},"«":{"ha":671,"x_min":75,"x_max":596,"o":"m 311 65 l 75 258 l 75 474 l 311 667 l 311 465 l 189 367 l 311 267 l 311 65 m 360 474 l 596 667 l 596 465 l 474 367 l 596 267 l 596 65 l 360 258 l 360 474 z "},"¬":{"ha":733,"x_min":40,"x_max":693,"o":"m 40 446 l 40 628 l 693 628 l 693 217 l 493 217 l 493 446 l 40 446 z "},"­":{"ha":500,"x_min":40,"x_max":460,"o":"m 460 299 l 40 299 l 40 481 l 460 481 l 460 299 z "},"®":{"ha":779,"x_min":25,"x_max":754,"o":"m 390 1011 q 649 908 542 1011 q 754 657 754 807 q 649 408 754 510 q 390 306 542 306 q 131 408 238 306 q 25 657 25 510 q 131 908 25 807 q 390 1011 238 1011 m 390 385 q 589 463 507 385 q 668 657 668 539 q 589 854 668 775 q 390 932 507 932 q 192 854 272 932 q 111 657 111 775 q 192 463 111 539 q 390 385 272 385 m 540 575 l 543 526 q 558 482 546 494 l 458 482 q 447 526 449 500 l 444 564 q 434 599 443 590 q 401 608 425 608 l 342 608 l 342 482 l 247 482 l 247 839 l 415 839 q 513 811 478 839 q 547 733 547 783 q 497 653 547 678 q 540 575 539 633 m 342 760 l 342 682 l 406 682 q 449 721 449 682 q 404 760 449 760 l 342 760 z "},"¯":{"ha":556,"x_min":44,"x_max":511,"o":"m 511 799 l 44 799 l 44 940 l 511 940 l 511 799 z "},"°":{"ha":492,"x_min":25,"x_max":467,"o":"m 246 582 q 89 643 153 582 q 25 792 25 703 q 89 942 25 882 q 246 1001 150 1001 q 403 942 339 1001 q 467 792 467 882 q 403 643 467 703 q 246 582 338 582 m 246 704 q 308 729 283 704 q 333 792 333 754 q 308 853 333 829 q 246 878 283 878 q 183 853 208 878 q 158 792 158 829 q 184 729 158 754 q 246 704 210 704 z "},"±":{"ha":733,"x_min":40,"x_max":693,"o":"m 465 815 l 465 633 l 693 633 l 693 451 l 465 451 l 465 271 l 267 271 l 267 451 l 40 451 l 40 633 l 267 633 l 267 815 l 465 815 m 693 0 l 40 0 l 40 182 l 693 182 l 693 0 z "},"²":{"ha":496,"x_min":19,"x_max":474,"o":"m 304 943 l 272 928 q 196 860 208 897 l 474 860 l 474 733 l 19 733 l 22 790 q 196 1032 32 957 l 240 1053 q 322 1135 322 1090 q 256 1193 322 1193 q 178 1110 181 1193 l 31 1110 q 96 1265 39 1210 q 256 1319 153 1319 q 414 1271 354 1319 q 474 1146 474 1222 q 434 1030 474 1075 q 304 943 394 985 z "},"³":{"ha":510,"x_min":19,"x_max":493,"o":"m 404 1039 q 493 904 493 1001 q 431 771 493 821 q 263 721 369 721 q 81 778 143 721 q 19 942 19 836 l 165 942 q 188 868 165 890 q 258 846 210 846 q 317 863 296 846 q 339 910 339 881 q 254 976 339 976 l 210 976 l 210 1085 l 256 1085 q 332 1144 332 1085 q 261 1200 332 1200 q 181 1129 186 1200 l 35 1129 q 263 1319 43 1319 q 420 1276 363 1319 q 478 1158 478 1233 q 404 1039 478 1083 z "},"´":{"ha":556,"x_min":104,"x_max":463,"o":"m 276 799 l 104 799 l 226 999 l 463 999 l 276 799 z "},"µ":{"ha":811,"x_min":63,"x_max":749,"o":"m 531 317 l 531 717 l 749 717 l 749 0 l 536 0 l 536 100 q 319 -17 456 -17 q 276 -11 293 -17 l 276 -272 l 63 -272 l 63 717 l 281 717 l 281 290 q 396 168 281 168 q 492 207 454 168 q 531 317 531 246 z "},"¶":{"ha":828,"x_min":33,"x_max":753,"o":"m 501 0 l 338 0 l 338 504 q 116 567 199 504 q 33 743 33 631 q 361 989 33 989 l 753 989 l 753 0 l 589 0 l 589 836 l 501 836 l 501 0 z "},"·":{"ha":339,"x_min":47,"x_max":292,"o":"m 292 375 l 47 375 l 47 614 l 292 614 l 292 375 z "},"¸":{"ha":556,"x_min":122,"x_max":433,"o":"m 288 -60 q 394 -90 354 -60 q 433 -168 433 -121 q 380 -267 433 -232 q 219 -303 326 -303 q 122 -293 165 -303 l 122 -215 q 201 -221 156 -221 q 285 -165 285 -221 q 206 -115 285 -115 q 172 -117 182 -115 l 172 -64 l 228 7 l 324 7 l 265 -61 q 288 -60 271 -60 z "},"¹":{"ha":333,"x_min":21,"x_max":299,"o":"m 179 1307 l 299 1307 l 299 733 l 147 733 l 147 1100 l 21 1100 l 21 1204 q 122 1226 83 1204 q 179 1307 160 1247 z "},"º":{"ha":707,"x_min":25,"x_max":682,"o":"m 353 350 q 115 439 204 350 q 25 675 25 529 q 115 913 25 822 q 353 1001 204 1001 q 593 913 504 1001 q 682 675 682 824 q 593 439 682 526 q 353 350 504 350 m 254 547 q 272 525 254 547 q 353 503 289 503 q 452 547 417 503 q 488 675 488 592 q 452 804 488 760 q 353 849 417 849 q 254 804 289 849 q 219 675 219 760 q 254 547 219 592 z "},"»":{"ha":671,"x_min":75,"x_max":596,"o":"m 197 367 l 75 465 l 75 667 l 311 474 l 311 258 l 75 65 l 75 267 l 197 367 m 360 465 l 360 667 l 596 474 l 596 258 l 360 65 l 360 267 l 482 367 l 360 465 z "},"¼":{"ha":1003,"x_min":21,"x_max":982,"o":"m 299 415 l 147 415 l 147 782 l 21 782 l 21 886 q 122 908 83 886 q 179 989 160 929 l 299 989 l 299 415 m 140 0 l 668 989 l 806 989 l 278 0 l 140 0 m 911 240 l 982 240 l 982 118 l 911 118 l 911 0 l 760 0 l 760 118 l 499 118 l 499 261 l 757 574 l 911 574 l 911 240 m 763 240 l 763 417 l 617 240 l 763 240 z "},"½":{"ha":1069,"x_min":21,"x_max":1047,"o":"m 299 989 l 299 415 l 147 415 l 147 782 l 21 782 l 21 886 q 122 908 83 886 q 179 989 160 929 l 299 989 m 154 0 l 682 989 l 819 989 l 292 0 l 154 0 m 878 210 l 846 194 q 771 126 781 163 l 1047 126 l 1047 0 l 593 0 l 596 57 q 769 299 606 224 l 814 319 q 877 358 858 339 q 896 401 896 376 q 829 460 896 460 q 751 376 753 460 l 604 376 q 669 531 613 476 q 829 586 726 586 q 988 538 929 586 q 1047 413 1047 490 q 1008 297 1047 342 q 878 210 968 251 z "},"¾":{"ha":1165,"x_min":19,"x_max":1144,"o":"m 493 586 q 431 453 493 503 q 263 403 369 403 q 81 460 143 403 q 19 624 19 518 l 165 624 q 188 550 165 572 q 258 528 210 528 q 317 545 296 528 q 339 592 339 563 q 254 658 339 658 l 210 658 l 210 767 l 256 767 q 332 826 332 767 q 261 882 332 882 q 181 811 186 882 l 35 811 q 263 1001 43 1001 q 420 958 363 1001 q 478 840 478 915 q 404 721 478 765 q 493 586 493 683 m 296 0 l 824 989 l 961 989 l 433 0 l 296 0 m 1074 240 l 1144 240 l 1144 118 l 1074 118 l 1074 0 l 922 0 l 922 118 l 661 118 l 661 261 l 919 574 l 1074 574 l 1074 240 m 925 240 l 925 417 l 779 240 l 925 240 z "},"¿":{"ha":760,"x_min":26,"x_max":736,"o":"m 517 575 l 271 575 l 271 814 l 517 814 l 517 575 m 372 -197 q 119 -128 213 -197 q 26 64 26 -58 q 171 304 26 204 q 268 389 250 363 q 289 485 289 417 l 497 485 q 492 379 497 407 q 464 311 486 349 q 361 215 439 268 q 347 206 357 213 q 335 197 338 199 q 324 189 332 194 q 314 181 317 183 q 306 175 311 179 q 298 167 300 171 q 291 160 296 164 q 283 151 286 156 q 276 140 281 146 q 260 88 260 115 q 379 -17 260 -17 q 484 17 453 -17 q 517 132 515 51 l 735 132 q 644 -114 736 -31 q 372 -197 551 -197 z "},"À":{"ha":1017,"x_min":0,"x_max":1015,"o":"m 465 1249 l 588 1049 l 415 1049 l 229 1249 l 465 1249 m 1015 0 l 767 0 l 708 172 l 297 172 l 240 0 l 0 0 l 364 989 l 643 989 l 1015 0 m 419 538 l 363 368 l 642 368 l 585 538 q 501 788 558 613 q 419 538 428 561 z "},"Á":{"ha":1017,"x_min":0,"x_max":1015,"o":"m 540 1249 l 776 1249 l 590 1049 l 418 1049 l 540 1249 m 1015 0 l 767 0 l 708 172 l 297 172 l 240 0 l 0 0 l 364 989 l 643 989 l 1015 0 m 419 538 l 363 368 l 642 368 l 585 538 q 501 788 558 613 q 419 538 428 561 z "},"Â":{"ha":1017,"x_min":0,"x_max":1015,"o":"m 593 1049 l 503 1144 l 411 1049 l 217 1049 l 381 1249 l 621 1249 l 786 1049 l 593 1049 m 1015 0 l 767 0 l 708 172 l 297 172 l 240 0 l 0 0 l 364 989 l 643 989 l 1015 0 m 419 538 l 363 368 l 642 368 l 585 538 q 501 788 558 613 q 419 538 428 561 z "},"Ã":{"ha":1017,"x_min":0,"x_max":1015,"o":"m 413 1100 q 374 1049 375 1100 l 242 1049 q 281 1192 242 1143 q 390 1240 321 1240 q 510 1213 438 1240 q 593 1190 560 1190 q 632 1240 631 1190 l 764 1240 q 724 1097 764 1146 q 615 1049 685 1049 q 494 1078 574 1049 q 413 1100 440 1100 m 1015 0 l 767 0 l 708 172 l 297 172 l 240 0 l 0 0 l 364 989 l 643 989 l 1015 0 m 419 538 l 363 368 l 642 368 l 585 538 q 501 788 558 613 q 419 538 428 561 z "},"Ä":{"ha":1017,"x_min":0,"x_max":1015,"o":"m 253 1232 l 461 1232 l 461 1049 l 253 1049 l 253 1232 m 544 1232 l 753 1232 l 753 1049 l 544 1049 l 544 1232 m 1015 0 l 767 0 l 708 172 l 297 172 l 240 0 l 0 0 l 364 989 l 643 989 l 1015 0 m 419 538 l 363 368 l 642 368 l 585 538 q 501 788 558 613 q 419 538 428 561 z "},"Å":{"ha":1017,"x_min":0,"x_max":1015,"o":"m 1015 0 l 767 0 l 708 172 l 297 172 l 240 0 l 0 0 l 343 932 q 289 1069 289 989 q 351 1215 289 1158 q 503 1272 413 1272 q 656 1215 592 1272 q 717 1069 717 1158 q 664 933 717 990 l 1015 0 m 585 1071 q 585 1088 585 1071 q 561 1128 585 1106 q 503 1150 538 1150 q 444 1128 468 1150 q 421 1070 421 1106 q 444 1013 421 1035 q 503 989 468 989 q 561 1013 538 989 q 585 1071 585 1036 m 419 538 l 363 368 l 642 368 l 585 538 q 501 788 558 613 q 419 538 428 561 z "},"Æ":{"ha":1472,"x_min":0,"x_max":1438,"o":"m 1438 989 l 1438 779 l 968 779 l 968 600 l 1390 600 l 1390 403 l 968 403 l 968 210 l 1436 210 l 1436 0 l 739 0 l 739 213 l 346 213 l 243 0 l 0 0 l 485 989 l 1438 989 m 626 793 l 440 408 l 739 408 l 739 793 l 626 793 z "},"Ç":{"ha":1029,"x_min":33,"x_max":997,"o":"m 763 381 l 997 381 q 866 102 976 207 q 585 -19 756 -3 l 531 -83 q 553 -82 536 -82 q 659 -112 619 -82 q 699 -190 699 -143 q 645 -290 699 -254 q 485 -325 592 -325 q 388 -315 428 -325 l 388 -237 q 465 -243 419 -243 q 550 -187 550 -243 q 471 -137 550 -137 q 438 -139 447 -137 l 438 -86 l 489 -21 q 158 131 281 -8 q 33 494 33 268 q 167 872 33 733 q 526 1011 300 1011 q 838 914 710 1011 q 994 635 968 815 l 757 635 q 674 763 735 718 q 526 808 614 808 q 342 726 407 808 q 278 494 278 644 q 342 263 278 344 q 526 181 407 181 q 682 233 618 181 q 763 381 746 286 z "},"È":{"ha":865,"x_min":75,"x_max":831,"o":"m 415 1249 l 538 1049 l 365 1049 l 179 1249 l 415 1249 m 831 989 l 831 779 l 310 779 l 310 600 l 783 600 l 783 403 l 310 403 l 310 210 l 829 210 l 829 0 l 75 0 l 75 989 l 831 989 z "},"É":{"ha":865,"x_min":75,"x_max":831,"o":"m 490 1249 l 726 1249 l 540 1049 l 368 1049 l 490 1249 m 831 989 l 831 779 l 310 779 l 310 600 l 783 600 l 783 403 l 310 403 l 310 210 l 829 210 l 829 0 l 75 0 l 75 989 l 831 989 z "},"Ê":{"ha":865,"x_min":75,"x_max":831,"o":"m 543 1049 l 453 1144 l 361 1049 l 167 1049 l 331 1249 l 571 1249 l 736 1049 l 543 1049 m 831 989 l 831 779 l 310 779 l 310 600 l 783 600 l 783 403 l 310 403 l 310 210 l 829 210 l 829 0 l 75 0 l 75 989 l 831 989 z "},"Ë":{"ha":865,"x_min":75,"x_max":831,"o":"m 203 1232 l 411 1232 l 411 1049 l 203 1049 l 203 1232 m 494 1232 l 703 1232 l 703 1049 l 494 1049 l 494 1232 m 831 989 l 831 779 l 310 779 l 310 600 l 783 600 l 783 403 l 310 403 l 310 210 l 829 210 l 829 0 l 75 0 l 75 989 l 831 989 z "},"Ì":{"ha":385,"x_min":-17,"x_max":310,"o":"m 269 1049 l 115 1049 l -17 1249 l 199 1249 l 269 1049 m 310 0 l 75 0 l 75 989 l 310 989 l 310 0 z "},"Í":{"ha":385,"x_min":75,"x_max":403,"o":"m 403 1249 l 271 1049 l 117 1049 l 188 1249 l 403 1249 m 310 0 l 75 0 l 75 989 l 310 989 l 310 0 z "},"Î":{"ha":385,"x_min":-58,"x_max":442,"o":"m 260 1049 l 192 1143 l 122 1049 l -58 1049 l 76 1249 l 304 1249 l 442 1049 l 260 1049 m 310 0 l 75 0 l 75 989 l 310 989 l 310 0 z "},"Ï":{"ha":385,"x_min":-32,"x_max":415,"o":"m 156 1049 l -32 1049 l -32 1232 l 156 1232 l 156 1049 m 415 1049 l 229 1049 l 229 1232 l 415 1232 l 415 1049 m 310 0 l 75 0 l 75 989 l 310 989 l 310 0 z "},"Ð":{"ha":1050,"x_min":0,"x_max":1017,"o":"m 106 989 l 511 989 q 886 858 756 989 q 1017 494 1017 726 q 886 131 1017 263 q 511 0 756 0 l 106 0 l 106 444 l 0 444 l 0 565 l 106 565 l 106 989 m 340 199 l 507 199 q 703 273 635 199 q 772 494 772 347 q 703 716 772 642 q 507 790 635 790 l 340 790 l 340 565 l 553 565 l 553 444 l 340 444 l 340 199 z "},"Ñ":{"ha":1017,"x_min":75,"x_max":942,"o":"m 418 1100 q 379 1049 381 1100 l 247 1049 q 287 1192 247 1143 q 396 1240 326 1240 q 515 1213 443 1240 q 599 1190 565 1190 q 638 1240 636 1190 l 769 1240 q 730 1097 769 1146 q 621 1049 690 1049 q 500 1078 579 1049 q 418 1100 446 1100 m 718 782 l 718 989 l 942 989 l 942 0 l 689 0 l 447 394 q 293 664 336 579 q 299 207 299 474 l 299 0 l 75 0 l 75 989 l 328 989 l 569 594 q 724 322 674 422 q 718 782 718 515 z "},"Ò":{"ha":1081,"x_min":33,"x_max":1047,"o":"m 625 1071 l 453 1071 l 267 1271 l 503 1271 l 625 1071 m 907 119 q 540 -22 767 -22 q 174 119 314 -22 q 33 494 33 263 q 174 869 33 726 q 540 1011 314 1011 q 907 869 767 1011 q 1047 494 1047 726 q 907 119 1047 263 m 350 265 q 540 182 421 182 q 732 265 658 182 q 804 494 804 347 q 732 724 804 642 q 540 807 658 807 q 350 724 421 807 q 278 494 278 642 q 350 265 278 347 z "},"Ó":{"ha":1081,"x_min":33,"x_max":1047,"o":"m 628 1071 l 456 1071 l 578 1271 l 814 1271 l 628 1071 m 907 119 q 540 -22 767 -22 q 174 119 314 -22 q 33 494 33 263 q 174 869 33 726 q 540 1011 314 1011 q 907 869 767 1011 q 1047 494 1047 726 q 907 119 1047 263 m 350 265 q 540 182 421 182 q 732 265 658 182 q 804 494 804 347 q 732 724 804 642 q 540 807 658 807 q 350 724 421 807 q 278 494 278 642 q 350 265 278 347 z "},"Ô":{"ha":1081,"x_min":33,"x_max":1047,"o":"m 631 1071 l 540 1167 l 449 1071 l 254 1071 l 418 1271 l 658 1271 l 824 1071 l 631 1071 m 174 869 q 540 1011 314 1011 q 907 869 767 1011 q 1047 494 1047 726 q 907 119 1047 263 q 540 -22 767 -22 q 174 119 314 -22 q 33 494 33 263 q 174 869 33 726 m 350 265 q 540 182 421 182 q 732 265 658 182 q 804 494 804 347 q 732 724 804 642 q 540 807 658 807 q 350 724 421 807 q 278 494 278 642 q 350 265 278 347 z "},"Õ":{"ha":1081,"x_min":33,"x_max":1047,"o":"m 411 1071 l 279 1071 q 319 1214 279 1165 q 428 1263 358 1263 q 547 1235 475 1263 q 631 1213 597 1213 q 669 1263 667 1213 l 801 1263 q 762 1119 801 1168 q 653 1071 722 1071 q 532 1100 611 1071 q 450 1122 478 1122 q 411 1071 413 1122 m 907 119 q 540 -22 767 -22 q 174 119 314 -22 q 33 494 33 263 q 174 869 33 726 q 540 1011 314 1011 q 907 869 767 1011 q 1047 494 1047 726 q 907 119 1047 263 m 350 265 q 540 182 421 182 q 732 265 658 182 q 804 494 804 347 q 732 724 804 642 q 540 807 658 807 q 350 724 421 807 q 278 494 278 642 q 350 265 278 347 z "},"Ö":{"ha":1081,"x_min":33,"x_max":1047,"o":"m 499 1071 l 290 1071 l 290 1254 l 499 1254 l 499 1071 m 790 1071 l 582 1071 l 582 1254 l 790 1254 l 790 1071 m 907 119 q 540 -22 767 -22 q 174 119 314 -22 q 33 494 33 263 q 174 869 33 726 q 540 1011 314 1011 q 907 869 767 1011 q 1047 494 1047 726 q 907 119 1047 263 m 350 265 q 540 182 421 182 q 732 265 658 182 q 804 494 804 347 q 732 724 804 642 q 540 807 658 807 q 350 724 421 807 q 278 494 278 642 q 350 265 278 347 z "},"×":{"ha":733,"x_min":54,"x_max":679,"o":"m 550 807 l 679 678 l 496 496 l 679 314 l 550 185 l 367 367 l 183 185 l 54 314 l 238 496 l 54 678 l 183 807 l 367 625 l 550 807 z "},"Ø":{"ha":1081,"x_min":29,"x_max":1050,"o":"m 956 1060 l 1050 975 l 932 842 q 1047 494 1047 703 q 907 119 1047 263 q 540 -22 767 -22 q 242 63 368 -22 l 124 -71 l 29 14 l 147 147 q 33 494 33 286 q 174 869 33 726 q 540 1011 314 1011 q 838 926 711 1011 l 956 1060 m 278 494 q 310 331 278 401 l 692 761 q 540 807 629 807 q 349 723 419 807 q 278 494 278 639 m 804 494 q 772 661 804 589 l 389 228 q 540 182 454 182 q 733 266 661 182 q 804 494 804 350 z "},"Ù":{"ha":982,"x_min":61,"x_max":921,"o":"m 575 1049 l 403 1049 l 217 1249 l 453 1249 l 575 1049 m 490 -22 q 179 82 297 -22 q 61 376 61 183 l 61 989 l 296 989 l 296 374 q 347 230 296 279 q 490 181 397 181 q 635 230 583 181 q 686 374 686 279 l 686 989 l 921 989 l 921 376 q 806 82 921 186 q 490 -22 692 -22 z "},"Ú":{"ha":982,"x_min":61,"x_max":921,"o":"m 579 1049 l 407 1049 l 529 1249 l 765 1249 l 579 1049 m 490 -22 q 179 82 297 -22 q 61 376 61 183 l 61 989 l 296 989 l 296 374 q 347 230 296 279 q 490 181 397 181 q 635 230 583 181 q 686 374 686 279 l 686 989 l 921 989 l 921 376 q 806 82 921 186 q 490 -22 692 -22 z "},"Û":{"ha":982,"x_min":61,"x_max":921,"o":"m 582 1049 l 492 1144 l 400 1049 l 206 1049 l 369 1249 l 610 1249 l 775 1049 l 582 1049 m 686 374 l 686 989 l 921 989 l 921 376 q 806 82 921 186 q 490 -22 692 -22 q 179 82 297 -22 q 61 376 61 183 l 61 989 l 296 989 l 296 374 q 347 230 296 279 q 490 181 397 181 q 635 230 583 181 q 686 374 686 279 z "},"Ü":{"ha":982,"x_min":61,"x_max":921,"o":"m 449 1049 l 240 1049 l 240 1232 l 449 1232 l 449 1049 m 740 1049 l 532 1049 l 532 1232 l 740 1232 l 740 1049 m 490 -22 q 179 82 297 -22 q 61 376 61 183 l 61 989 l 296 989 l 296 374 q 347 230 296 279 q 490 181 397 181 q 635 230 583 181 q 686 374 686 279 l 686 989 l 921 989 l 921 376 q 806 82 921 186 q 490 -22 692 -22 z "},"Ý":{"ha":972,"x_min":0,"x_max":972,"o":"m 525 1249 l 761 1249 l 575 1049 l 403 1049 l 525 1249 m 631 847 l 714 989 l 972 989 l 606 385 l 606 0 l 371 0 l 371 385 l 0 989 l 265 989 l 351 846 q 424 721 399 764 q 451 672 435 700 q 476 628 467 644 q 493 600 486 611 q 631 847 571 743 z "},"Þ":{"ha":924,"x_min":75,"x_max":890,"o":"m 310 828 l 525 828 q 793 738 696 828 q 890 494 890 649 q 793 251 890 340 q 525 161 696 161 l 310 161 l 310 0 l 75 0 l 75 989 l 310 989 l 310 828 m 310 360 l 510 360 q 617 394 579 360 q 656 494 656 429 q 617 594 656 560 q 510 629 579 629 l 310 629 l 310 360 z "},"ß":{"ha":824,"x_min":63,"x_max":790,"o":"m 632 551 q 749 453 707 518 q 790 310 790 389 q 692 82 790 165 q 428 -3 594 -3 q 357 0 413 -3 l 357 172 q 408 169 390 169 q 526 207 483 169 q 568 307 568 244 q 526 410 568 374 q 404 446 483 446 l 363 446 l 363 590 l 403 590 q 495 624 460 590 q 531 708 531 657 q 497 794 531 761 q 406 828 463 828 q 313 793 346 828 q 279 699 279 758 l 279 0 l 63 0 l 63 690 q 150 927 63 843 q 400 1011 238 1011 q 635 933 540 1011 q 726 744 726 856 q 632 551 726 621 z "},"à":{"ha":776,"x_min":26,"x_max":753,"o":"m 371 999 l 493 799 l 321 799 l 135 999 l 371 999 m 753 0 l 535 0 q 517 81 518 32 q 288 -17 444 -17 q 98 42 169 -17 q 26 203 26 100 q 307 426 26 403 l 419 436 q 513 507 513 446 q 403 579 513 579 q 309 559 336 579 q 276 485 282 539 l 61 485 q 404 733 81 733 q 724 513 724 733 l 724 132 q 753 0 724 42 m 353 129 q 469 167 426 129 q 513 282 513 206 l 513 335 q 440 307 493 314 l 351 297 q 247 211 247 286 q 275 151 247 174 q 353 129 303 129 z "},"á":{"ha":776,"x_min":26,"x_max":753,"o":"m 446 999 l 682 999 l 496 799 l 324 799 l 446 999 m 753 0 l 535 0 q 517 81 518 32 q 288 -17 444 -17 q 98 42 169 -17 q 26 203 26 100 q 307 426 26 403 l 419 436 q 513 507 513 446 q 403 579 513 579 q 309 559 336 579 q 276 485 282 539 l 61 485 q 404 733 81 733 q 724 513 724 733 l 724 132 q 753 0 724 42 m 353 129 q 469 167 426 129 q 513 282 513 206 l 513 335 q 440 307 493 314 l 351 297 q 247 211 247 286 q 275 151 247 174 q 353 129 303 129 z "},"â":{"ha":776,"x_min":26,"x_max":753,"o":"m 494 799 l 404 893 l 313 799 l 118 799 l 282 999 l 522 999 l 688 799 l 494 799 m 753 0 l 535 0 q 517 81 518 32 q 288 -17 444 -17 q 98 42 169 -17 q 26 203 26 100 q 307 426 26 403 l 419 436 q 513 507 513 446 q 403 579 513 579 q 309 559 336 579 q 276 485 282 539 l 61 485 q 404 733 81 733 q 724 513 724 733 l 724 132 q 753 0 724 42 m 353 129 q 469 167 426 129 q 513 282 513 206 l 513 335 q 440 307 493 314 l 351 297 q 247 211 247 286 q 275 151 247 174 q 353 129 303 129 z "},"ã":{"ha":776,"x_min":26,"x_max":753,"o":"m 313 850 q 274 799 275 850 l 142 799 q 181 942 142 893 q 290 990 221 990 q 410 963 338 990 q 493 940 460 940 q 532 990 531 940 l 664 990 q 624 847 664 896 q 515 799 585 799 q 394 828 474 799 q 313 850 340 850 m 753 0 l 535 0 q 517 81 518 32 q 288 -17 444 -17 q 98 42 169 -17 q 26 203 26 100 q 307 426 26 403 l 419 436 q 513 507 513 446 q 403 579 513 579 q 309 559 336 579 q 276 485 282 539 l 61 485 q 404 733 81 733 q 724 513 724 733 l 724 132 q 753 0 724 42 m 353 129 q 469 167 426 129 q 513 282 513 206 l 513 335 q 440 307 493 314 l 351 297 q 247 211 247 286 q 275 151 247 174 q 353 129 303 129 z "},"ä":{"ha":776,"x_min":26,"x_max":753,"o":"m 153 982 l 361 982 l 361 799 l 153 799 l 153 982 m 444 982 l 653 982 l 653 799 l 444 799 l 444 982 m 753 0 l 535 0 q 517 81 518 32 q 288 -17 444 -17 q 98 42 169 -17 q 26 203 26 100 q 307 426 26 403 l 419 436 q 513 507 513 446 q 403 579 513 579 q 309 559 336 579 q 276 485 282 539 l 61 485 q 404 733 81 733 q 724 513 724 733 l 724 132 q 753 0 724 42 m 353 129 q 469 167 426 129 q 513 282 513 206 l 513 335 q 440 307 493 314 l 351 297 q 247 211 247 286 q 275 151 247 174 q 353 129 303 129 z "},"å":{"ha":776,"x_min":26,"x_max":753,"o":"m 556 850 q 403 793 492 793 q 251 850 313 793 q 189 996 189 906 q 251 1140 189 1083 q 403 1197 313 1197 q 556 1140 492 1197 q 617 996 617 1083 q 556 850 617 907 m 485 996 q 485 1013 485 996 q 461 1054 485 1031 q 403 1078 438 1078 q 344 1054 368 1078 q 321 996 321 1031 q 344 939 321 961 q 403 917 368 917 q 461 939 438 917 q 485 996 485 961 m 753 0 l 535 0 q 517 81 518 32 q 288 -17 444 -17 q 98 42 169 -17 q 26 203 26 100 q 307 426 26 403 l 419 436 q 513 507 513 446 q 403 579 513 579 q 309 559 336 579 q 276 485 282 539 l 61 485 q 404 733 81 733 q 724 513 724 733 l 724 132 q 753 0 724 42 m 353 129 q 469 167 426 129 q 513 282 513 206 l 513 335 q 440 307 493 314 l 351 297 q 247 211 247 286 q 275 151 247 174 q 353 129 303 129 z "},"æ":{"ha":1253,"x_min":26,"x_max":1214,"o":"m 1214 338 l 1214 294 l 710 294 q 867 143 731 143 q 1004 224 965 143 l 1199 224 q 1081 47 1171 111 q 865 -17 992 -17 q 601 94 700 -17 q 308 -17 490 -17 q 101 41 176 -17 q 26 203 26 99 q 307 426 26 403 l 419 436 q 513 507 513 446 q 403 579 513 579 q 309 559 336 579 q 276 485 282 539 l 61 485 q 404 733 81 733 q 640 660 574 733 q 863 733 731 733 q 1119 626 1024 733 q 1214 338 1214 517 m 861 574 q 711 432 733 574 l 1013 432 q 861 574 988 574 m 353 129 q 469 167 426 129 q 513 282 513 206 l 513 335 q 440 307 493 314 l 351 297 q 247 211 247 286 q 275 151 247 174 q 353 129 303 129 z "},"ç":{"ha":775,"x_min":33,"x_max":756,"o":"m 540 282 l 756 282 q 668 83 746 161 q 465 -12 590 4 l 410 -78 q 432 -76 415 -76 q 538 -107 499 -76 q 578 -185 578 -137 q 524 -284 578 -249 q 364 -319 471 -319 q 267 -310 307 -319 l 267 -232 q 344 -237 299 -237 q 429 -182 429 -237 q 350 -132 429 -132 q 317 -133 326 -132 l 317 -81 l 368 -15 q 124 96 214 -4 q 33 358 33 196 q 133 632 33 531 q 401 733 233 733 q 642 656 549 733 q 751 447 736 579 l 536 447 q 401 557 518 557 q 253 358 253 557 q 401 161 253 161 q 540 282 526 161 z "},"è":{"ha":811,"x_min":33,"x_max":772,"o":"m 369 999 l 492 799 l 319 799 l 133 999 l 369 999 m 772 338 l 772 294 l 242 294 q 296 182 253 221 q 406 143 339 143 q 550 224 511 143 l 756 224 q 632 48 726 113 q 406 -17 538 -17 q 136 86 239 -17 q 33 358 33 189 q 135 631 33 529 q 403 733 235 733 q 672 626 569 733 q 772 338 772 518 m 400 574 q 243 432 267 574 l 560 432 q 507 536 549 499 q 400 574 465 574 z "},"é":{"ha":811,"x_min":33,"x_max":772,"o":"m 446 999 l 682 999 l 496 799 l 324 799 l 446 999 m 772 338 l 772 294 l 242 294 q 296 182 253 221 q 406 143 339 143 q 550 224 511 143 l 756 224 q 632 48 726 113 q 406 -17 538 -17 q 136 86 239 -17 q 33 358 33 189 q 135 631 33 529 q 403 733 235 733 q 672 626 569 733 q 772 338 772 518 m 400 574 q 243 432 267 574 l 560 432 q 507 536 549 499 q 400 574 465 574 z "},"ê":{"ha":811,"x_min":33,"x_max":772,"o":"m 493 799 l 403 893 l 311 799 l 117 799 l 281 999 l 521 999 l 686 799 l 493 799 m 772 338 l 772 294 l 242 294 q 296 182 253 221 q 406 143 339 143 q 550 224 511 143 l 756 224 q 632 48 726 113 q 406 -17 538 -17 q 136 86 239 -17 q 33 358 33 189 q 135 631 33 529 q 403 733 235 733 q 672 626 569 733 q 772 338 772 518 m 400 574 q 243 432 267 574 l 560 432 q 507 536 549 499 q 400 574 465 574 z "},"ë":{"ha":811,"x_min":33,"x_max":772,"o":"m 153 982 l 361 982 l 361 799 l 153 799 l 153 982 m 444 982 l 653 982 l 653 799 l 444 799 l 444 982 m 772 338 l 772 294 l 242 294 q 296 182 253 221 q 406 143 339 143 q 550 224 511 143 l 756 224 q 632 48 726 113 q 406 -17 538 -17 q 136 86 239 -17 q 33 358 33 189 q 135 631 33 529 q 403 733 235 733 q 672 626 569 733 q 772 338 772 518 m 400 574 q 243 432 267 574 l 560 432 q 507 536 549 499 q 400 574 465 574 z "},"ì":{"ha":343,"x_min":-39,"x_max":279,"o":"m 247 799 l 93 799 l -39 999 l 176 999 l 247 799 m 279 0 l 63 0 l 63 717 l 279 717 l 279 0 z "},"í":{"ha":343,"x_min":63,"x_max":381,"o":"m 249 799 l 94 799 l 165 999 l 381 999 l 249 799 m 279 0 l 63 0 l 63 717 l 279 717 l 279 0 z "},"î":{"ha":343,"x_min":-79,"x_max":421,"o":"m 239 799 l 171 893 l 101 799 l -79 799 l 56 999 l 283 999 l 421 799 l 239 799 m 279 0 l 63 0 l 63 717 l 279 717 l 279 0 z "},"ï":{"ha":343,"x_min":-53,"x_max":394,"o":"m 135 799 l -53 799 l -53 982 l 135 982 l 135 799 m 394 799 l 208 799 l 208 982 l 394 982 l 394 799 m 279 0 l 63 0 l 63 717 l 279 717 l 279 0 z "},"ð":{"ha":817,"x_min":33,"x_max":783,"o":"m 704 875 l 588 842 q 783 374 783 604 q 681 86 783 189 q 410 -17 578 -17 q 139 83 243 -17 q 33 349 33 181 q 132 606 33 507 q 401 701 231 701 q 501 681 451 701 q 413 792 465 735 l 183 725 l 183 846 l 321 886 l 215 989 l 446 989 l 497 939 l 499 938 l 704 997 l 704 875 m 294 206 q 410 157 336 157 q 525 206 483 157 q 565 344 565 254 q 525 485 565 436 q 410 533 485 533 q 294 485 335 533 q 253 344 253 436 q 294 206 253 253 z "},"ñ":{"ha":810,"x_min":63,"x_max":747,"o":"m 314 850 q 275 799 276 850 l 143 799 q 183 942 143 893 q 292 990 222 990 q 411 963 339 990 q 494 940 461 940 q 533 990 531 940 l 665 990 q 626 847 665 896 q 517 799 586 799 q 396 828 475 799 q 314 850 342 850 m 499 733 q 680 665 613 733 q 747 469 747 596 l 747 0 l 531 0 l 531 426 q 415 549 531 549 q 318 510 357 549 q 279 400 279 471 l 279 0 l 63 0 l 63 717 l 274 717 l 274 615 q 499 733 357 733 z "},"ò":{"ha":818,"x_min":33,"x_max":785,"o":"m 499 799 l 326 799 l 140 999 l 376 999 l 499 799 m 683 86 q 410 -17 581 -17 q 136 86 239 -17 q 33 358 33 189 q 136 632 33 529 q 410 733 238 733 q 683 632 582 733 q 785 358 785 531 q 683 86 785 188 m 410 157 q 525 208 485 157 q 565 358 565 260 q 525 508 565 457 q 410 560 485 560 q 293 508 333 560 q 253 358 253 457 q 293 208 253 260 q 410 157 333 157 z "},"ó":{"ha":818,"x_min":33,"x_max":785,"o":"m 503 799 l 331 799 l 453 999 l 689 999 l 503 799 m 683 86 q 410 -17 581 -17 q 136 86 239 -17 q 33 358 33 189 q 136 632 33 529 q 410 733 238 733 q 683 632 582 733 q 785 358 785 531 q 683 86 785 188 m 410 157 q 525 208 485 157 q 565 358 565 260 q 525 508 565 457 q 410 560 485 560 q 293 508 333 560 q 253 358 253 457 q 293 208 253 260 q 410 157 333 157 z "},"ô":{"ha":818,"x_min":33,"x_max":785,"o":"m 500 799 l 410 893 l 318 799 l 124 799 l 288 999 l 528 999 l 693 799 l 500 799 m 136 632 q 410 733 238 733 q 683 632 582 733 q 785 358 785 531 q 683 86 785 188 q 410 -17 581 -17 q 136 86 239 -17 q 33 358 33 189 q 136 632 33 529 m 410 157 q 525 208 485 157 q 565 358 565 260 q 525 508 565 457 q 410 560 485 560 q 293 508 333 560 q 253 358 253 457 q 293 208 253 260 q 410 157 333 157 z "},"õ":{"ha":818,"x_min":33,"x_max":785,"o":"m 279 799 l 147 799 q 187 942 147 893 q 296 990 226 990 q 415 963 343 990 q 499 940 465 940 q 538 990 536 940 l 669 990 q 630 847 669 896 q 521 799 590 799 q 400 828 479 799 q 318 850 346 850 q 279 799 281 850 m 683 86 q 410 -17 581 -17 q 136 86 239 -17 q 33 358 33 189 q 136 632 33 529 q 410 733 238 733 q 683 632 582 733 q 785 358 785 531 q 683 86 785 188 m 410 157 q 525 208 485 157 q 565 358 565 260 q 525 508 565 457 q 410 560 485 560 q 293 508 333 560 q 253 358 253 457 q 293 208 253 260 q 410 157 333 157 z "},"ö":{"ha":818,"x_min":33,"x_max":785,"o":"m 367 799 l 158 799 l 158 982 l 367 982 l 367 799 m 658 799 l 450 799 l 450 982 l 658 982 l 658 799 m 683 86 q 410 -17 581 -17 q 136 86 239 -17 q 33 358 33 189 q 136 632 33 529 q 410 733 238 733 q 683 632 582 733 q 785 358 785 531 q 683 86 785 188 m 410 157 q 525 208 485 157 q 565 358 565 260 q 525 508 565 457 q 410 560 485 560 q 293 508 333 560 q 253 358 253 457 q 293 208 253 260 q 410 157 333 157 z "},"÷":{"ha":733,"x_min":40,"x_max":693,"o":"m 467 671 l 268 671 l 268 846 l 467 846 l 467 671 m 693 404 l 40 404 l 40 586 l 693 586 l 693 404 m 467 144 l 268 144 l 268 319 l 467 319 l 467 144 z "},"ø":{"ha":818,"x_min":31,"x_max":786,"o":"m 707 774 l 786 703 l 703 608 q 785 358 785 510 q 683 86 785 188 q 410 -17 581 -17 q 196 38 288 -17 l 111 -58 l 31 13 l 115 108 q 33 358 33 207 q 136 632 33 529 q 410 733 238 733 q 622 679 531 733 l 707 774 m 243 358 q 254 264 243 311 l 504 546 q 410 574 464 574 q 286 519 329 574 q 243 358 243 464 m 575 358 q 564 453 575 406 l 314 171 q 410 143 354 143 q 532 198 489 143 q 575 358 575 253 z "},"ù":{"ha":810,"x_min":63,"x_max":747,"o":"m 367 999 l 489 799 l 317 799 l 131 999 l 367 999 m 531 317 l 531 717 l 747 717 l 747 0 l 536 0 l 536 101 q 311 -17 453 -17 q 130 52 197 -17 q 63 247 63 121 l 63 717 l 279 717 l 279 290 q 394 168 279 168 q 492 207 453 168 q 531 317 531 246 z "},"ú":{"ha":810,"x_min":63,"x_max":747,"o":"m 442 999 l 678 999 l 492 799 l 319 799 l 442 999 m 531 317 l 531 717 l 747 717 l 747 0 l 536 0 l 536 101 q 311 -17 453 -17 q 130 52 197 -17 q 63 247 63 121 l 63 717 l 279 717 l 279 290 q 394 168 279 168 q 492 207 453 168 q 531 317 531 246 z "},"û":{"ha":810,"x_min":63,"x_max":747,"o":"m 489 799 l 399 893 l 307 799 l 113 799 l 276 999 l 517 999 l 682 799 l 489 799 m 531 317 l 531 717 l 747 717 l 747 0 l 536 0 l 536 101 q 311 -17 453 -17 q 130 52 197 -17 q 63 247 63 121 l 63 717 l 279 717 l 279 290 q 394 168 279 168 q 492 207 453 168 q 531 317 531 246 z "},"ü":{"ha":810,"x_min":63,"x_max":747,"o":"m 149 982 l 357 982 l 357 799 l 149 799 l 149 982 m 440 982 l 649 982 l 649 799 l 440 799 l 440 982 m 531 317 l 531 717 l 747 717 l 747 0 l 536 0 l 536 101 q 311 -17 453 -17 q 130 52 197 -17 q 63 247 63 121 l 63 717 l 279 717 l 279 290 q 394 168 279 168 q 492 207 453 168 q 531 317 531 246 z "},"ý":{"ha":765,"x_min":1,"x_max":764,"o":"m 426 999 l 663 999 l 476 799 l 304 799 l 426 999 m 508 614 l 540 717 l 764 717 l 504 -28 q 381 -219 456 -167 q 147 -274 303 -274 q 63 -271 121 -274 l 63 -104 l 132 -104 q 240 -4 240 -104 q 207 135 240 40 l 1 717 l 235 717 l 267 615 q 389 164 336 382 q 508 614 443 390 z "},"þ":{"ha":838,"x_min":63,"x_max":804,"o":"m 490 733 q 720 632 636 733 q 804 358 804 531 q 720 85 804 186 q 490 -17 636 -17 q 281 86 354 -17 l 281 -272 l 63 -272 l 63 989 l 281 989 l 281 631 q 490 733 354 733 m 431 157 q 544 210 504 157 q 585 364 585 264 q 431 560 585 560 q 278 358 278 560 q 431 157 278 157 z "},"ÿ":{"ha":765,"x_min":1,"x_max":764,"o":"m 133 982 l 342 982 l 342 799 l 133 799 l 133 982 m 425 982 l 633 982 l 633 799 l 425 799 l 425 982 m 508 614 l 540 717 l 764 717 l 504 -28 q 381 -219 456 -167 q 147 -274 303 -274 q 63 -271 121 -274 l 63 -104 l 132 -104 q 240 -4 240 -104 q 207 135 240 40 l 1 717 l 235 717 l 267 615 q 389 164 336 382 q 508 614 443 390 z "},"Ā":{"ha":1017,"x_min":0,"x_max":1015,"o":"m 269 1190 l 736 1190 l 736 1049 l 269 1049 l 269 1190 m 1015 0 l 767 0 l 708 172 l 297 172 l 240 0 l 0 0 l 364 989 l 643 989 l 1015 0 m 419 538 l 363 368 l 642 368 l 585 538 q 501 788 558 613 q 419 538 428 561 z "},"ā":{"ha":776,"x_min":26,"x_max":753,"o":"m 169 940 l 636 940 l 636 799 l 169 799 l 169 940 m 753 0 l 535 0 q 517 81 518 32 q 288 -17 444 -17 q 98 42 169 -17 q 26 203 26 100 q 307 426 26 403 l 419 436 q 513 507 513 446 q 403 579 513 579 q 309 559 336 579 q 276 485 282 539 l 61 485 q 404 733 81 733 q 724 513 724 733 l 724 132 q 753 0 724 42 m 353 129 q 469 167 426 129 q 513 282 513 206 l 513 335 q 440 307 493 314 l 351 297 q 247 211 247 286 q 275 151 247 174 q 353 129 303 129 z "},"Ă":{"ha":1017,"x_min":0,"x_max":1015,"o":"m 667 1097 q 503 1042 603 1042 q 339 1097 403 1042 q 256 1249 272 1151 l 413 1249 q 503 1169 422 1169 q 593 1249 583 1169 l 750 1249 q 667 1097 732 1151 m 1015 0 l 767 0 l 708 172 l 297 172 l 240 0 l 0 0 l 364 989 l 643 989 l 1015 0 m 419 538 l 363 368 l 642 368 l 585 538 q 501 788 558 613 q 419 538 428 561 z "},"ă":{"ha":776,"x_min":26,"x_max":753,"o":"m 567 847 q 403 792 503 792 q 239 847 303 792 q 156 999 172 901 l 313 999 q 403 919 322 919 q 493 999 483 919 l 650 999 q 567 847 632 901 m 753 0 l 535 0 q 517 81 518 32 q 288 -17 444 -17 q 98 42 169 -17 q 26 203 26 100 q 307 426 26 403 l 419 436 q 513 507 513 446 q 403 579 513 579 q 309 559 336 579 q 276 485 282 539 l 61 485 q 404 733 81 733 q 724 513 724 733 l 724 132 q 753 0 724 42 m 353 129 q 469 167 426 129 q 513 282 513 206 l 513 335 q 440 307 493 314 l 351 297 q 247 211 247 286 q 275 151 247 174 q 353 129 303 129 z "},"Ą":{"ha":1017,"x_min":0,"x_max":1015,"o":"m 881 -122 q 950 -172 881 -172 q 1015 -162 982 -172 l 1015 -276 q 915 -289 972 -289 q 773 -253 825 -289 q 721 -154 721 -217 q 757 -67 721 -110 q 863 0 793 -25 l 767 0 l 708 172 l 297 172 l 240 0 l 0 0 l 364 989 l 643 989 l 1015 0 q 881 -122 881 -60 m 419 538 l 363 368 l 642 368 l 585 538 q 501 788 558 613 q 419 538 428 561 z "},"ą":{"ha":776,"x_min":26,"x_max":753,"o":"m 619 -122 q 689 -172 619 -172 q 753 -162 719 -172 l 753 -276 q 654 -289 710 -289 q 510 -253 563 -289 q 458 -154 458 -217 q 553 -14 458 -72 q 517 82 524 15 q 288 -17 443 -17 q 98 42 169 -17 q 26 203 26 100 q 307 426 26 403 l 419 436 q 513 507 513 446 q 403 579 513 579 q 309 559 336 579 q 276 485 282 539 l 61 485 q 404 733 81 733 q 724 513 724 733 l 724 132 q 753 0 724 42 q 619 -122 619 -61 m 353 129 q 469 167 426 129 q 513 282 513 206 l 513 335 q 440 307 493 314 l 351 297 q 247 211 247 286 q 275 151 247 174 q 353 129 303 129 z "},"Ć":{"ha":1029,"x_min":33,"x_max":997,"o":"m 615 1071 l 443 1071 l 565 1271 l 801 1271 l 615 1071 m 526 -22 q 169 118 306 -22 q 33 494 33 258 q 167 872 33 733 q 526 1011 300 1011 q 838 914 710 1011 q 994 635 968 815 l 757 635 q 674 763 735 718 q 526 808 614 808 q 342 726 407 808 q 278 494 278 644 q 342 263 278 344 q 526 181 407 181 q 682 233 618 181 q 763 381 746 286 l 997 381 q 846 83 975 189 q 526 -22 715 -22 z "},"ć":{"ha":775,"x_min":33,"x_max":756,"o":"m 494 799 l 322 799 l 444 999 l 681 999 l 494 799 m 401 -17 q 133 86 233 -17 q 33 358 33 189 q 133 632 33 531 q 401 733 233 733 q 642 656 549 733 q 751 447 736 579 l 536 447 q 401 557 518 557 q 253 358 253 557 q 401 161 253 161 q 540 282 526 161 l 756 282 q 649 64 746 146 q 401 -17 551 -17 z "},"Ĉ":{"ha":1029,"x_min":33,"x_max":997,"o":"m 618 1071 l 528 1167 l 436 1071 l 242 1071 l 406 1271 l 646 1271 l 811 1071 l 618 1071 m 763 381 l 997 381 q 846 83 975 189 q 526 -22 715 -22 q 169 118 306 -22 q 33 494 33 258 q 167 872 33 733 q 526 1011 300 1011 q 838 914 710 1011 q 994 635 968 815 l 757 635 q 674 763 735 718 q 526 808 614 808 q 342 726 407 808 q 278 494 278 644 q 342 263 278 344 q 526 181 407 181 q 682 233 618 181 q 763 381 746 286 z "},"ĉ":{"ha":775,"x_min":33,"x_max":756,"o":"m 493 799 l 403 893 l 311 799 l 117 799 l 281 999 l 521 999 l 686 799 l 493 799 m 540 282 l 756 282 q 649 64 746 146 q 401 -17 551 -17 q 133 86 233 -17 q 33 358 33 189 q 133 632 33 531 q 401 733 233 733 q 642 656 549 733 q 751 447 736 579 l 536 447 q 401 557 518 557 q 253 358 253 557 q 401 161 253 161 q 540 282 526 161 z "},"Ċ":{"ha":1029,"x_min":33,"x_max":997,"o":"m 629 1071 l 421 1071 l 421 1254 l 629 1254 l 629 1071 m 526 -22 q 169 118 306 -22 q 33 494 33 258 q 167 872 33 733 q 526 1011 300 1011 q 838 914 710 1011 q 994 635 968 815 l 757 635 q 674 763 735 718 q 526 808 614 808 q 342 726 407 808 q 278 494 278 644 q 342 263 278 344 q 526 181 407 181 q 682 233 618 181 q 763 381 746 286 l 997 381 q 846 83 975 189 q 526 -22 715 -22 z "},"ċ":{"ha":775,"x_min":33,"x_max":756,"o":"m 507 799 l 299 799 l 299 982 l 507 982 l 507 799 m 401 -17 q 133 86 233 -17 q 33 358 33 189 q 133 632 33 531 q 401 733 233 733 q 642 656 549 733 q 751 447 736 579 l 536 447 q 401 557 518 557 q 253 358 253 557 q 401 161 253 161 q 540 282 526 161 l 756 282 q 649 64 746 146 q 401 -17 551 -17 z "},"Č":{"ha":1029,"x_min":33,"x_max":997,"o":"m 811 1271 l 647 1071 l 407 1071 l 242 1271 l 435 1271 l 526 1175 l 617 1271 l 811 1271 m 763 381 l 997 381 q 846 83 975 189 q 526 -22 715 -22 q 169 118 306 -22 q 33 494 33 258 q 167 872 33 733 q 526 1011 300 1011 q 838 914 710 1011 q 994 635 968 815 l 757 635 q 674 763 735 718 q 526 808 614 808 q 342 726 407 808 q 278 494 278 644 q 342 263 278 344 q 526 181 407 181 q 682 233 618 181 q 763 381 746 286 z "},"č":{"ha":775,"x_min":33,"x_max":756,"o":"m 686 999 l 522 799 l 282 799 l 117 999 l 310 999 l 401 903 l 492 999 l 686 999 m 540 282 l 756 282 q 649 64 746 146 q 401 -17 551 -17 q 133 86 233 -17 q 33 358 33 189 q 133 632 33 531 q 401 733 233 733 q 642 656 549 733 q 751 447 736 579 l 536 447 q 401 557 518 557 q 253 358 253 557 q 401 161 253 161 q 540 282 526 161 z "},"Ď":{"ha":1019,"x_min":75,"x_max":986,"o":"m 775 1249 l 611 1049 l 371 1049 l 206 1249 l 399 1249 l 490 1153 l 581 1249 l 775 1249 m 75 989 l 481 989 q 856 858 725 989 q 986 494 986 726 q 856 131 986 263 q 481 0 725 0 l 75 0 l 75 989 m 310 199 l 476 199 q 673 273 604 199 q 742 494 742 347 q 673 716 742 642 q 476 790 604 790 l 310 790 l 310 199 z "},"ď":{"ha":1057,"x_min":33,"x_max":1071,"o":"m 556 631 l 556 989 l 772 989 l 772 0 l 561 0 l 561 93 q 346 -17 489 -17 q 118 85 201 -17 q 33 358 33 186 q 118 632 33 531 q 346 733 201 733 q 556 631 482 733 m 822 758 l 858 989 l 1071 989 l 964 758 l 822 758 m 406 157 q 560 358 560 157 q 406 560 560 560 q 293 506 333 560 q 253 353 253 453 q 406 157 253 157 z "},"Đ":{"ha":1050,"x_min":0,"x_max":1017,"o":"m 106 989 l 511 989 q 886 858 756 989 q 1017 494 1017 726 q 886 131 1017 263 q 511 0 756 0 l 106 0 l 106 444 l 0 444 l 0 565 l 106 565 l 106 989 m 340 199 l 507 199 q 703 273 635 199 q 772 494 772 347 q 703 716 772 642 q 507 790 635 790 l 340 790 l 340 565 l 553 565 l 553 444 l 340 444 l 340 199 z "},"đ":{"ha":879,"x_min":33,"x_max":879,"o":"m 772 919 l 879 919 l 879 799 l 772 799 l 772 0 l 561 0 l 561 93 q 346 -17 489 -17 q 118 85 201 -17 q 33 358 33 186 q 118 632 33 531 q 346 733 201 733 q 556 631 482 733 l 556 799 l 404 799 l 404 919 l 556 919 l 556 989 l 772 989 l 772 919 m 406 157 q 560 358 560 157 q 406 560 560 560 q 293 506 333 560 q 253 353 253 453 q 406 157 253 157 z "},"Ē":{"ha":865,"x_min":75,"x_max":831,"o":"m 219 1190 l 686 1190 l 686 1049 l 219 1049 l 219 1190 m 831 989 l 831 779 l 310 779 l 310 600 l 783 600 l 783 403 l 310 403 l 310 210 l 829 210 l 829 0 l 75 0 l 75 989 l 831 989 z "},"ē":{"ha":811,"x_min":33,"x_max":772,"o":"m 169 940 l 636 940 l 636 799 l 169 799 l 169 940 m 772 338 l 772 294 l 242 294 q 296 182 253 221 q 406 143 339 143 q 550 224 511 143 l 756 224 q 632 48 726 113 q 406 -17 538 -17 q 136 86 239 -17 q 33 358 33 189 q 135 631 33 529 q 403 733 235 733 q 672 626 569 733 q 772 338 772 518 m 400 574 q 243 432 267 574 l 560 432 q 507 536 549 499 q 400 574 465 574 z "},"Ĕ":{"ha":865,"x_min":75,"x_max":831,"o":"m 617 1097 q 453 1042 553 1042 q 289 1097 353 1042 q 206 1249 222 1151 l 363 1249 q 453 1169 372 1169 q 543 1249 533 1169 l 700 1249 q 617 1097 682 1151 m 831 989 l 831 779 l 310 779 l 310 600 l 783 600 l 783 403 l 310 403 l 310 210 l 829 210 l 829 0 l 75 0 l 75 989 l 831 989 z "},"ĕ":{"ha":811,"x_min":33,"x_max":772,"o":"m 567 847 q 403 792 503 792 q 239 847 303 792 q 156 999 172 901 l 313 999 q 403 919 322 919 q 493 999 483 919 l 650 999 q 567 847 632 901 m 772 338 l 772 294 l 242 294 q 296 182 253 221 q 406 143 339 143 q 550 224 511 143 l 756 224 q 632 48 726 113 q 406 -17 538 -17 q 136 86 239 -17 q 33 358 33 189 q 135 631 33 529 q 403 733 235 733 q 672 626 569 733 q 772 338 772 518 m 400 574 q 243 432 267 574 l 560 432 q 507 536 549 499 q 400 574 465 574 z "},"Ė":{"ha":865,"x_min":75,"x_max":831,"o":"m 347 1232 l 556 1232 l 556 1049 l 347 1049 l 347 1232 m 831 989 l 831 779 l 310 779 l 310 600 l 783 600 l 783 403 l 310 403 l 310 210 l 829 210 l 829 0 l 75 0 l 75 989 l 831 989 z "},"ė":{"ha":811,"x_min":33,"x_max":772,"o":"m 299 982 l 507 982 l 507 799 l 299 799 l 299 982 m 772 338 l 772 294 l 242 294 q 296 182 253 221 q 406 143 339 143 q 550 224 511 143 l 756 224 q 632 48 726 113 q 406 -17 538 -17 q 136 86 239 -17 q 33 358 33 189 q 135 631 33 529 q 403 733 235 733 q 672 626 569 733 q 772 338 772 518 m 400 574 q 243 432 267 574 l 560 432 q 507 536 549 499 q 400 574 465 574 z "},"Ę":{"ha":865,"x_min":75,"x_max":831,"o":"m 831 989 l 831 779 l 310 779 l 310 600 l 783 600 l 783 403 l 310 403 l 310 210 l 829 210 l 829 0 q 694 -122 694 -60 q 764 -172 694 -172 q 829 -162 796 -172 l 829 -276 q 729 -289 786 -289 q 587 -253 639 -289 q 535 -154 535 -217 q 571 -67 535 -110 q 676 0 607 -25 l 75 0 l 75 989 l 831 989 z "},"ę":{"ha":811,"x_min":33,"x_max":772,"o":"m 772 338 l 772 294 l 242 294 q 296 182 253 221 q 406 143 339 143 q 550 224 511 143 l 756 224 q 672 79 733 138 q 519 -3 611 21 q 390 -122 390 -61 q 460 -172 390 -172 q 525 -162 492 -172 l 525 -276 q 425 -289 481 -289 q 283 -253 335 -289 q 231 -154 231 -217 q 342 -12 231 -69 q 117 106 200 7 q 33 358 33 206 q 135 631 33 529 q 403 733 235 733 q 672 626 569 733 q 772 338 772 518 m 400 574 q 243 432 267 574 l 560 432 q 507 536 549 499 q 400 574 465 574 z "},"Ě":{"ha":865,"x_min":75,"x_max":831,"o":"m 736 1249 l 572 1049 l 332 1049 l 167 1249 l 360 1249 l 451 1153 l 542 1249 l 736 1249 m 831 989 l 831 779 l 310 779 l 310 600 l 783 600 l 783 403 l 310 403 l 310 210 l 829 210 l 829 0 l 75 0 l 75 989 l 831 989 z "},"ě":{"ha":811,"x_min":33,"x_max":772,"o":"m 686 999 l 522 799 l 282 799 l 117 999 l 310 999 l 401 903 l 492 999 l 686 999 m 772 338 l 772 294 l 242 294 q 296 182 253 221 q 406 143 339 143 q 550 224 511 143 l 756 224 q 632 48 726 113 q 406 -17 538 -17 q 136 86 239 -17 q 33 358 33 189 q 135 631 33 529 q 403 733 235 733 q 672 626 569 733 q 772 338 772 518 m 400 574 q 243 432 267 574 l 560 432 q 507 536 549 499 q 400 574 465 574 z "},"Ĝ":{"ha":1081,"x_min":33,"x_max":1019,"o":"m 625 1071 l 535 1167 l 443 1071 l 249 1071 l 413 1271 l 653 1271 l 818 1071 l 625 1071 m 564 368 l 564 551 l 1019 551 l 1019 0 l 856 0 l 828 131 q 507 -22 728 -22 q 163 119 292 -22 q 33 494 33 258 q 168 872 33 733 q 535 1011 301 1011 q 856 915 728 1011 q 1007 656 985 818 l 767 656 q 686 768 746 728 q 536 808 626 808 q 347 725 415 808 q 278 494 278 642 q 349 264 278 347 q 547 181 421 181 q 705 233 639 181 q 783 368 771 285 l 564 368 z "},"ĝ":{"ha":835,"x_min":33,"x_max":772,"o":"m 513 799 l 422 893 l 331 799 l 136 799 l 300 999 l 540 999 l 706 799 l 513 799 m 561 622 l 561 717 l 772 717 l 772 22 q 676 -206 772 -124 q 406 -289 579 -289 q 156 -219 246 -289 q 58 -26 65 -149 l 272 -26 q 410 -126 281 -126 q 518 -90 481 -126 q 556 14 556 -53 l 556 117 q 350 15 488 15 q 121 115 208 15 q 33 375 33 215 q 119 635 33 533 q 346 733 206 733 q 561 622 490 733 m 406 189 q 519 237 479 189 q 560 375 560 285 q 520 513 560 465 q 406 560 481 560 q 293 510 333 560 q 253 372 253 461 q 293 237 253 285 q 406 189 333 189 z "},"Ğ":{"ha":1081,"x_min":33,"x_max":1019,"o":"m 699 1119 q 535 1064 635 1064 q 371 1119 435 1064 q 288 1271 304 1174 l 444 1271 q 535 1192 456 1192 q 625 1271 614 1192 l 782 1271 q 699 1119 764 1174 m 564 368 l 564 551 l 1019 551 l 1019 0 l 856 0 l 828 131 q 507 -22 728 -22 q 163 119 292 -22 q 33 494 33 258 q 168 872 33 733 q 535 1011 301 1011 q 856 915 728 1011 q 1007 656 985 818 l 767 656 q 686 768 746 728 q 536 808 626 808 q 347 725 415 808 q 278 494 278 642 q 349 264 278 347 q 547 181 421 181 q 705 233 639 181 q 783 368 771 285 l 564 368 z "},"ğ":{"ha":835,"x_min":33,"x_max":772,"o":"m 585 847 q 421 792 521 792 q 257 847 321 792 q 174 999 190 901 l 331 999 q 421 919 342 919 q 511 999 500 919 l 668 999 q 585 847 650 901 m 561 622 l 561 717 l 772 717 l 772 22 q 676 -206 772 -124 q 406 -289 579 -289 q 156 -219 246 -289 q 58 -26 65 -149 l 272 -26 q 410 -126 281 -126 q 518 -90 481 -126 q 556 14 556 -53 l 556 117 q 350 15 488 15 q 121 115 208 15 q 33 375 33 215 q 119 635 33 533 q 346 733 206 733 q 561 622 490 733 m 406 189 q 519 237 479 189 q 560 375 560 285 q 520 513 560 465 q 406 560 481 560 q 293 510 333 560 q 253 372 253 461 q 293 237 253 285 q 406 189 333 189 z "},"Ġ":{"ha":1081,"x_min":33,"x_max":1019,"o":"m 429 1254 l 638 1254 l 638 1071 l 429 1071 l 429 1254 m 564 368 l 564 551 l 1019 551 l 1019 0 l 856 0 l 828 131 q 507 -22 728 -22 q 163 119 292 -22 q 33 494 33 258 q 168 872 33 733 q 535 1011 301 1011 q 856 915 728 1011 q 1007 656 985 818 l 767 656 q 686 768 746 728 q 536 808 626 808 q 347 725 415 808 q 278 494 278 642 q 349 264 278 347 q 547 181 421 181 q 705 233 639 181 q 783 368 771 285 l 564 368 z "},"ġ":{"ha":835,"x_min":33,"x_max":772,"o":"m 318 982 l 526 982 l 526 799 l 318 799 l 318 982 m 561 622 l 561 717 l 772 717 l 772 22 q 676 -206 772 -124 q 406 -289 579 -289 q 156 -219 246 -289 q 58 -26 65 -149 l 272 -26 q 410 -126 281 -126 q 518 -90 481 -126 q 556 14 556 -53 l 556 117 q 350 15 488 15 q 121 115 208 15 q 33 375 33 215 q 119 635 33 533 q 346 733 206 733 q 561 622 490 733 m 406 189 q 519 237 479 189 q 560 375 560 285 q 520 513 560 465 q 406 560 481 560 q 293 510 333 560 q 253 372 253 461 q 293 237 253 285 q 406 189 333 189 z "},"Ģ":{"ha":1081,"x_min":33,"x_max":1019,"o":"m 564 368 l 564 551 l 1019 551 l 1019 0 l 856 0 l 828 131 q 507 -22 728 -22 q 163 119 292 -22 q 33 494 33 258 q 168 872 33 733 q 535 1011 301 1011 q 856 915 728 1011 q 1007 656 985 818 l 767 656 q 686 768 746 728 q 536 808 626 808 q 347 725 415 808 q 278 494 278 642 q 349 264 278 347 q 547 181 421 181 q 705 233 639 181 q 783 368 771 285 l 564 368 m 521 -233 l 438 -233 l 438 -81 l 629 -81 l 629 -243 q 471 -372 629 -369 l 438 -372 l 438 -299 l 469 -297 q 521 -246 521 -297 l 521 -233 z "},"ģ":{"ha":835,"x_min":33,"x_max":772,"o":"m 433 951 l 517 951 l 517 799 l 325 799 l 325 961 q 483 1090 325 1089 l 517 1090 l 517 1017 l 485 1015 q 433 964 433 1015 l 433 951 m 561 622 l 561 717 l 772 717 l 772 22 q 676 -206 772 -124 q 406 -289 579 -289 q 156 -219 246 -289 q 58 -26 65 -149 l 272 -26 q 410 -126 281 -126 q 518 -90 481 -126 q 556 14 556 -53 l 556 117 q 350 15 488 15 q 121 115 208 15 q 33 375 33 215 q 119 635 33 533 q 346 733 206 733 q 561 622 490 733 m 406 189 q 519 237 479 189 q 560 375 560 285 q 520 513 560 465 q 406 560 481 560 q 293 510 333 560 q 253 372 253 461 q 293 237 253 285 q 406 189 333 189 z "},"Ĥ":{"ha":1017,"x_min":75,"x_max":942,"o":"m 600 1049 l 510 1144 l 418 1049 l 224 1049 l 388 1249 l 628 1249 l 793 1049 l 600 1049 m 707 611 l 707 989 l 942 989 l 942 0 l 707 0 l 707 400 l 310 400 l 310 0 l 75 0 l 75 989 l 310 989 l 310 611 l 707 611 z "},"ĥ":{"ha":810,"x_min":-79,"x_max":747,"o":"m 239 1049 l 171 1143 l 101 1049 l -79 1049 l 56 1249 l 283 1249 l 421 1049 l 239 1049 m 499 733 q 680 665 613 733 q 747 469 747 596 l 747 0 l 531 0 l 531 426 q 415 549 531 549 q 318 510 357 549 q 279 400 279 471 l 279 0 l 63 0 l 63 989 l 279 989 l 279 622 q 499 733 361 733 z "},"Ħ":{"ha":1081,"x_min":0,"x_max":1081,"o":"m 972 854 l 1081 854 l 1081 733 l 972 733 l 972 0 l 739 0 l 739 400 l 342 400 l 342 0 l 107 0 l 107 733 l 0 733 l 0 854 l 107 854 l 107 989 l 342 989 l 342 854 l 739 854 l 739 989 l 972 989 l 972 854 m 342 611 l 739 611 l 739 733 l 342 733 l 342 611 z "},"ħ":{"ha":853,"x_min":0,"x_max":790,"o":"m 542 733 q 723 665 656 733 q 790 469 790 596 l 790 0 l 574 0 l 574 426 q 458 549 574 549 q 361 510 400 549 q 322 400 322 471 l 322 0 l 106 0 l 106 799 l 0 799 l 0 919 l 106 919 l 106 989 l 322 989 l 322 919 l 475 919 l 475 799 l 322 799 l 322 622 q 542 733 404 733 z "},"Ĩ":{"ha":385,"x_min":-15,"x_max":399,"o":"m 90 1049 l -15 1049 q 17 1192 -15 1143 q 103 1240 49 1240 q 197 1211 140 1240 q 263 1189 240 1189 q 293 1240 293 1189 l 399 1240 q 367 1097 399 1146 q 281 1049 335 1049 q 183 1078 243 1049 q 121 1099 139 1099 q 90 1049 90 1099 m 310 0 l 75 0 l 75 989 l 310 989 l 310 0 z "},"ĩ":{"ha":343,"x_min":-36,"x_max":378,"o":"m 69 799 l -36 799 q -4 942 -36 893 q 82 990 28 990 q 176 961 119 990 q 242 939 219 939 q 272 990 272 939 l 378 990 q 346 847 378 896 q 260 799 314 799 q 163 828 222 799 q 100 849 119 849 q 69 799 69 849 m 279 0 l 63 0 l 63 717 l 279 717 l 279 0 z "},"Ī":{"ha":385,"x_min":-6,"x_max":389,"o":"m 389 1049 l -6 1049 l -6 1190 l 389 1190 l 389 1049 m 310 0 l 75 0 l 75 989 l 310 989 l 310 0 z "},"ī":{"ha":343,"x_min":-26,"x_max":368,"o":"m 368 799 l -26 799 l -26 940 l 368 940 l 368 799 m 279 0 l 63 0 l 63 717 l 279 717 l 279 0 z "},"Ĭ":{"ha":385,"x_min":-29,"x_max":413,"o":"m 342 1097 q 192 1042 282 1042 q 42 1097 101 1042 q -29 1244 -19 1154 l 118 1244 q 192 1169 125 1169 q 265 1244 258 1169 l 413 1244 q 342 1097 403 1154 m 310 0 l 75 0 l 75 989 l 310 989 l 310 0 z "},"ĭ":{"ha":343,"x_min":-50,"x_max":392,"o":"m 321 847 q 171 792 261 792 q 21 847 81 792 q -50 994 -40 904 l 97 994 q 171 919 104 919 q 244 994 238 919 l 392 994 q 321 847 382 904 m 279 0 l 63 0 l 63 717 l 279 717 l 279 0 z "},"Į":{"ha":385,"x_min":60,"x_max":315,"o":"m 261 -172 q 315 -164 289 -172 l 315 -276 q 232 -289 278 -289 q 106 -253 151 -289 q 60 -154 60 -217 q 90 -66 60 -108 q 175 0 119 -24 l 75 0 l 75 989 l 310 989 l 310 0 q 201 -121 201 -56 q 261 -172 201 -172 z "},"į":{"ha":343,"x_min":31,"x_max":285,"o":"m 68 982 l 275 982 l 275 799 l 68 799 l 68 982 m 232 -172 q 285 -164 260 -172 l 285 -276 q 201 -289 250 -289 q 76 -253 121 -289 q 31 -154 31 -217 q 60 -66 31 -108 q 146 0 90 -24 l 63 0 l 63 717 l 279 717 l 279 0 q 171 -121 171 -58 q 232 -172 171 -172 z "},"İ":{"ha":385,"x_min":75,"x_max":310,"o":"m 296 1049 l 88 1049 l 88 1232 l 296 1232 l 296 1049 m 310 0 l 75 0 l 75 989 l 310 989 l 310 0 z "},"ı":{"ha":343,"x_min":63,"x_max":279,"o":"m 279 0 l 63 0 l 63 717 l 279 717 l 279 0 z "},"Ĳ":{"ha":1175,"x_min":75,"x_max":1114,"o":"m 310 0 l 75 0 l 75 989 l 310 989 l 310 0 m 763 -22 q 509 63 601 -22 q 417 294 417 147 l 417 357 l 640 357 l 640 294 q 672 206 640 238 q 760 175 704 175 q 847 206 815 175 q 879 294 879 238 l 879 989 l 1114 989 l 1114 294 q 1022 67 1114 156 q 763 -22 929 -22 z "},"ĳ":{"ha":686,"x_min":63,"x_max":622,"o":"m 275 799 l 68 799 l 68 982 l 275 982 l 275 799 m 618 799 l 411 799 l 411 982 l 618 982 l 618 799 m 279 0 l 63 0 l 63 717 l 279 717 l 279 0 m 382 -275 q 311 -274 325 -275 l 311 -108 l 338 -108 q 390 -94 374 -108 q 406 -44 406 -81 l 406 717 l 622 717 l 622 -69 q 565 -226 622 -178 q 382 -275 508 -275 z "},"Ĵ":{"ha":790,"x_min":32,"x_max":861,"o":"m 679 1049 l 611 1143 l 542 1049 l 361 1049 l 496 1249 l 724 1249 l 861 1049 l 679 1049 m 494 294 l 494 989 l 729 989 l 729 294 q 638 67 729 156 q 378 -22 544 -22 q 124 63 217 -22 q 32 294 32 147 l 32 357 l 256 357 l 256 294 q 288 206 256 238 q 375 175 319 175 q 463 206 431 175 q 494 294 494 238 z "},"ĵ":{"ha":343,"x_min":-79,"x_max":421,"o":"m 239 799 l 171 893 l 101 799 l -79 799 l 56 999 l 283 999 l 421 799 l 239 799 m 63 -44 l 63 717 l 279 717 l 279 -69 q 222 -226 279 -178 q 39 -275 165 -275 q -32 -274 -18 -275 l -32 -108 l -6 -108 q 47 -94 31 -108 q 63 -44 63 -81 z "},"Ķ":{"ha":1007,"x_min":75,"x_max":1006,"o":"m 719 989 l 1006 989 l 608 585 l 1006 0 l 728 0 l 443 428 l 310 296 l 310 0 l 75 0 l 75 989 l 310 989 l 310 561 l 719 989 m 504 -212 l 421 -212 l 421 -60 l 613 -60 l 613 -222 q 454 -351 613 -350 l 421 -351 l 421 -278 l 453 -276 q 504 -225 504 -276 l 504 -212 z "},"ķ":{"ha":806,"x_min":63,"x_max":804,"o":"m 789 717 l 519 439 l 804 0 l 557 0 l 372 296 l 275 196 l 275 0 l 63 0 l 63 989 l 275 989 l 275 433 l 540 717 l 789 717 m 404 -235 l 321 -235 l 321 -82 l 513 -82 l 513 -244 q 354 -374 513 -372 l 321 -374 l 321 -300 l 353 -299 q 404 -247 404 -299 l 404 -235 z "},"ĸ":{"ha":806,"x_min":63,"x_max":804,"o":"m 804 0 l 557 0 l 372 296 l 275 196 l 275 0 l 63 0 l 63 717 l 275 717 l 275 433 l 540 717 l 789 717 l 519 439 l 804 0 z "},"Ĺ":{"ha":781,"x_min":75,"x_max":763,"o":"m 231 1249 l 467 1249 l 281 1049 l 108 1049 l 231 1249 m 310 989 l 310 210 l 763 210 l 763 0 l 75 0 l 75 989 l 310 989 z "},"ĺ":{"ha":343,"x_min":63,"x_max":382,"o":"m 382 1249 l 250 1049 l 96 1049 l 167 1249 l 382 1249 m 279 0 l 63 0 l 63 989 l 279 989 l 279 0 z "},"Ļ":{"ha":781,"x_min":75,"x_max":763,"o":"m 310 989 l 310 210 l 763 210 l 763 0 l 75 0 l 75 989 l 310 989 m 408 -212 l 325 -212 l 325 -60 l 517 -60 l 517 -222 q 358 -351 517 -350 l 325 -351 l 325 -278 l 357 -276 q 408 -225 408 -276 l 408 -212 z "},"ļ":{"ha":343,"x_min":63,"x_max":279,"o":"m 63 0 l 63 989 l 279 989 l 279 0 l 63 0 m 160 -235 l 76 -235 l 76 -82 l 268 -82 l 268 -244 q 110 -374 268 -372 l 76 -374 l 76 -300 l 108 -299 q 160 -247 160 -299 l 160 -235 z "},"Ľ":{"ha":781,"x_min":75,"x_max":763,"o":"m 310 989 l 310 210 l 763 210 l 763 0 l 75 0 l 75 989 l 310 989 m 431 989 l 643 989 l 538 758 l 394 758 l 431 989 z "},"ľ":{"ha":565,"x_min":63,"x_max":579,"o":"m 279 0 l 63 0 l 63 989 l 279 989 l 279 0 m 472 758 l 329 758 l 367 989 l 579 989 l 472 758 z "},"Ŀ":{"ha":781,"x_min":75,"x_max":763,"o":"m 310 989 l 310 210 l 763 210 l 763 0 l 75 0 l 75 989 l 310 989 m 461 642 l 706 642 l 706 403 l 461 403 l 461 642 z "},"ŀ":{"ha":686,"x_min":63,"x_max":639,"o":"m 279 0 l 63 0 l 63 989 l 279 989 l 279 0 m 639 372 l 393 372 l 393 611 l 639 611 l 639 372 z "},"Ł":{"ha":811,"x_min":0,"x_max":793,"o":"m 340 521 l 340 210 l 793 210 l 793 0 l 106 0 l 106 424 l 0 381 l 0 514 l 106 557 l 106 989 l 340 989 l 340 654 l 585 756 l 585 622 l 340 521 z "},"ł":{"ha":428,"x_min":0,"x_max":428,"o":"m 322 613 l 428 661 l 428 524 l 322 475 l 322 0 l 106 0 l 106 378 l 0 329 l 0 467 l 106 515 l 106 989 l 322 989 l 322 613 z "},"Ń":{"ha":1017,"x_min":75,"x_max":942,"o":"m 547 1249 l 783 1249 l 597 1049 l 425 1049 l 547 1249 m 718 782 l 718 989 l 942 989 l 942 0 l 689 0 l 447 394 q 293 664 336 579 q 299 207 299 474 l 299 0 l 75 0 l 75 989 l 328 989 l 569 594 q 724 322 674 422 q 718 782 718 515 z "},"ń":{"ha":810,"x_min":63,"x_max":747,"o":"m 447 999 l 683 999 l 497 799 l 325 799 l 447 999 m 499 733 q 680 665 613 733 q 747 469 747 596 l 747 0 l 531 0 l 531 426 q 415 549 531 549 q 318 510 357 549 q 279 400 279 471 l 279 0 l 63 0 l 63 717 l 274 717 l 274 615 q 499 733 357 733 z "},"Ņ":{"ha":1017,"x_min":75,"x_max":942,"o":"m 718 782 l 718 989 l 942 989 l 942 0 l 689 0 l 447 394 q 293 664 336 579 q 299 207 299 474 l 299 0 l 75 0 l 75 989 l 328 989 l 569 594 q 724 322 674 422 q 718 782 718 515 m 497 -212 l 414 -212 l 414 -60 l 606 -60 l 606 -222 q 447 -351 606 -350 l 414 -351 l 414 -278 l 446 -276 q 497 -225 497 -276 l 497 -212 z "},"ņ":{"ha":810,"x_min":63,"x_max":747,"o":"m 499 733 q 680 665 613 733 q 747 469 747 596 l 747 0 l 531 0 l 531 426 q 415 549 531 549 q 318 510 357 549 q 279 400 279 471 l 279 0 l 63 0 l 63 717 l 274 717 l 274 615 q 499 733 357 733 m 392 -235 l 308 -235 l 308 -82 l 500 -82 l 500 -244 q 342 -374 500 -372 l 308 -374 l 308 -300 l 340 -299 q 392 -247 392 -299 l 392 -235 z "},"Ň":{"ha":1017,"x_min":75,"x_max":942,"o":"m 793 1249 l 629 1049 l 389 1049 l 224 1249 l 417 1249 l 508 1153 l 599 1249 l 793 1249 m 718 782 l 718 989 l 942 989 l 942 0 l 689 0 l 447 394 q 293 664 336 579 q 299 207 299 474 l 299 0 l 75 0 l 75 989 l 328 989 l 569 594 q 724 322 674 422 q 718 782 718 515 z "},"ň":{"ha":810,"x_min":63,"x_max":747,"o":"m 688 999 l 524 799 l 283 799 l 118 999 l 311 999 l 403 903 l 493 999 l 688 999 m 499 733 q 680 665 613 733 q 747 469 747 596 l 747 0 l 531 0 l 531 426 q 415 549 531 549 q 318 510 357 549 q 279 400 279 471 l 279 0 l 63 0 l 63 717 l 274 717 l 274 615 q 499 733 357 733 z "},"ŉ":{"ha":1083,"x_min":47,"x_max":1019,"o":"m 143 768 l 47 768 l 47 988 l 274 988 l 274 751 q 76 550 274 554 l 47 550 l 47 660 l 78 660 q 143 746 143 663 l 143 768 m 771 733 q 953 665 886 733 q 1019 469 1019 596 l 1019 0 l 803 0 l 803 426 q 689 549 803 549 q 592 510 631 549 q 553 400 553 471 l 553 0 l 336 0 l 336 717 l 547 717 l 547 617 q 771 733 631 733 z "},"Ŋ":{"ha":1017,"x_min":75,"x_max":942,"o":"m 718 782 l 718 989 l 942 989 l 942 -21 q 872 -210 942 -142 q 660 -278 803 -278 q 558 -272 593 -278 l 558 -108 q 615 -111 603 -111 q 725 -14 725 -111 l 725 1 l 451 421 q 292 690 340 596 q 299 207 299 457 l 299 0 l 75 0 l 75 989 l 328 989 l 574 608 q 724 360 668 461 q 718 782 718 533 z "},"ŋ":{"ha":810,"x_min":63,"x_max":747,"o":"m 499 733 q 680 665 613 733 q 747 469 747 596 l 747 -72 q 690 -229 747 -181 q 507 -278 633 -278 q 435 -276 449 -278 l 435 -111 l 463 -111 q 514 -97 497 -111 q 531 -49 531 -83 l 531 426 q 415 549 531 549 q 318 510 357 549 q 279 400 279 471 l 279 0 l 63 0 l 63 717 l 274 717 l 274 615 q 499 733 357 733 z "},"Ō":{"ha":1081,"x_min":33,"x_max":1047,"o":"m 774 1071 l 307 1071 l 307 1213 l 774 1213 l 774 1071 m 907 119 q 540 -22 767 -22 q 174 119 314 -22 q 33 494 33 263 q 174 869 33 726 q 540 1011 314 1011 q 907 869 767 1011 q 1047 494 1047 726 q 907 119 1047 263 m 350 265 q 540 182 421 182 q 732 265 658 182 q 804 494 804 347 q 732 724 804 642 q 540 807 658 807 q 350 724 421 807 q 278 494 278 642 q 350 265 278 347 z "},"ō":{"ha":818,"x_min":33,"x_max":785,"o":"m 643 799 l 176 799 l 176 940 l 643 940 l 643 799 m 683 86 q 410 -17 581 -17 q 136 86 239 -17 q 33 358 33 189 q 136 632 33 529 q 410 733 238 733 q 683 632 582 733 q 785 358 785 531 q 683 86 785 188 m 410 157 q 525 208 485 157 q 565 358 565 260 q 525 508 565 457 q 410 560 485 560 q 293 508 333 560 q 253 358 253 457 q 293 208 253 260 q 410 157 333 157 z "},"Ŏ":{"ha":1081,"x_min":33,"x_max":1047,"o":"m 704 1119 q 540 1064 640 1064 q 376 1119 440 1064 q 293 1271 310 1174 l 450 1271 q 540 1192 461 1192 q 631 1271 619 1192 l 788 1271 q 704 1119 769 1174 m 907 119 q 540 -22 767 -22 q 174 119 314 -22 q 33 494 33 263 q 174 869 33 726 q 540 1011 314 1011 q 907 869 767 1011 q 1047 494 1047 726 q 907 119 1047 263 m 350 265 q 540 182 421 182 q 732 265 658 182 q 804 494 804 347 q 732 724 804 642 q 540 807 658 807 q 350 724 421 807 q 278 494 278 642 q 350 265 278 347 z "},"ŏ":{"ha":818,"x_min":33,"x_max":785,"o":"m 574 847 q 410 792 510 792 q 246 847 310 792 q 163 999 179 901 l 319 999 q 410 919 331 919 q 500 999 489 919 l 657 999 q 574 847 639 901 m 683 86 q 410 -17 581 -17 q 136 86 239 -17 q 33 358 33 189 q 136 632 33 529 q 410 733 238 733 q 683 632 582 733 q 785 358 785 531 q 683 86 785 188 m 410 157 q 525 208 485 157 q 565 358 565 260 q 525 508 565 457 q 410 560 485 560 q 293 508 333 560 q 253 358 253 457 q 293 208 253 260 q 410 157 333 157 z "},"Ő":{"ha":1081,"x_min":33,"x_max":1047,"o":"m 465 1071 l 300 1071 l 422 1271 l 660 1271 l 465 1071 m 776 1071 l 610 1071 l 733 1271 l 969 1271 l 776 1071 m 907 119 q 540 -22 767 -22 q 174 119 314 -22 q 33 494 33 263 q 174 869 33 726 q 540 1011 314 1011 q 907 869 767 1011 q 1047 494 1047 726 q 907 119 1047 263 m 350 265 q 540 182 421 182 q 732 265 658 182 q 804 494 804 347 q 732 724 804 642 q 540 807 658 807 q 350 724 421 807 q 278 494 278 642 q 350 265 278 347 z "},"ő":{"ha":818,"x_min":33,"x_max":849,"o":"m 344 799 l 179 799 l 301 999 l 539 999 l 344 799 m 656 799 l 489 799 l 613 999 l 849 999 l 656 799 m 683 86 q 410 -17 581 -17 q 136 86 239 -17 q 33 358 33 189 q 136 632 33 529 q 410 733 238 733 q 683 632 582 733 q 785 358 785 531 q 683 86 785 188 m 410 157 q 525 208 485 157 q 565 358 565 260 q 525 508 565 457 q 410 560 485 560 q 293 508 333 560 q 253 358 253 457 q 293 208 253 260 q 410 157 333 157 z "},"Œ":{"ha":1594,"x_min":33,"x_max":1560,"o":"m 1560 988 l 1560 779 l 1038 779 l 1038 599 l 1511 599 l 1511 401 l 1038 401 l 1038 208 l 1557 208 l 1557 -1 l 804 -1 l 804 86 q 511 -22 694 -22 q 168 121 301 -22 q 33 494 33 261 q 168 869 33 726 q 511 1011 301 1011 q 804 903 694 1011 l 804 988 l 1560 988 m 350 265 q 540 182 421 182 q 732 265 658 182 q 804 494 804 347 q 732 724 804 642 q 540 807 658 807 q 350 724 421 807 q 278 494 278 642 q 350 265 278 347 z "},"œ":{"ha":1343,"x_min":33,"x_max":1304,"o":"m 1304 338 l 1304 294 l 775 294 q 936 143 796 143 q 1079 224 1040 143 l 1283 224 q 1161 48 1256 113 q 936 -17 1067 -17 q 675 97 772 -17 q 410 -17 578 -17 q 136 86 239 -17 q 33 358 33 189 q 136 632 33 529 q 410 733 238 733 q 675 619 578 733 q 935 733 771 733 q 1204 626 1101 733 q 1304 338 1304 518 m 933 574 q 776 431 799 574 l 1092 431 q 1040 536 1081 499 q 933 574 999 574 m 410 157 q 525 208 485 157 q 565 358 565 260 q 525 508 565 457 q 410 560 485 560 q 293 508 333 560 q 253 358 253 457 q 293 208 253 260 q 410 157 333 157 z "},"Ŕ":{"ha":940,"x_min":75,"x_max":917,"o":"m 508 1249 l 744 1249 l 558 1049 l 386 1049 l 508 1249 m 882 246 l 889 107 q 917 0 890 40 l 675 0 q 651 108 653 42 l 647 219 q 610 333 644 301 q 501 364 576 364 l 310 364 l 310 0 l 75 0 l 75 989 l 543 989 q 809 912 717 989 q 901 703 901 835 q 742 468 901 532 q 848 392 818 443 q 882 246 878 340 m 310 801 l 310 540 l 517 540 q 622 574 585 540 q 660 672 660 608 q 513 801 660 801 l 310 801 z "},"ŕ":{"ha":554,"x_min":63,"x_max":525,"o":"m 290 999 l 506 999 l 374 799 l 219 799 l 290 999 m 478 728 q 525 725 483 728 l 525 528 l 469 528 q 279 333 279 528 l 279 0 l 63 0 l 63 717 l 274 717 l 274 583 q 478 728 324 728 z "},"Ŗ":{"ha":940,"x_min":75,"x_max":917,"o":"m 882 246 l 889 107 q 917 0 890 40 l 675 0 q 651 108 653 42 l 647 219 q 610 333 644 301 q 501 364 576 364 l 310 364 l 310 0 l 75 0 l 75 989 l 543 989 q 809 912 717 989 q 901 703 901 835 q 742 468 901 532 q 848 392 818 443 q 882 246 878 340 m 310 801 l 310 540 l 517 540 q 622 574 585 540 q 660 672 660 608 q 513 801 660 801 l 310 801 m 488 -212 l 404 -212 l 404 -60 l 596 -60 l 596 -222 q 438 -351 596 -350 l 404 -351 l 404 -278 l 436 -276 q 488 -225 488 -276 l 488 -212 z "},"ŗ":{"ha":554,"x_min":63,"x_max":525,"o":"m 478 728 q 525 725 483 728 l 525 528 l 469 528 q 279 333 279 528 l 279 0 l 63 0 l 63 717 l 274 717 l 274 583 q 478 728 324 728 m 160 -235 l 76 -235 l 76 -82 l 268 -82 l 268 -244 q 110 -374 268 -372 l 76 -374 l 76 -300 l 108 -299 q 160 -247 160 -299 l 160 -235 z "},"Ř":{"ha":940,"x_min":75,"x_max":917,"o":"m 753 1249 l 589 1049 l 349 1049 l 183 1249 l 376 1249 l 468 1153 l 558 1249 l 753 1249 m 882 246 l 889 107 q 917 0 890 40 l 675 0 q 651 108 653 42 l 647 219 q 610 333 644 301 q 501 364 576 364 l 310 364 l 310 0 l 75 0 l 75 989 l 543 989 q 809 912 717 989 q 901 703 901 835 q 742 468 901 532 q 848 392 818 443 q 882 246 878 340 m 310 801 l 310 540 l 517 540 q 622 574 585 540 q 660 672 660 608 q 513 801 660 801 l 310 801 z "},"ř":{"ha":554,"x_min":46,"x_max":546,"o":"m 546 999 l 408 799 l 181 799 l 46 999 l 226 999 l 296 904 l 364 999 l 546 999 m 274 717 l 274 583 q 478 728 324 728 q 525 725 483 728 l 525 528 l 469 528 q 279 333 279 528 l 279 0 l 63 0 l 63 717 l 274 717 z "},"Ś":{"ha":903,"x_min":26,"x_max":879,"o":"m 519 1071 l 347 1071 l 469 1271 l 706 1271 l 519 1071 m 460 -22 q 140 69 253 -22 q 26 325 28 161 l 254 325 q 308 197 256 233 q 468 161 360 161 q 636 275 636 161 q 599 349 636 325 q 458 393 563 374 l 378 408 q 47 718 47 464 q 148 932 47 853 q 433 1011 249 1011 q 735 928 631 1011 q 846 689 839 844 l 624 689 q 576 794 619 761 q 438 828 532 828 q 286 728 286 828 q 323 651 286 678 q 454 607 360 625 l 538 592 q 798 488 717 560 q 879 290 879 417 q 768 58 879 139 q 460 -22 657 -22 z "},"ś":{"ha":722,"x_min":19,"x_max":706,"o":"m 453 799 l 281 799 l 403 999 l 639 999 l 453 799 m 364 -21 q 112 38 194 -21 q 19 228 29 97 l 231 228 q 267 147 236 171 q 368 124 299 124 q 489 193 489 124 q 463 244 489 226 q 365 272 436 261 l 272 288 q 31 507 31 325 q 114 674 31 615 q 353 733 197 733 q 686 488 674 733 l 485 488 q 353 589 483 589 q 243 521 243 589 q 268 474 243 490 q 347 449 293 457 l 454 433 q 644 360 583 414 q 706 211 706 306 q 616 40 706 100 q 364 -21 526 -21 z "},"Ŝ":{"ha":903,"x_min":26,"x_max":879,"o":"m 522 1071 l 432 1167 l 340 1071 l 146 1071 l 310 1271 l 550 1271 l 715 1071 l 522 1071 m 454 607 l 538 592 q 798 488 717 560 q 879 290 879 417 q 768 58 879 139 q 460 -22 657 -22 q 140 69 253 -22 q 26 325 28 161 l 254 325 q 308 197 256 233 q 468 161 360 161 q 636 275 636 161 q 599 349 636 325 q 458 393 563 374 l 378 408 q 47 718 47 464 q 148 932 47 853 q 433 1011 249 1011 q 735 928 631 1011 q 846 689 839 844 l 624 689 q 576 794 619 761 q 438 828 532 828 q 286 728 286 828 q 323 651 286 678 q 454 607 360 625 z "},"ŝ":{"ha":722,"x_min":19,"x_max":706,"o":"m 450 799 l 360 893 l 268 799 l 74 799 l 238 999 l 478 999 l 643 799 l 450 799 m 347 449 l 454 433 q 644 360 583 414 q 706 211 706 306 q 616 40 706 100 q 364 -21 526 -21 q 112 38 194 -21 q 19 228 29 97 l 231 228 q 267 147 236 171 q 368 124 299 124 q 489 193 489 124 q 463 244 489 226 q 365 272 436 261 l 272 288 q 31 507 31 325 q 114 674 31 615 q 353 733 197 733 q 686 488 674 733 l 485 488 q 353 589 483 589 q 243 521 243 589 q 268 474 243 490 q 347 449 293 457 z "},"Ş":{"ha":903,"x_min":26,"x_max":879,"o":"m 879 290 q 787 74 879 154 q 529 -19 694 -6 l 475 -83 q 497 -82 481 -82 q 603 -112 564 -82 q 643 -190 643 -143 q 590 -290 643 -254 q 429 -325 536 -325 q 332 -315 372 -325 l 332 -237 q 410 -243 364 -243 q 494 -187 494 -243 q 415 -137 494 -137 q 382 -139 392 -137 l 382 -86 l 432 -22 q 133 75 238 -17 q 26 325 28 167 l 254 325 q 308 197 256 233 q 468 161 360 161 q 636 275 636 161 q 599 349 636 325 q 458 393 563 374 l 378 408 q 47 718 47 464 q 148 932 47 853 q 433 1011 249 1011 q 735 928 631 1011 q 846 689 839 844 l 624 689 q 576 794 619 761 q 438 828 532 828 q 286 728 286 828 q 323 651 286 678 q 454 607 360 625 l 538 592 q 798 488 717 560 q 879 290 879 417 z "},"ş":{"ha":722,"x_min":19,"x_max":706,"o":"m 706 211 q 632 52 706 111 q 424 -18 558 -7 l 369 -82 q 392 -81 375 -81 q 498 -111 458 -81 q 538 -189 538 -142 q 484 -288 538 -253 q 324 -324 431 -324 q 226 -314 267 -324 l 226 -236 q 304 -242 258 -242 q 389 -186 389 -242 q 310 -136 389 -136 q 276 -137 286 -136 l 276 -85 l 326 -19 q 102 45 176 -14 q 19 228 28 104 l 231 228 q 267 147 236 171 q 368 124 299 124 q 489 193 489 124 q 463 244 489 226 q 365 272 436 261 l 272 288 q 31 507 31 325 q 114 674 31 615 q 353 733 197 733 q 686 488 674 733 l 485 488 q 353 589 483 589 q 243 521 243 589 q 268 474 243 490 q 347 449 293 457 l 454 433 q 644 360 583 414 q 706 211 706 306 z "},"Š":{"ha":903,"x_min":26,"x_max":879,"o":"m 715 1271 l 551 1071 l 311 1071 l 146 1271 l 339 1271 l 431 1175 l 521 1271 l 715 1271 m 454 607 l 538 592 q 798 488 717 560 q 879 290 879 417 q 768 58 879 139 q 460 -22 657 -22 q 140 69 253 -22 q 26 325 28 161 l 254 325 q 308 197 256 233 q 468 161 360 161 q 636 275 636 161 q 599 349 636 325 q 458 393 563 374 l 378 408 q 47 718 47 464 q 148 932 47 853 q 433 1011 249 1011 q 735 928 631 1011 q 846 689 839 844 l 624 689 q 576 794 619 761 q 438 828 532 828 q 286 728 286 828 q 323 651 286 678 q 454 607 360 625 z "},"š":{"ha":722,"x_min":19,"x_max":706,"o":"m 643 999 l 479 799 l 239 799 l 74 999 l 267 999 l 358 903 l 449 999 l 643 999 m 347 449 l 454 433 q 644 360 583 414 q 706 211 706 306 q 616 40 706 100 q 364 -21 526 -21 q 112 38 194 -21 q 19 228 29 97 l 231 228 q 267 147 236 171 q 368 124 299 124 q 489 193 489 124 q 463 244 489 226 q 365 272 436 261 l 272 288 q 31 507 31 325 q 114 674 31 615 q 353 733 197 733 q 686 488 674 733 l 485 488 q 353 589 483 589 q 243 521 243 589 q 268 474 243 490 q 347 449 293 457 z "},"Ţ":{"ha":878,"x_min":18,"x_max":861,"o":"m 557 779 l 557 0 l 496 0 l 443 -61 q 465 -60 449 -60 q 572 -90 532 -60 q 611 -168 611 -121 q 558 -267 611 -232 q 397 -303 504 -303 q 300 -293 340 -303 l 300 -215 q 378 -221 332 -221 q 463 -165 463 -221 q 383 -115 463 -115 q 350 -117 360 -115 l 350 -64 l 400 0 l 321 0 l 321 779 l 18 779 l 18 989 l 861 989 l 861 779 l 557 779 z "},"ţ":{"ha":506,"x_min":15,"x_max":476,"o":"m 476 717 l 476 558 l 339 558 l 339 224 q 357 174 339 188 q 421 161 375 161 l 476 161 l 476 0 q 376 -6 438 -6 l 350 -6 l 301 -61 q 324 -60 307 -60 q 430 -90 390 -60 q 469 -168 469 -121 q 416 -267 469 -232 q 256 -303 363 -303 q 158 -293 199 -303 l 158 -215 q 236 -221 190 -221 q 321 -165 321 -221 q 242 -115 321 -115 q 208 -117 218 -115 l 208 -64 l 263 6 q 156 70 190 24 q 122 200 122 117 l 122 558 l 15 558 l 15 717 l 122 717 l 122 929 l 339 929 l 339 717 l 476 717 z "},"Ť":{"ha":878,"x_min":18,"x_max":861,"o":"m 724 1249 l 560 1049 l 319 1049 l 154 1249 l 347 1249 l 439 1153 l 529 1249 l 724 1249 m 18 989 l 861 989 l 861 779 l 557 779 l 557 0 l 321 0 l 321 779 l 18 779 l 18 989 z "},"ť":{"ha":506,"x_min":15,"x_max":632,"o":"m 382 758 l 419 989 l 632 989 l 525 758 l 382 758 m 122 929 l 339 929 l 339 717 l 476 717 l 476 558 l 339 558 l 339 224 q 357 174 339 188 q 421 161 375 161 l 476 161 l 476 0 q 376 -6 438 -6 q 182 42 242 -6 q 122 200 122 90 l 122 558 l 15 558 l 15 717 l 122 717 l 122 929 z "},"Ŧ":{"ha":878,"x_min":18,"x_max":861,"o":"m 861 989 l 861 779 l 557 779 l 557 536 l 729 536 l 729 415 l 557 415 l 557 0 l 321 0 l 321 415 l 150 415 l 150 536 l 321 536 l 321 779 l 18 779 l 18 989 l 861 989 z "},"ŧ":{"ha":506,"x_min":15,"x_max":476,"o":"m 476 717 l 476 558 l 339 558 l 339 433 l 476 433 l 476 313 l 339 313 l 339 224 q 357 174 339 188 q 421 161 375 161 l 476 161 l 476 0 q 376 -6 438 -6 q 182 42 242 -6 q 122 200 122 90 l 122 313 l 17 313 l 17 433 l 122 433 l 122 558 l 15 558 l 15 717 l 122 717 l 122 929 l 339 929 l 339 717 l 476 717 z "},"Ũ":{"ha":982,"x_min":61,"x_max":921,"o":"m 361 1049 l 229 1049 q 269 1192 229 1143 q 378 1240 308 1240 q 497 1213 425 1240 q 581 1190 547 1190 q 619 1240 617 1190 l 751 1240 q 712 1097 751 1146 q 603 1049 672 1049 q 482 1078 561 1049 q 400 1100 428 1100 q 361 1049 363 1100 m 490 -22 q 179 82 297 -22 q 61 376 61 183 l 61 989 l 296 989 l 296 374 q 347 230 296 279 q 490 181 397 181 q 635 230 583 181 q 686 374 686 279 l 686 989 l 921 989 l 921 376 q 806 82 921 186 q 490 -22 692 -22 z "},"ũ":{"ha":810,"x_min":63,"x_max":747,"o":"m 308 850 q 269 799 271 850 l 138 799 q 177 942 138 893 q 286 990 217 990 q 406 963 333 990 q 489 940 456 940 q 528 990 525 940 l 660 990 q 620 847 660 896 q 511 799 581 799 q 390 828 469 799 q 308 850 336 850 m 531 317 l 531 717 l 747 717 l 747 0 l 536 0 l 536 101 q 311 -17 453 -17 q 130 52 197 -17 q 63 247 63 121 l 63 717 l 279 717 l 279 290 q 394 168 279 168 q 492 207 453 168 q 531 317 531 246 z "},"Ū":{"ha":982,"x_min":61,"x_max":921,"o":"m 724 1049 l 257 1049 l 257 1190 l 724 1190 l 724 1049 m 490 -22 q 179 82 297 -22 q 61 376 61 183 l 61 989 l 296 989 l 296 374 q 347 230 296 279 q 490 181 397 181 q 635 230 583 181 q 686 374 686 279 l 686 989 l 921 989 l 921 376 q 806 82 921 186 q 490 -22 692 -22 z "},"ū":{"ha":810,"x_min":63,"x_max":747,"o":"m 165 940 l 632 940 l 632 799 l 165 799 l 165 940 m 531 317 l 531 717 l 747 717 l 747 0 l 536 0 l 536 101 q 311 -17 453 -17 q 130 52 197 -17 q 63 247 63 121 l 63 717 l 279 717 l 279 290 q 394 168 279 168 q 492 207 453 168 q 531 317 531 246 z "},"Ŭ":{"ha":982,"x_min":61,"x_max":921,"o":"m 654 1097 q 490 1042 590 1042 q 326 1097 390 1042 q 243 1249 260 1151 l 400 1249 q 490 1169 411 1169 q 581 1249 569 1169 l 738 1249 q 654 1097 719 1151 m 490 -22 q 179 82 297 -22 q 61 376 61 183 l 61 989 l 296 989 l 296 374 q 347 230 296 279 q 490 181 397 181 q 635 230 583 181 q 686 374 686 279 l 686 989 l 921 989 l 921 376 q 806 82 921 186 q 490 -22 692 -22 z "},"ŭ":{"ha":810,"x_min":63,"x_max":747,"o":"m 563 847 q 399 792 499 792 q 235 847 299 792 q 151 999 168 901 l 308 999 q 399 919 319 919 q 489 999 478 919 l 646 999 q 563 847 628 901 m 531 317 l 531 717 l 747 717 l 747 0 l 536 0 l 536 101 q 311 -17 453 -17 q 130 52 197 -17 q 63 247 63 121 l 63 717 l 279 717 l 279 290 q 394 168 279 168 q 492 207 453 168 q 531 317 531 246 z "},"Ů":{"ha":982,"x_min":61,"x_max":921,"o":"m 688 989 l 921 989 l 921 376 q 806 82 921 186 q 490 -22 692 -22 q 179 82 297 -22 q 61 376 61 183 l 61 989 l 293 989 q 276 1069 276 1024 q 339 1215 276 1158 q 490 1272 400 1272 q 643 1215 579 1272 q 704 1069 704 1158 q 688 989 704 1025 m 572 1071 q 572 1088 572 1071 q 549 1128 572 1106 q 490 1150 525 1150 q 432 1128 456 1150 q 408 1070 408 1106 q 432 1013 408 1035 q 490 989 456 989 q 549 1013 525 989 q 572 1071 572 1036 m 347 230 q 372 205 347 230 q 490 181 397 181 q 635 230 583 181 q 686 374 686 279 l 686 985 q 609 899 661 931 q 490 868 557 868 q 374 899 426 868 q 296 982 321 929 l 296 374 q 347 230 296 279 z "},"ů":{"ha":810,"x_min":63,"x_max":747,"o":"m 551 850 q 399 793 488 793 q 247 850 308 793 q 185 996 185 906 q 247 1140 185 1083 q 399 1197 308 1197 q 551 1140 488 1197 q 613 996 613 1083 q 551 850 613 907 m 481 996 q 481 1013 481 996 q 457 1054 481 1031 q 399 1078 433 1078 q 340 1054 364 1078 q 317 996 317 1031 q 340 939 317 961 q 399 917 364 917 q 457 939 433 917 q 481 996 481 961 m 531 317 l 531 717 l 747 717 l 747 0 l 536 0 l 536 101 q 311 -17 453 -17 q 130 52 197 -17 q 63 247 63 121 l 63 717 l 279 717 l 279 290 q 394 168 279 168 q 492 207 453 168 q 531 317 531 246 z "},"Ű":{"ha":982,"x_min":61,"x_max":921,"o":"m 415 1049 l 250 1049 l 372 1249 l 610 1249 l 415 1049 m 726 1049 l 560 1049 l 683 1249 l 919 1249 l 726 1049 m 490 -22 q 179 82 297 -22 q 61 376 61 183 l 61 989 l 296 989 l 296 374 q 347 230 296 279 q 490 181 397 181 q 635 230 583 181 q 686 374 686 279 l 686 989 l 921 989 l 921 376 q 806 82 921 186 q 490 -22 692 -22 z "},"ű":{"ha":810,"x_min":63,"x_max":839,"o":"m 292 999 l 529 999 l 335 799 l 169 799 l 292 999 m 839 999 l 646 799 l 479 799 l 603 999 l 839 999 m 531 317 l 531 717 l 747 717 l 747 0 l 536 0 l 536 101 q 311 -17 453 -17 q 130 52 197 -17 q 63 247 63 121 l 63 717 l 279 717 l 279 290 q 394 168 279 168 q 492 207 453 168 q 531 317 531 246 z "},"Ų":{"ha":982,"x_min":61,"x_max":921,"o":"m 686 374 l 686 989 l 921 989 l 921 376 q 851 133 921 229 q 654 0 782 38 q 521 -122 521 -61 q 590 -172 521 -172 q 656 -162 622 -172 l 656 -276 q 556 -289 611 -289 q 413 -253 465 -289 q 361 -154 361 -217 q 456 -21 361 -75 q 169 92 275 -12 q 61 376 61 193 l 61 989 l 296 989 l 296 374 q 347 230 296 279 q 490 181 397 181 q 635 230 583 181 q 686 374 686 279 z "},"ų":{"ha":810,"x_min":63,"x_max":747,"o":"m 747 717 l 747 0 q 613 -122 613 -60 q 682 -172 613 -172 q 747 -162 714 -172 l 747 -276 q 647 -289 703 -289 q 505 -253 557 -289 q 453 -154 453 -217 q 489 -67 453 -110 q 593 0 525 -25 l 536 0 l 536 101 q 311 -17 453 -17 q 130 52 197 -17 q 63 247 63 121 l 63 717 l 279 717 l 279 290 q 394 168 279 168 q 492 207 453 168 q 531 317 531 246 l 531 717 l 747 717 z "},"Ŵ":{"ha":1379,"x_min":0,"x_max":1379,"o":"m 781 1049 l 690 1144 l 599 1049 l 404 1049 l 568 1249 l 808 1249 l 974 1049 l 781 1049 m 1051 650 l 1135 989 l 1379 989 l 1108 0 l 846 0 l 764 350 q 690 707 725 507 q 617 350 660 546 l 533 0 l 271 0 l 0 989 l 246 989 l 328 650 q 415 263 381 433 q 493 650 463 513 l 572 989 l 807 989 l 886 650 q 964 260 925 481 q 1051 650 983 349 z "},"ŵ":{"ha":1192,"x_min":1,"x_max":1189,"o":"m 688 799 l 597 893 l 506 799 l 311 799 l 475 999 l 715 999 l 881 799 l 688 799 m 890 486 l 957 717 l 1189 717 l 956 0 l 728 0 l 649 269 q 594 463 621 360 q 543 269 569 363 l 464 0 l 236 0 l 1 717 l 235 717 l 301 486 q 368 244 336 365 q 431 488 394 354 l 496 717 l 696 717 l 761 488 q 824 244 797 354 q 890 486 856 365 z "},"Ŷ":{"ha":972,"x_min":0,"x_max":972,"o":"m 576 1049 l 486 1144 l 394 1049 l 200 1049 l 364 1249 l 604 1249 l 769 1049 l 576 1049 m 631 847 l 714 989 l 972 989 l 606 385 l 606 0 l 371 0 l 371 385 l 0 989 l 265 989 l 351 846 q 424 721 399 764 q 451 672 435 700 q 476 628 467 644 q 493 600 486 611 q 631 847 571 743 z "},"ŷ":{"ha":765,"x_min":1,"x_max":764,"o":"m 474 799 l 383 893 l 292 799 l 97 799 l 261 999 l 501 999 l 667 799 l 474 799 m 508 614 l 540 717 l 764 717 l 504 -28 q 381 -219 456 -167 q 147 -274 303 -274 q 63 -271 121 -274 l 63 -104 l 132 -104 q 240 -4 240 -104 q 207 135 240 40 l 1 717 l 235 717 l 267 615 q 389 164 336 382 q 508 614 443 390 z "},"Ÿ":{"ha":972,"x_min":0,"x_max":972,"o":"m 236 1232 l 444 1232 l 444 1049 l 236 1049 l 236 1232 m 528 1232 l 736 1232 l 736 1049 l 528 1049 l 528 1232 m 631 847 l 714 989 l 972 989 l 606 385 l 606 0 l 371 0 l 371 385 l 0 989 l 265 989 l 351 846 q 424 721 399 764 q 451 672 435 700 q 476 628 467 644 q 493 600 486 611 q 631 847 571 743 z "},"Ź":{"ha":896,"x_min":35,"x_max":861,"o":"m 488 1249 l 724 1249 l 538 1049 l 365 1049 l 488 1249 m 625 210 l 861 210 l 861 0 l 35 0 l 35 185 l 365 574 q 547 782 419 638 q 261 779 292 779 l 51 779 l 51 989 l 853 989 l 853 806 l 521 415 q 338 207 425 303 q 625 210 593 210 z "},"ź":{"ha":704,"x_min":39,"x_max":667,"o":"m 396 999 l 632 999 l 446 799 l 274 799 l 396 999 m 454 161 l 667 161 l 667 0 l 39 0 l 39 136 l 293 450 q 382 557 342 510 q 238 556 350 556 l 42 556 l 42 717 l 653 717 l 653 581 l 399 267 q 310 160 350 207 q 454 161 342 161 z "},"Ż":{"ha":896,"x_min":35,"x_max":861,"o":"m 344 1232 l 553 1232 l 553 1049 l 344 1049 l 344 1232 m 625 210 l 861 210 l 861 0 l 35 0 l 35 185 l 365 574 q 547 782 419 638 q 261 779 292 779 l 51 779 l 51 989 l 853 989 l 853 806 l 521 415 q 338 207 425 303 q 625 210 593 210 z "},"ż":{"ha":704,"x_min":39,"x_max":667,"o":"m 250 982 l 458 982 l 458 799 l 250 799 l 250 982 m 454 161 l 667 161 l 667 0 l 39 0 l 39 136 l 293 450 q 382 557 342 510 q 238 556 350 556 l 42 556 l 42 717 l 653 717 l 653 581 l 399 267 q 310 160 350 207 q 454 161 342 161 z "},"Ž":{"ha":896,"x_min":35,"x_max":861,"o":"m 733 1249 l 569 1049 l 329 1049 l 164 1249 l 357 1249 l 449 1153 l 539 1249 l 733 1249 m 625 210 l 861 210 l 861 0 l 35 0 l 35 185 l 365 574 q 547 782 419 638 q 261 779 292 779 l 51 779 l 51 989 l 853 989 l 853 806 l 521 415 q 338 207 425 303 q 625 210 593 210 z "},"ž":{"ha":704,"x_min":39,"x_max":667,"o":"m 638 999 l 474 799 l 233 799 l 68 999 l 261 999 l 353 903 l 443 999 l 638 999 m 454 161 l 667 161 l 667 0 l 39 0 l 39 136 l 293 450 q 382 557 342 510 q 238 556 350 556 l 42 556 l 42 717 l 653 717 l 653 581 l 399 267 q 310 160 350 207 q 454 161 342 161 z "},"Ə":{"ha":1038,"x_min":33,"x_max":1004,"o":"m 506 1011 q 871 871 735 1011 q 1004 494 1004 731 q 871 121 1004 265 q 517 -22 736 -22 q 164 126 293 -22 q 33 507 33 274 l 33 561 l 761 561 q 507 808 735 808 q 296 679 353 808 l 60 679 q 215 922 97 832 q 506 1011 332 1011 m 347 241 q 378 210 347 241 q 511 179 410 179 q 677 238 613 179 q 760 410 742 297 l 271 410 q 347 241 285 303 z "},"ƒ":{"ha":749,"x_min":29,"x_max":718,"o":"m 657 826 q 580 803 603 826 q 547 717 557 779 l 528 583 l 678 583 l 678 425 l 504 425 l 436 -26 q 349 -227 417 -165 q 149 -289 281 -289 q 29 -282 99 -289 l 29 -111 q 92 -117 61 -117 q 169 -93 146 -117 q 200 -7 192 -69 l 265 425 l 128 425 l 128 583 l 289 583 l 311 736 q 400 937 332 875 q 599 999 468 999 q 718 990 664 999 l 718 821 q 657 826 686 826 z "},"Ǵ":{"ha":1081,"x_min":33,"x_max":1019,"o":"m 572 1271 l 808 1271 l 622 1071 l 450 1071 l 572 1271 m 564 368 l 564 551 l 1019 551 l 1019 0 l 856 0 l 828 131 q 507 -22 728 -22 q 163 119 292 -22 q 33 494 33 258 q 168 872 33 733 q 535 1011 301 1011 q 856 915 728 1011 q 1007 656 985 818 l 767 656 q 686 768 746 728 q 536 808 626 808 q 347 725 415 808 q 278 494 278 642 q 349 264 278 347 q 547 181 421 181 q 705 233 639 181 q 783 368 771 285 l 564 368 z "},"ǵ":{"ha":835,"x_min":33,"x_max":772,"o":"m 464 999 l 700 999 l 514 799 l 342 799 l 464 999 m 561 622 l 561 717 l 772 717 l 772 22 q 676 -206 772 -124 q 406 -289 579 -289 q 156 -219 246 -289 q 58 -26 65 -149 l 272 -26 q 410 -126 281 -126 q 518 -90 481 -126 q 556 14 556 -53 l 556 117 q 350 15 488 15 q 121 115 208 15 q 33 375 33 215 q 119 635 33 533 q 346 733 206 733 q 561 622 490 733 m 406 189 q 519 237 479 189 q 560 375 560 285 q 520 513 560 465 q 406 560 481 560 q 293 510 333 560 q 253 372 253 461 q 293 237 253 285 q 406 189 333 189 z "},"Ǻ":{"ha":1017,"x_min":0,"x_max":1015,"o":"m 1015 0 l 767 0 l 708 172 l 297 172 l 240 0 l 0 0 l 343 932 q 289 1069 289 989 q 329 1192 289 1140 q 436 1263 369 1244 l 540 1433 l 776 1433 l 606 1249 q 687 1176 657 1224 q 717 1069 717 1128 q 664 935 717 992 l 1015 0 m 503 1150 q 485 1150 503 1150 q 444 1128 468 1150 q 421 1070 421 1106 q 444 1013 421 1035 q 503 989 468 989 q 561 1013 538 989 q 585 1071 585 1036 q 561 1128 585 1106 q 503 1150 538 1150 m 419 538 l 363 368 l 642 368 l 585 538 q 501 788 558 613 q 419 538 428 561 z "},"ǻ":{"ha":776,"x_min":26,"x_max":753,"o":"m 446 1457 l 682 1457 l 496 1257 l 324 1257 l 446 1457 m 556 850 q 403 793 492 793 q 251 850 313 793 q 189 996 189 906 q 251 1140 189 1083 q 403 1197 313 1197 q 556 1140 492 1197 q 617 996 617 1083 q 556 850 617 907 m 485 996 q 485 1013 485 996 q 461 1054 485 1031 q 403 1078 438 1078 q 344 1054 368 1078 q 321 996 321 1031 q 344 939 321 961 q 403 917 368 917 q 461 939 438 917 q 485 996 485 961 m 753 0 l 535 0 q 517 81 518 32 q 288 -17 444 -17 q 98 42 169 -17 q 26 203 26 100 q 307 426 26 403 l 419 436 q 513 507 513 446 q 403 579 513 579 q 309 559 336 579 q 276 485 282 539 l 61 485 q 404 733 81 733 q 724 513 724 733 l 724 132 q 753 0 724 42 m 353 129 q 469 167 426 129 q 513 282 513 206 l 513 335 q 440 307 493 314 l 351 297 q 247 211 247 286 q 275 151 247 174 q 353 129 303 129 z "},"Ǽ":{"ha":1472,"x_min":0,"x_max":1438,"o":"m 988 1249 l 1224 1249 l 1038 1049 l 865 1049 l 988 1249 m 1438 989 l 1438 779 l 968 779 l 968 600 l 1390 600 l 1390 403 l 968 403 l 968 210 l 1436 210 l 1436 0 l 739 0 l 739 213 l 346 213 l 243 0 l 0 0 l 485 989 l 1438 989 m 626 793 l 440 408 l 739 408 l 739 793 l 626 793 z "},"ǽ":{"ha":1253,"x_min":26,"x_max":1214,"o":"m 678 999 l 914 999 l 728 799 l 556 799 l 678 999 m 1214 338 l 1214 294 l 710 294 q 867 143 731 143 q 1004 224 965 143 l 1199 224 q 1081 47 1171 111 q 865 -17 992 -17 q 601 94 700 -17 q 308 -17 490 -17 q 101 41 176 -17 q 26 203 26 99 q 307 426 26 403 l 419 436 q 513 507 513 446 q 403 579 513 579 q 309 559 336 579 q 276 485 282 539 l 61 485 q 404 733 81 733 q 640 660 574 733 q 863 733 731 733 q 1119 626 1024 733 q 1214 338 1214 517 m 861 574 q 711 432 733 574 l 1013 432 q 861 574 988 574 m 353 129 q 469 167 426 129 q 513 282 513 206 l 513 335 q 440 307 493 314 l 351 297 q 247 211 247 286 q 275 151 247 174 q 353 129 303 129 z "},"Ǿ":{"ha":1081,"x_min":29,"x_max":1050,"o":"m 578 1271 l 814 1271 l 628 1071 l 456 1071 l 578 1271 m 956 1060 l 1050 975 l 932 842 q 1047 494 1047 703 q 907 119 1047 263 q 540 -22 767 -22 q 242 63 368 -22 l 124 -71 l 29 14 l 147 147 q 33 494 33 286 q 174 869 33 726 q 540 1011 314 1011 q 838 926 711 1011 l 956 1060 m 278 494 q 310 331 278 401 l 692 761 q 540 807 629 807 q 349 723 419 807 q 278 494 278 639 m 804 494 q 772 661 804 589 l 389 228 q 540 182 454 182 q 733 266 661 182 q 804 494 804 350 z "},"ǿ":{"ha":818,"x_min":31,"x_max":786,"o":"m 453 999 l 689 999 l 503 799 l 331 799 l 453 999 m 707 774 l 786 703 l 703 608 q 785 358 785 510 q 683 86 785 188 q 410 -17 581 -17 q 196 38 288 -17 l 111 -58 l 31 13 l 115 108 q 33 358 33 207 q 136 632 33 529 q 410 733 238 733 q 622 679 531 733 l 707 774 m 243 358 q 254 264 243 311 l 504 546 q 410 574 464 574 q 286 519 329 574 q 243 358 243 464 m 575 358 q 564 453 575 406 l 314 171 q 410 143 354 143 q 532 198 489 143 q 575 358 575 253 z "},"Ș":{"ha":903,"x_min":26,"x_max":879,"o":"m 454 607 l 538 592 q 798 488 717 560 q 879 290 879 417 q 768 58 879 139 q 460 -22 657 -22 q 140 69 253 -22 q 26 325 28 161 l 254 325 q 308 197 256 233 q 468 161 360 161 q 636 275 636 161 q 599 349 636 325 q 458 393 563 374 l 378 408 q 47 718 47 464 q 148 932 47 853 q 433 1011 249 1011 q 735 928 631 1011 q 846 689 839 844 l 624 689 q 576 794 619 761 q 438 828 532 828 q 286 728 286 828 q 323 651 286 678 q 454 607 360 625 m 460 -235 l 376 -235 l 376 -82 l 568 -82 l 568 -244 q 410 -374 568 -372 l 376 -374 l 376 -300 l 408 -299 q 460 -247 460 -299 l 460 -235 z "},"ș":{"ha":722,"x_min":19,"x_max":706,"o":"m 347 449 l 454 433 q 644 360 583 414 q 706 211 706 306 q 616 40 706 100 q 364 -21 526 -21 q 112 38 194 -21 q 19 228 29 97 l 231 228 q 267 147 236 171 q 368 124 299 124 q 489 193 489 124 q 463 244 489 226 q 365 272 436 261 l 272 288 q 31 507 31 325 q 114 674 31 615 q 353 733 197 733 q 686 488 674 733 l 485 488 q 353 589 483 589 q 243 521 243 589 q 268 474 243 490 q 347 449 293 457 m 354 -256 l 271 -256 l 271 -103 l 463 -103 l 463 -265 q 304 -394 463 -392 l 271 -394 l 271 -321 l 303 -319 q 354 -268 354 -319 l 354 -256 z "},"Ț":{"ha":878,"x_min":18,"x_max":861,"o":"m 18 989 l 861 989 l 861 779 l 557 779 l 557 0 l 321 0 l 321 779 l 18 779 l 18 989 m 428 -212 l 344 -212 l 344 -60 l 536 -60 l 536 -222 q 378 -351 536 -350 l 344 -351 l 344 -278 l 376 -276 q 428 -225 428 -276 l 428 -212 z "},"ț":{"ha":506,"x_min":15,"x_max":476,"o":"m 476 717 l 476 558 l 339 558 l 339 224 q 357 174 339 188 q 421 161 375 161 l 476 161 l 476 0 q 376 -6 438 -6 q 182 42 242 -6 q 122 200 122 90 l 122 558 l 15 558 l 15 717 l 122 717 l 122 929 l 339 929 l 339 717 l 476 717 m 286 -235 l 203 -235 l 203 -82 l 394 -82 l 394 -244 q 236 -374 394 -372 l 203 -374 l 203 -300 l 235 -299 q 286 -247 286 -299 l 286 -235 z "},"ȷ":{"ha":343,"x_min":-32,"x_max":279,"o":"m 39 -275 q -32 -274 -18 -275 l -32 -108 l -6 -108 q 47 -94 31 -108 q 63 -44 63 -81 l 63 717 l 279 717 l 279 -69 q 222 -226 279 -178 q 39 -275 165 -275 z "},"ə":{"ha":811,"x_min":39,"x_max":778,"o":"m 403 733 q 675 632 574 733 q 778 358 778 529 q 678 86 778 189 q 408 -17 575 -17 q 140 92 240 -17 q 39 379 39 197 l 39 422 l 568 422 q 403 574 547 574 q 260 493 301 574 l 54 493 q 179 669 83 606 q 403 733 274 733 m 410 143 q 567 285 544 143 l 251 285 q 304 181 263 218 q 410 143 346 143 z "},"ʰ":{"ha":651,"x_min":26,"x_max":625,"o":"m 406 1001 q 566 940 507 1001 q 625 767 625 878 l 625 364 l 432 364 l 432 736 q 333 838 432 838 q 251 805 283 838 q 219 713 219 772 l 219 364 l 26 364 l 26 1224 l 219 1224 l 219 906 q 406 1001 290 1001 z "},"ʳ":{"ha":451,"x_min":26,"x_max":431,"o":"m 389 999 q 431 996 400 999 l 431 821 l 382 821 q 219 656 219 821 l 219 364 l 26 364 l 26 989 l 214 989 l 214 875 q 389 999 258 999 z "},"ˆ":{"ha":556,"x_min":-7,"x_max":563,"o":"m 397 999 l 563 799 l 369 799 l 279 893 l 188 799 l -7 799 l 157 999 l 397 999 z "},"ˇ":{"ha":556,"x_min":-6,"x_max":563,"o":"m 279 903 l 369 999 l 563 999 l 400 799 l 160 799 l -6 999 l 188 999 l 279 903 z "},"ˉ":{"ha":556,"x_min":44,"x_max":511,"o":"m 511 799 l 44 799 l 44 940 l 511 940 l 511 799 z "},"˘":{"ha":556,"x_min":31,"x_max":525,"o":"m 442 847 q 278 792 378 792 q 114 847 178 792 q 31 999 47 901 l 188 999 q 278 919 197 919 q 368 999 358 919 l 525 999 q 442 847 507 901 z "},"˙":{"ha":556,"x_min":175,"x_max":383,"o":"m 383 799 l 175 799 l 175 982 l 383 982 l 383 799 z "},"˚":{"ha":556,"x_min":64,"x_max":492,"o":"m 431 850 q 278 793 367 793 q 126 850 188 793 q 64 996 64 906 q 126 1140 64 1083 q 278 1197 188 1197 q 431 1140 367 1197 q 492 996 492 1083 q 431 850 492 907 m 196 996 q 196 978 196 996 q 219 939 196 961 q 278 917 243 917 q 336 939 313 917 q 360 996 360 961 q 336 1054 360 1031 q 278 1078 313 1078 q 219 1054 243 1078 q 196 996 196 1031 z "},"˛":{"ha":556,"x_min":131,"x_max":425,"o":"m 325 -289 q 183 -253 235 -289 q 131 -154 131 -217 q 167 -67 131 -110 q 272 0 203 -25 l 425 0 q 290 -122 290 -60 q 360 -172 290 -172 q 425 -162 392 -172 l 425 -276 q 325 -289 381 -289 z "},"˜":{"ha":556,"x_min":17,"x_max":539,"o":"m 149 799 l 17 799 q 56 942 17 893 q 165 990 96 990 q 285 963 213 990 q 368 940 335 940 q 407 990 406 940 l 539 990 q 499 847 539 896 q 390 799 460 799 q 269 828 349 799 q 188 850 215 850 q 149 799 150 850 z "},"˝":{"ha":556,"x_min":-57,"x_max":614,"o":"m 108 799 l -57 799 l 67 999 l 304 999 l 108 799 m 419 799 l 254 799 l 378 999 l 614 999 l 419 799 z "},"ˢ":{"ha":638,"x_min":19,"x_max":618,"o":"m 321 346 q 99 397 171 346 q 19 563 28 447 l 207 563 q 238 494 213 513 q 325 475 264 475 q 425 531 425 475 q 403 574 425 560 q 319 599 381 589 l 231 611 q 29 804 29 642 q 103 950 29 899 q 314 1001 176 1001 q 601 786 590 1001 l 422 786 q 313 874 418 874 q 218 815 218 874 q 238 774 218 788 q 306 754 258 761 l 397 742 q 565 678 511 725 q 618 547 618 632 q 540 399 618 451 q 321 346 461 346 z "},"̀":{"ha":0,"x_min":-179,"x_max":179,"o":"m 179 799 l 7 799 l -179 999 l 57 999 l 179 799 z "},"́":{"ha":0,"x_min":-179,"x_max":179,"o":"m -7 799 l -179 799 l -57 999 l 179 999 l -7 799 z "},"̂":{"ha":0,"x_min":-285,"x_max":285,"o":"m 119 999 l 285 799 l 92 799 l 1 893 l -90 799 l -285 799 l -121 999 l 119 999 z "},"̃":{"ha":0,"x_min":-261,"x_max":261,"o":"m -129 799 l -261 799 q -222 942 -261 893 q -112 990 -182 990 q 7 963 -65 990 q 90 940 57 940 q 129 990 128 940 l 261 990 q 222 847 261 896 q 113 799 182 799 q -8 828 71 799 q -90 850 -62 850 q -129 799 -128 850 z "},"̄":{"ha":0,"x_min":-233,"x_max":233,"o":"m 233 799 l -233 799 l -233 940 l 233 940 l 233 799 z "},"̆":{"ha":0,"x_min":-247,"x_max":247,"o":"m 164 847 q 0 792 100 792 q -165 847 -100 792 q -247 999 -231 903 l -90 999 q 0 919 -81 919 q 90 999 81 919 l 247 999 q 164 847 229 901 z "},"̇":{"ha":0,"x_min":-104,"x_max":104,"o":"m 104 799 l -104 799 l -104 982 l 104 982 l 104 799 z "},"̈":{"ha":0,"x_min":-250,"x_max":250,"o":"m -42 799 l -250 799 l -250 982 l -42 982 l -42 799 m 250 799 l 42 799 l 42 982 l 250 982 l 250 799 z "},"̊":{"ha":0,"x_min":-214,"x_max":214,"o":"m 153 850 q 0 793 89 793 q -153 850 -89 793 q -214 996 -214 907 q -153 1140 -214 1083 q 0 1197 -89 1197 q 153 1140 89 1197 q 214 996 214 1083 q 153 850 214 907 m -82 996 q -82 978 -82 996 q -58 939 -82 961 q 0 917 -35 917 q 58 939 35 917 q 82 996 82 961 q 58 1054 82 1031 q 0 1078 35 1078 q -58 1054 -35 1078 q -82 996 -82 1031 z "},"̋":{"ha":0,"x_min":-335,"x_max":335,"o":"m -169 799 l -335 799 l -212 999 l 25 999 l -169 799 m 142 799 l -25 799 l 99 999 l 335 999 l 142 799 z "},"̌":{"ha":0,"x_min":-285,"x_max":285,"o":"m -1 903 l 90 999 l 285 999 l 121 799 l -119 799 l -285 999 l -92 999 l -1 903 z "},"̒":{"ha":0,"x_min":-96,"x_max":96,"o":"m 96 1017 l 64 1015 q 13 964 13 1015 l 13 951 l 96 951 l 96 799 l -96 799 l -96 961 q 63 1090 -96 1089 l 96 1090 l 96 1017 z "},"̓":{"ha":0,"x_min":-96,"x_max":96,"o":"m -96 936 l -96 1089 l 96 1089 l 96 926 q 58 829 96 860 q -62 797 19 799 l -96 797 l -96 871 l -64 871 q -12 922 -12 872 l -12 936 l -96 936 z "},"̣":{"ha":0,"x_min":-104,"x_max":104,"o":"m 104 -265 l -104 -265 l -104 -82 l 104 -82 l 104 -265 z "},"̤":{"ha":0,"x_min":-250,"x_max":250,"o":"m -42 -265 l -250 -265 l -250 -82 l -42 -82 l -42 -265 m 250 -265 l 42 -265 l 42 -82 l 250 -82 l 250 -265 z "},"̥":{"ha":0,"x_min":-210,"x_max":210,"o":"m 150 -421 q 0 -475 89 -475 q -150 -421 -89 -475 q -210 -279 -210 -365 q -150 -137 -210 -193 q 0 -82 -90 -82 q 150 -137 90 -82 q 210 -279 210 -193 q 150 -421 210 -365 m -58 -336 q 32 -352 -22 -374 q 82 -279 86 -331 q 58 -222 82 -244 q 0 -199 35 -199 q -58 -222 -35 -199 q -82 -279 -82 -244 q -58 -336 -82 -312 z "},"̦":{"ha":0,"x_min":-96,"x_max":96,"o":"m -96 -235 l -96 -82 l 96 -82 l 96 -244 q -62 -374 96 -372 l -96 -374 l -96 -300 l -64 -299 q -12 -247 -12 -299 l -12 -235 l -96 -235 z "},"̧":{"ha":0,"x_min":-156,"x_max":156,"o":"m 10 -60 q 116 -90 76 -60 q 156 -168 156 -121 q 102 -267 156 -232 q -58 -303 49 -303 q -156 -293 -115 -303 l -156 -215 q -78 -221 -124 -221 q 7 -165 7 -221 q -72 -115 7 -115 q -106 -117 -96 -115 l -106 -64 l -50 7 l 46 7 l -12 -61 q 10 -60 -7 -60 z "},"̨":{"ha":0,"x_min":-147,"x_max":147,"o":"m 47 -289 q -95 -253 -43 -289 q -147 -154 -147 -217 q -111 -67 -147 -110 q -6 0 -75 -25 l 147 0 q 13 -122 13 -60 q 82 -172 13 -172 q 147 -162 114 -172 l 147 -276 q 47 -289 103 -289 z "},"̮":{"ha":0,"x_min":-247,"x_max":247,"o":"m 164 -235 q 0 -289 100 -289 q -165 -235 -99 -289 q -247 -82 -231 -178 l -90 -82 q 0 -161 -81 -161 q 90 -82 81 -161 l 247 -82 q 164 -235 229 -178 z "},"̱":{"ha":0,"x_min":-233,"x_max":233,"o":"m 233 -224 l -233 -224 l -233 -82 l 233 -82 l 233 -224 z "},"̵":{"ha":0,"x_min":-237,"x_max":238,"o":"m 238 315 l -237 315 l -237 436 l 238 436 l 238 315 z "},"̷":{"ha":0,"x_min":-378,"x_max":378,"o":"m 378 701 l -299 -60 l -378 11 l 299 772 l 378 701 z "},"̸":{"ha":0,"x_min":-511,"x_max":511,"o":"m 511 971 l -417 -75 l -511 10 l 417 1056 l 511 971 z "},"Δ":{"ha":961,"x_min":35,"x_max":926,"o":"m 336 989 l 615 989 l 926 196 l 926 0 l 35 0 l 35 196 l 336 989 m 393 538 l 274 206 l 681 206 l 558 538 q 475 783 513 663 q 393 538 435 656 z "},"Ω":{"ha":1096,"x_min":33,"x_max":1063,"o":"m 492 0 l 33 0 l 33 203 l 235 203 l 235 207 q 43 569 43 342 q 178 890 43 769 q 544 1011 314 1011 q 917 890 779 1011 q 1053 569 1053 769 q 863 207 1053 343 l 863 203 l 1063 203 l 1063 0 l 606 0 l 606 181 q 760 316 706 228 q 814 521 814 404 q 744 733 814 660 q 550 807 674 807 q 353 733 424 807 q 282 521 282 660 q 337 317 282 407 q 492 181 392 228 l 492 0 z "},"μ":{"ha":811,"x_min":63,"x_max":749,"o":"m 531 317 l 531 717 l 749 717 l 749 0 l 536 0 l 536 100 q 319 -17 456 -17 q 276 -11 293 -17 l 276 -272 l 63 -272 l 63 717 l 281 717 l 281 290 q 396 168 281 168 q 492 207 454 168 q 531 317 531 246 z "},"π":{"ha":896,"x_min":15,"x_max":867,"o":"m 867 717 l 867 558 l 760 558 l 760 203 q 803 154 760 154 q 849 156 838 154 l 849 0 q 743 -6 814 -6 q 587 38 631 -6 q 543 186 543 81 l 543 558 l 339 558 l 339 0 l 122 0 l 122 558 l 15 558 l 15 717 l 867 717 z "},"ᵈ":{"ha":699,"x_min":25,"x_max":671,"o":"m 478 914 l 478 1224 l 671 1224 l 671 364 l 485 364 l 485 449 q 299 350 424 350 q 98 438 171 350 q 25 675 25 525 q 98 913 25 825 q 299 1001 171 1001 q 478 914 415 1001 m 350 503 q 482 675 482 503 q 350 849 482 849 q 253 803 288 849 q 219 671 219 757 q 350 503 219 503 z "},"ᵗ":{"ha":435,"x_min":17,"x_max":418,"o":"m 418 989 l 418 849 l 300 849 l 300 563 q 315 521 300 532 q 369 510 329 510 l 418 510 l 418 367 q 331 361 367 361 q 160 404 211 361 q 108 540 108 447 l 108 849 l 17 849 l 17 989 l 108 989 l 108 1174 l 300 1174 l 300 989 l 418 989 z "},"Ẁ":{"ha":1379,"x_min":0,"x_max":1379,"o":"m 653 1249 l 775 1049 l 603 1049 l 417 1249 l 653 1249 m 1051 650 l 1135 989 l 1379 989 l 1108 0 l 846 0 l 764 350 q 690 707 725 507 q 617 350 660 546 l 533 0 l 271 0 l 0 989 l 246 989 l 328 650 q 415 263 381 433 q 493 650 463 513 l 572 989 l 807 989 l 886 650 q 964 260 925 481 q 1051 650 983 349 z "},"ẁ":{"ha":1192,"x_min":1,"x_max":1189,"o":"m 564 999 l 686 799 l 514 799 l 328 999 l 564 999 m 890 486 l 957 717 l 1189 717 l 956 0 l 728 0 l 649 269 q 594 463 621 360 q 543 269 569 363 l 464 0 l 236 0 l 1 717 l 235 717 l 301 486 q 368 244 336 365 q 431 488 394 354 l 496 717 l 696 717 l 761 488 q 824 244 797 354 q 890 486 856 365 z "},"Ẃ":{"ha":1379,"x_min":0,"x_max":1379,"o":"m 728 1249 l 964 1249 l 778 1049 l 606 1049 l 728 1249 m 1051 650 l 1135 989 l 1379 989 l 1108 0 l 846 0 l 764 350 q 690 707 725 507 q 617 350 660 546 l 533 0 l 271 0 l 0 989 l 246 989 l 328 650 q 415 263 381 433 q 493 650 463 513 l 572 989 l 807 989 l 886 650 q 964 260 925 481 q 1051 650 983 349 z "},"ẃ":{"ha":1192,"x_min":1,"x_max":1189,"o":"m 639 999 l 875 999 l 689 799 l 517 799 l 639 999 m 890 486 l 957 717 l 1189 717 l 956 0 l 728 0 l 649 269 q 594 463 621 360 q 543 269 569 363 l 464 0 l 236 0 l 1 717 l 235 717 l 301 486 q 368 244 336 365 q 431 488 394 354 l 496 717 l 696 717 l 761 488 q 824 244 797 354 q 890 486 856 365 z "},"Ẅ":{"ha":1379,"x_min":0,"x_max":1379,"o":"m 440 1232 l 649 1232 l 649 1049 l 440 1049 l 440 1232 m 732 1232 l 940 1232 l 940 1049 l 732 1049 l 732 1232 m 1051 650 l 1135 989 l 1379 989 l 1108 0 l 846 0 l 764 350 q 690 707 725 507 q 617 350 660 546 l 533 0 l 271 0 l 0 989 l 246 989 l 328 650 q 415 263 381 433 q 493 650 463 513 l 572 989 l 807 989 l 886 650 q 964 260 925 481 q 1051 650 983 349 z "},"ẅ":{"ha":1192,"x_min":1,"x_max":1189,"o":"m 346 982 l 554 982 l 554 799 l 346 799 l 346 982 m 638 982 l 846 982 l 846 799 l 638 799 l 638 982 m 890 486 l 957 717 l 1189 717 l 956 0 l 728 0 l 649 269 q 594 463 621 360 q 543 269 569 363 l 464 0 l 236 0 l 1 717 l 235 717 l 301 486 q 368 244 336 365 q 431 488 394 354 l 496 717 l 696 717 l 761 488 q 824 244 797 354 q 890 486 856 365 z "},"ẞ":{"ha":990,"x_min":61,"x_max":965,"o":"m 917 811 l 725 582 q 903 481 842 554 q 965 303 965 408 q 863 74 965 156 q 565 -8 760 -8 q 424 1 496 -8 l 424 188 q 549 181 497 181 q 725 301 725 181 q 544 419 725 419 q 461 418 476 419 l 461 564 l 664 814 q 522 822 608 822 q 346 772 399 822 q 293 621 293 721 l 293 0 l 61 0 l 61 613 q 181 908 61 806 q 519 1011 300 1011 q 917 983 697 1011 l 917 811 z "},"Ỳ":{"ha":972,"x_min":0,"x_max":972,"o":"m 449 1249 l 571 1049 l 399 1049 l 213 1249 l 449 1249 m 631 847 l 714 989 l 972 989 l 606 385 l 606 0 l 371 0 l 371 385 l 0 989 l 265 989 l 351 846 q 424 721 399 764 q 451 672 435 700 q 476 628 467 644 q 493 600 486 611 q 631 847 571 743 z "},"ỳ":{"ha":765,"x_min":1,"x_max":764,"o":"m 350 999 l 472 799 l 300 799 l 114 999 l 350 999 m 508 614 l 540 717 l 764 717 l 504 -28 q 381 -219 456 -167 q 147 -274 303 -274 q 63 -271 121 -274 l 63 -104 l 132 -104 q 240 -4 240 -104 q 207 135 240 40 l 1 717 l 235 717 l 267 615 q 389 164 336 382 q 508 614 443 390 z "}," ":{"ha":343,"x_min":0,"x_max":0,"o":""},"‑":{"ha":500,"x_min":40,"x_max":460,"o":"m 460 299 l 40 299 l 40 481 l 460 481 l 460 299 z "},"–":{"ha":733,"x_min":40,"x_max":693,"o":"m 693 299 l 40 299 l 40 481 l 693 481 l 693 299 z "},"—":{"ha":1361,"x_min":40,"x_max":1321,"o":"m 1321 299 l 40 299 l 40 481 l 1321 481 l 1321 299 z "},"‘":{"ha":321,"x_min":47,"x_max":274,"o":"m 274 879 l 243 879 q 176 793 176 878 l 176 771 l 274 771 l 274 551 l 47 551 l 47 788 q 244 989 47 985 l 274 989 l 274 879 z "},"’":{"ha":321,"x_min":47,"x_max":274,"o":"m 47 768 l 47 988 l 274 988 l 274 751 q 76 550 274 554 l 47 550 l 47 660 l 78 660 q 143 746 143 663 l 143 768 l 47 768 z "},"‚":{"ha":321,"x_min":47,"x_max":274,"o":"m 47 0 l 47 219 l 274 219 l 274 -17 q 76 -218 274 -217 l 47 -218 l 47 -108 l 78 -108 q 143 -22 143 -106 l 143 0 l 47 0 z "},"“":{"ha":613,"x_min":47,"x_max":565,"o":"m 47 551 l 47 786 q 244 989 47 985 l 274 989 l 274 879 l 243 878 q 176 793 176 875 l 176 771 l 274 771 l 274 551 l 47 551 m 565 879 l 535 878 q 469 793 469 875 l 469 771 l 565 771 l 565 551 l 339 551 l 339 786 q 536 989 339 985 l 565 989 l 565 879 z "},"”":{"ha":613,"x_min":47,"x_max":565,"o":"m 143 769 l 47 769 l 47 989 l 274 989 l 274 753 q 76 551 274 553 l 47 551 l 47 661 l 78 661 q 143 747 143 664 l 143 769 m 339 769 l 339 989 l 565 989 l 565 753 q 368 551 565 553 l 339 551 l 339 661 l 369 661 q 436 747 436 664 l 436 769 l 339 769 z "},"„":{"ha":613,"x_min":47,"x_max":565,"o":"m 143 0 l 47 0 l 47 219 l 274 219 l 274 -17 q 76 -218 274 -217 l 47 -218 l 47 -108 l 78 -108 q 143 -22 143 -106 l 143 0 m 339 0 l 339 219 l 565 219 l 565 -17 q 368 -218 565 -217 l 339 -218 l 339 -108 l 369 -108 q 436 -22 436 -106 l 436 0 l 339 0 z "},"†":{"ha":843,"x_min":18,"x_max":825,"o":"m 539 717 l 825 717 l 825 518 l 539 518 l 539 -203 l 304 -203 l 304 518 l 18 518 l 18 717 l 304 717 l 304 989 l 539 989 l 539 717 z "},"‡":{"ha":843,"x_min":18,"x_max":825,"o":"m 825 717 l 825 518 l 539 518 l 539 268 l 825 268 l 825 69 l 539 69 l 539 -203 l 304 -203 l 304 69 l 18 69 l 18 268 l 304 268 l 304 518 l 18 518 l 18 717 l 304 717 l 304 989 l 539 989 l 539 717 l 825 717 z "},"•":{"ha":574,"x_min":75,"x_max":499,"o":"m 499 188 l 75 188 l 75 601 l 499 601 l 499 188 z "},"…":{"ha":1076,"x_min":47,"x_max":1029,"o":"m 292 0 l 47 0 l 47 239 l 292 239 l 292 0 m 663 0 l 418 0 l 418 239 l 663 239 l 663 0 m 1029 0 l 785 0 l 785 239 l 1029 239 l 1029 0 z "},"‰":{"ha":1813,"x_min":28,"x_max":1785,"o":"m 522 701 q 522 628 522 701 q 460 479 522 556 q 275 403 397 403 q 90 479 153 403 q 28 701 28 556 q 90 925 28 847 q 275 1001 153 1001 q 460 925 397 1001 q 522 701 522 847 m 436 0 l 299 0 l 826 989 l 964 989 l 436 0 m 207 568 q 275 529 229 529 q 343 568 321 529 q 365 701 365 604 q 343 836 365 797 q 275 875 321 875 q 207 836 229 875 q 185 701 185 797 q 207 568 185 604 m 988 -12 q 739 286 739 -12 q 801 510 739 433 q 988 586 864 586 q 1172 509 1108 586 q 1235 286 1235 432 q 1172 64 1235 140 q 988 -12 1108 -12 m 1538 -12 q 1290 286 1290 -12 q 1538 586 1290 586 q 1722 509 1658 586 q 1785 286 1785 432 q 1722 64 1785 140 q 1538 -12 1660 -12 m 988 114 q 1055 153 1033 114 q 1076 286 1076 193 q 1055 419 1076 379 q 988 460 1033 460 q 918 420 940 460 q 896 286 896 381 q 918 153 896 193 q 988 114 940 114 m 1469 153 q 1538 114 1492 114 q 1606 153 1583 114 q 1628 286 1628 192 q 1606 420 1628 381 q 1538 460 1585 460 q 1469 421 1492 460 q 1447 286 1447 382 q 1469 153 1447 189 z "},"‹":{"ha":386,"x_min":75,"x_max":311,"o":"m 75 474 l 311 667 l 311 465 l 189 367 l 311 267 l 311 65 l 75 258 l 75 474 z "},"›":{"ha":386,"x_min":75,"x_max":311,"o":"m 75 465 l 75 667 l 311 474 l 311 258 l 75 65 l 75 267 l 197 367 l 75 465 z "},"‽":{"ha":760,"x_min":24,"x_max":733,"o":"m 388 1011 q 640 942 547 1011 q 733 750 733 872 q 590 510 733 611 q 492 425 507 447 q 471 329 471 397 l 267 329 l 265 525 l 322 763 l 431 763 l 453 638 q 500 726 500 676 q 381 831 500 831 q 276 797 307 831 q 244 682 246 763 l 25 682 q 116 928 24 844 q 388 1011 208 1011 m 490 0 l 246 0 l 246 239 l 490 239 l 490 0 z "},"⁄":{"ha":444,"x_min":-111,"x_max":554,"o":"m 26 0 l -111 0 l 417 989 l 554 989 l 26 0 z "},"⁰":{"ha":550,"x_min":28,"x_max":522,"o":"m 460 797 q 275 721 397 721 q 90 797 153 721 q 28 1019 28 875 q 90 1243 28 1167 q 275 1319 153 1319 q 460 1243 397 1319 q 522 1019 522 1167 q 460 797 522 875 m 207 886 q 275 847 229 847 q 343 886 321 847 q 365 1019 365 922 q 343 1154 365 1115 q 275 1193 321 1193 q 207 1154 229 1193 q 185 1019 185 1115 q 207 886 185 922 z "},"⁴":{"ha":535,"x_min":31,"x_max":514,"o":"m 443 974 l 514 974 l 514 851 l 443 851 l 443 733 l 292 733 l 292 851 l 31 851 l 31 994 l 289 1307 l 443 1307 l 443 974 m 294 974 l 294 1150 l 149 974 l 294 974 z "},"⁵":{"ha":497,"x_min":22,"x_max":479,"o":"m 278 1118 q 426 1064 374 1118 q 479 925 479 1010 q 415 777 479 833 q 249 721 350 721 q 91 770 154 721 q 22 904 28 819 l 165 904 q 194 858 171 875 q 249 840 217 840 q 313 864 289 840 q 336 925 336 888 q 313 987 336 963 q 249 1011 289 1011 q 171 968 192 1011 l 31 968 l 86 1307 l 453 1307 l 453 1181 l 203 1181 l 188 1096 q 278 1118 222 1118 z "},"⁶":{"ha":513,"x_min":25,"x_max":494,"o":"m 292 1118 q 440 1063 385 1118 q 494 925 494 1008 q 431 776 494 832 q 265 721 368 721 q 121 764 178 721 q 25 1014 25 833 q 88 1242 25 1164 q 268 1319 150 1319 q 417 1276 360 1319 q 486 1154 475 1233 l 344 1154 q 267 1206 328 1206 q 194 1176 218 1206 q 165 1074 171 1146 q 292 1118 214 1118 m 265 840 q 328 863 304 840 q 351 922 351 886 q 327 981 351 957 q 265 1006 303 1006 q 204 981 228 1006 q 181 922 181 957 q 204 863 181 886 q 265 840 228 840 z "},"⁷":{"ha":457,"x_min":21,"x_max":436,"o":"m 21 1181 l 21 1307 l 436 1307 l 436 1185 q 311 996 350 1097 q 269 733 272 894 l 107 733 q 285 1181 111 990 l 21 1181 z "},"⁸":{"ha":524,"x_min":22,"x_max":501,"o":"m 411 1036 q 501 899 501 999 q 437 769 501 818 q 261 721 372 721 q 88 769 153 721 q 22 899 22 818 q 113 1036 22 999 q 49 1157 49 1078 q 105 1276 49 1232 q 261 1319 161 1319 q 418 1276 361 1319 q 475 1157 475 1232 q 411 1036 475 1078 m 261 1210 q 204 1193 225 1210 q 183 1146 183 1176 q 203 1099 183 1117 q 261 1082 224 1082 q 339 1146 339 1082 q 261 1210 339 1210 m 261 839 q 353 911 353 839 q 328 965 353 946 q 261 985 304 985 q 196 965 219 985 q 172 911 172 946 q 261 839 172 839 z "},"⁹":{"ha":513,"x_min":18,"x_max":488,"o":"m 390 1275 q 488 1026 488 1204 q 425 799 488 876 q 246 721 363 721 q 96 764 154 721 q 26 886 38 807 l 168 886 q 247 835 185 835 q 317 865 294 835 q 346 967 340 894 q 219 922 297 922 q 73 977 128 922 q 18 1115 18 1032 q 81 1264 18 1208 q 246 1319 144 1319 q 390 1275 326 1319 m 185 1058 q 247 1035 207 1035 q 308 1058 286 1035 q 331 1119 331 1082 q 308 1178 331 1156 q 247 1200 286 1200 q 185 1178 208 1200 q 161 1119 161 1156 q 185 1058 161 1082 z "},"⁺":{"ha":440,"x_min":22,"x_max":418,"o":"m 286 1079 l 418 1079 l 418 960 l 286 960 l 286 826 l 154 826 l 154 960 l 22 960 l 22 1079 l 154 1079 l 154 1213 l 286 1213 l 286 1079 z "},"⁻":{"ha":440,"x_min":22,"x_max":418,"o":"m 418 960 l 22 960 l 22 1079 l 418 1079 l 418 960 z "},"⁽":{"ha":256,"x_min":32,"x_max":256,"o":"m 256 625 l 114 625 q 51 817 69 729 q 32 1019 32 906 q 51 1228 32 1135 q 114 1418 69 1315 l 256 1418 q 175 1019 175 1226 q 256 625 175 829 z "},"⁾":{"ha":256,"x_min":0,"x_max":224,"o":"m 140 625 l 0 625 q 79 1019 79 833 q 0 1418 79 1228 l 140 1418 q 204 1229 188 1311 q 224 1019 224 1136 q 206 815 224 900 q 140 625 188 729 z "},"ⁿ":{"ha":651,"x_min":26,"x_max":625,"o":"m 406 1001 q 566 940 507 1001 q 625 767 625 878 l 625 364 l 432 364 l 432 736 q 333 838 432 838 q 251 805 283 838 q 219 713 219 772 l 219 364 l 26 364 l 26 989 l 214 989 l 214 897 q 406 1001 285 1001 z "},"₀":{"ha":550,"x_min":28,"x_max":522,"o":"m 460 -208 q 275 -285 397 -285 q 90 -208 153 -285 q 28 14 28 -131 q 90 238 28 160 q 275 314 153 314 q 460 238 397 314 q 522 14 522 160 q 460 -208 522 -131 m 207 -121 q 275 -158 231 -158 q 343 -121 319 -158 q 365 14 365 -82 q 343 149 365 110 q 275 188 321 188 q 207 149 229 188 q 185 14 185 110 q 207 -121 185 -82 z "},"₁":{"ha":333,"x_min":21,"x_max":299,"o":"m 179 301 l 299 301 l 299 -272 l 147 -272 l 147 94 l 21 94 l 21 199 q 122 220 83 199 q 179 301 160 242 z "},"₂":{"ha":496,"x_min":19,"x_max":474,"o":"m 304 -62 l 272 -78 q 196 -146 208 -108 l 474 -146 l 474 -272 l 19 -272 l 22 -215 q 196 26 32 -49 l 240 47 q 322 129 322 85 q 256 188 322 188 q 178 104 181 188 l 31 104 q 96 259 39 204 q 256 314 153 314 q 414 265 354 314 q 474 140 474 217 q 434 24 474 69 q 304 -62 394 -21 z "},"₃":{"ha":510,"x_min":19,"x_max":493,"o":"m 404 33 q 493 -101 493 -4 q 431 -235 493 -185 q 263 -285 369 -285 q 81 -227 143 -285 q 19 -64 19 -169 l 165 -64 q 188 -137 165 -115 q 258 -160 210 -160 q 317 -142 296 -160 q 339 -96 339 -125 q 254 -29 339 -29 l 210 -29 l 210 79 l 256 79 q 332 139 332 79 q 261 194 332 194 q 181 124 186 194 l 35 124 q 263 314 43 314 q 420 271 363 314 q 478 153 478 228 q 404 33 478 78 z "},"₄":{"ha":535,"x_min":31,"x_max":514,"o":"m 443 -32 l 514 -32 l 514 -154 l 443 -154 l 443 -272 l 292 -272 l 292 -154 l 31 -154 l 31 -11 l 289 301 l 443 301 l 443 -32 m 294 -32 l 294 144 l 149 -32 l 294 -32 z "},"₅":{"ha":497,"x_min":22,"x_max":479,"o":"m 278 113 q 426 58 374 113 q 479 -81 479 4 q 415 -228 479 -172 q 249 -285 350 -285 q 91 -235 154 -285 q 22 -101 28 -186 l 165 -101 q 194 -148 171 -131 q 249 -165 217 -165 q 313 -142 289 -165 q 336 -81 336 -118 q 313 -19 336 -43 q 249 6 289 6 q 171 -37 192 6 l 31 -37 l 86 301 l 453 301 l 453 175 l 203 175 l 188 90 q 278 113 222 113 z "},"₆":{"ha":513,"x_min":25,"x_max":494,"o":"m 292 113 q 440 58 385 113 q 494 -81 494 3 q 431 -229 494 -174 q 265 -285 368 -285 q 121 -242 178 -285 q 25 8 25 -172 q 88 236 25 158 q 268 314 150 314 q 417 271 360 314 q 486 149 475 228 l 344 149 q 267 200 328 200 q 194 170 218 200 q 165 68 171 140 q 292 113 214 113 m 265 -165 q 328 -142 304 -165 q 351 -83 351 -119 q 327 -24 351 -49 q 265 0 303 0 q 204 -24 228 0 q 181 -83 181 -49 q 204 -142 181 -119 q 265 -165 228 -165 z "},"₇":{"ha":457,"x_min":21,"x_max":436,"o":"m 21 175 l 21 301 l 436 301 l 436 179 q 311 -10 350 92 q 269 -272 272 -111 l 107 -272 q 285 175 111 -15 l 21 175 z "},"₈":{"ha":524,"x_min":22,"x_max":501,"o":"m 411 31 q 501 -107 501 -7 q 437 -236 501 -187 q 261 -285 372 -285 q 88 -236 153 -285 q 22 -107 22 -187 q 113 31 22 -7 q 49 151 49 72 q 105 270 49 226 q 261 314 161 314 q 418 270 361 314 q 475 151 475 226 q 411 31 475 72 m 261 204 q 204 188 225 204 q 183 140 183 171 q 203 94 183 111 q 261 76 224 76 q 339 140 339 76 q 261 204 339 204 m 261 -167 q 353 -94 353 -167 q 328 -40 353 -60 q 261 -21 304 -21 q 196 -40 219 -21 q 172 -94 172 -60 q 261 -167 172 -167 z "},"₉":{"ha":513,"x_min":18,"x_max":488,"o":"m 390 269 q 488 21 488 199 q 425 -207 488 -129 q 246 -285 363 -285 q 96 -242 154 -285 q 26 -119 38 -199 l 168 -119 q 247 -171 185 -171 q 317 -141 294 -171 q 346 -39 340 -111 q 219 -83 297 -83 q 73 -28 128 -83 q 18 110 18 26 q 81 258 18 203 q 246 314 144 314 q 390 269 326 314 m 161 113 q 161 95 161 113 q 185 53 161 76 q 247 29 208 29 q 308 53 286 29 q 331 113 331 76 q 308 172 331 150 q 247 194 286 194 q 185 172 208 194 q 161 113 161 150 z "},"₊":{"ha":440,"x_min":22,"x_max":418,"o":"m 286 74 l 418 74 l 418 -46 l 286 -46 l 286 -179 l 154 -179 l 154 -46 l 22 -46 l 22 74 l 154 74 l 154 207 l 286 207 l 286 74 z "},"₋":{"ha":440,"x_min":22,"x_max":418,"o":"m 418 -46 l 22 -46 l 22 74 l 418 74 l 418 -46 z "},"₌":{"ha":440,"x_min":22,"x_max":418,"o":"m 418 46 l 22 46 l 22 164 l 418 164 l 418 46 m 418 -135 l 22 -135 l 22 -17 l 418 -17 l 418 -135 z "},"₍":{"ha":256,"x_min":32,"x_max":256,"o":"m 256 -383 l 114 -383 q 50 -192 68 -278 q 32 11 32 -106 q 51 221 32 128 q 114 411 71 310 l 256 411 q 175 11 175 217 q 256 -383 175 -179 z "},"₎":{"ha":256,"x_min":0,"x_max":224,"o":"m 140 -383 l 0 -383 q 79 11 79 -175 q 0 410 79 221 l 140 410 q 204 221 188 303 q 224 11 224 128 q 206 -193 224 -108 q 140 -383 188 -279 z "},"ₙ":{"ha":651,"x_min":26,"x_max":625,"o":"m 406 365 q 566 303 507 365 q 625 131 625 242 l 625 -272 l 432 -272 l 432 100 q 333 201 432 201 q 251 169 283 201 q 219 76 219 136 l 219 -272 l 26 -272 l 26 353 l 214 353 l 214 261 q 406 365 285 365 z "},"€":{"ha":1038,"x_min":0,"x_max":1006,"o":"m 776 351 l 1006 351 q 881 92 979 197 q 565 -26 771 -26 q 277 72 394 -26 q 124 342 160 169 l 0 342 l 0 446 l 110 446 q 108 493 108 456 q 110 549 108 536 l 0 549 l 0 654 l 125 654 q 279 917 164 822 q 565 1011 394 1011 q 878 894 768 1011 q 1004 643 976 788 l 772 643 q 564 813 728 813 q 364 654 408 813 l 596 654 l 596 549 l 346 549 q 344 496 344 538 q 346 446 344 457 l 596 446 l 596 342 l 361 342 q 565 172 407 172 q 776 351 736 172 z "},"₸":{"ha":878,"x_min":18,"x_max":861,"o":"m 18 779 l 18 989 l 861 989 l 861 779 l 18 779 m 321 436 l 18 436 l 18 646 l 861 646 l 861 436 l 557 436 l 557 0 l 321 0 l 321 436 z "},"₹":{"ha":869,"x_min":75,"x_max":836,"o":"m 75 989 l 836 989 l 836 885 l 649 885 q 728 736 714 828 l 836 736 l 836 632 l 728 632 q 614 445 710 514 q 374 374 518 376 l 742 0 l 450 0 l 75 385 l 75 515 l 299 515 q 490 632 458 515 l 75 632 l 75 736 l 490 736 q 299 853 458 853 l 75 853 l 75 989 z "},"₺":{"ha":900,"x_min":0,"x_max":869,"o":"m 628 517 l 869 517 q 726 142 869 281 q 340 0 583 0 l 106 0 l 106 418 l 0 374 l 0 488 l 106 532 l 106 628 l 0 583 l 0 697 l 106 742 l 106 989 l 340 989 l 340 842 l 571 940 l 571 826 l 340 728 l 340 632 l 571 729 l 571 615 l 340 518 l 340 204 q 551 287 475 204 q 628 517 628 369 z "},"₼":{"ha":1094,"x_min":61,"x_max":1033,"o":"m 661 747 l 686 747 q 943 653 853 747 q 1033 389 1033 560 l 1033 0 l 806 0 l 806 390 q 772 509 806 471 q 661 551 739 547 l 661 97 l 433 97 l 433 551 q 324 510 358 549 q 290 390 290 471 l 290 0 l 61 0 l 61 389 q 153 652 61 557 q 415 747 246 747 l 433 747 l 433 989 l 661 989 l 661 747 z "},"₿":{"ha":940,"x_min":75,"x_max":917,"o":"m 917 288 q 838 87 917 161 q 608 1 760 13 l 608 -161 l 506 -161 l 506 0 l 388 0 l 388 -161 l 285 -161 l 285 0 l 75 0 l 75 989 l 285 989 l 285 1150 l 388 1150 l 388 989 l 506 989 l 506 1150 l 608 1150 l 608 986 q 809 903 742 971 q 876 736 876 836 q 744 526 876 589 q 871 431 825 497 q 917 288 917 365 m 643 699 q 613 774 643 746 q 529 801 583 801 l 310 801 l 310 590 l 529 590 q 613 619 583 590 q 643 699 643 649 m 310 188 l 544 188 q 641 217 607 188 q 675 300 675 246 q 544 413 675 413 l 310 413 l 310 188 z "},"℅":{"ha":1404,"x_min":28,"x_max":1376,"o":"m 319 410 q 108 490 189 410 q 28 708 28 571 q 107 928 28 847 q 319 1008 186 1008 q 504 949 429 1008 q 596 785 579 890 l 443 785 q 319 878 418 878 q 221 833 256 878 q 186 708 186 789 q 221 585 186 628 q 319 542 256 542 q 399 567 365 542 q 443 638 433 592 l 596 638 q 506 470 582 531 q 319 410 431 410 m 499 0 l 360 0 l 888 989 l 1026 989 l 499 0 m 1294 69 q 1076 -12 1210 -12 q 861 69 943 -12 q 778 286 778 150 q 861 504 778 422 q 1076 586 943 586 q 1294 504 1210 586 q 1376 286 1376 422 q 1294 69 1376 151 m 1076 121 q 1181 164 1143 121 q 1218 286 1218 207 q 1181 409 1218 365 q 1076 453 1143 453 q 974 408 1013 453 q 936 286 936 364 q 974 165 936 208 q 1076 121 1013 121 z "},"ℓ":{"ha":692,"x_min":19,"x_max":629,"o":"m 435 150 q 564 199 504 150 l 625 90 q 374 -11 528 -11 q 207 55 267 -11 q 147 235 147 121 l 147 282 q 42 271 100 274 l 19 383 q 147 400 88 388 l 147 724 q 213 937 147 863 q 407 1011 279 1011 q 572 949 515 1011 q 629 763 629 886 q 361 343 629 469 l 361 250 q 381 175 361 200 q 435 150 401 150 m 361 725 l 361 489 q 489 754 489 585 q 431 844 489 844 q 361 725 361 844 z "},"№":{"ha":1617,"x_min":75,"x_max":1590,"o":"m 1303 1004 q 1511 924 1431 1004 q 1590 711 1590 842 q 1511 499 1590 581 q 1303 418 1431 418 q 1093 499 1172 418 q 1013 711 1013 578 q 1093 925 1013 844 q 1303 1004 1172 1004 m 718 782 l 718 989 l 942 989 l 942 0 l 689 0 l 447 394 q 293 664 336 579 q 299 207 299 474 l 299 0 l 75 0 l 75 989 l 328 989 l 569 594 q 724 322 674 422 q 718 782 718 515 m 1224 617 q 1303 582 1253 582 q 1382 617 1353 582 q 1410 711 1410 651 q 1381 806 1410 771 q 1303 840 1351 840 q 1223 806 1253 840 q 1193 711 1193 771 q 1224 617 1193 649 z "},"℗":{"ha":1107,"x_min":25,"x_max":1082,"o":"m 176 863 q 553 1011 328 1011 q 931 863 778 1011 q 1082 494 1082 713 q 931 128 1082 278 q 553 -22 778 -22 q 176 128 328 -22 q 25 494 25 278 q 176 863 25 713 m 288 231 q 554 124 394 124 q 821 231 714 124 q 925 494 925 338 q 821 760 925 653 q 554 865 715 865 q 288 760 393 865 q 182 494 182 654 q 288 231 182 336 m 369 758 l 597 758 q 751 705 693 758 q 808 567 808 651 q 750 428 808 482 q 597 374 692 374 l 514 374 l 514 229 l 369 229 l 369 758 m 514 501 l 590 501 q 645 519 626 501 q 664 567 664 536 q 645 613 664 596 q 590 631 626 631 l 514 631 l 514 501 z "},"™":{"ha":804,"x_min":29,"x_max":774,"o":"m 135 901 l 29 901 l 29 989 l 335 989 l 335 901 l 231 901 l 231 632 l 135 632 l 135 901 m 593 839 l 639 989 l 774 989 l 774 632 l 682 632 l 682 739 q 683 851 682 826 l 675 825 l 615 632 l 539 632 l 479 825 l 471 853 q 472 739 472 826 l 472 632 l 381 632 l 381 989 l 515 989 l 561 836 q 571 801 565 822 q 576 779 576 781 l 593 839 z "},"Ω":{"ha":1096,"x_min":33,"x_max":1063,"o":"m 492 0 l 33 0 l 33 203 l 235 203 l 235 207 q 43 569 43 342 q 178 890 43 769 q 544 1011 314 1011 q 917 890 779 1011 q 1053 569 1053 769 q 863 207 1053 343 l 863 203 l 1063 203 l 1063 0 l 606 0 l 606 181 q 760 316 706 228 q 814 521 814 404 q 744 733 814 660 q 550 807 674 807 q 353 733 424 807 q 282 521 282 660 q 337 317 282 407 q 492 181 392 228 l 492 0 z "},"℮":{"ha":1265,"x_min":69,"x_max":1194,"o":"m 224 865 q 633 1011 375 1011 q 1043 858 890 1011 q 1194 481 1194 706 l 297 481 q 278 463 278 481 l 278 218 q 300 153 278 174 q 633 19 436 19 q 830 63 736 19 q 983 179 924 107 l 1085 179 q 906 38 1024 93 q 633 -18 789 -18 q 225 126 381 -18 q 69 494 69 269 q 224 865 69 717 m 633 972 q 300 836 436 972 q 278 775 278 815 l 278 531 q 297 513 278 513 l 965 513 q 985 531 985 513 l 985 775 q 963 836 985 815 q 633 972 824 972 z "},"⅓":{"ha":1069,"x_min":21,"x_max":1051,"o":"m 299 415 l 147 415 l 147 782 l 21 782 l 21 886 q 122 908 83 886 q 179 989 160 929 l 299 989 l 299 415 m 140 0 l 668 989 l 806 989 l 278 0 l 140 0 m 964 306 q 1028 252 1004 288 q 1051 171 1051 217 q 990 38 1051 88 q 821 -12 928 -12 q 640 45 701 -12 q 578 208 578 103 l 724 208 q 747 135 724 158 q 818 113 769 113 q 876 130 856 113 q 897 176 897 147 q 813 243 897 243 l 768 243 l 768 351 l 815 351 q 892 411 892 351 q 819 467 892 467 q 739 396 744 467 l 593 396 q 821 586 601 586 q 980 543 922 586 q 1038 425 1038 500 q 964 306 1038 350 z "},"⅔":{"ha":1274,"x_min":19,"x_max":1257,"o":"m 196 542 l 474 542 l 474 415 l 19 415 l 22 472 q 196 714 32 639 l 240 735 q 322 817 322 772 q 256 875 322 875 q 178 792 181 875 l 31 792 q 96 947 39 892 q 256 1001 153 1001 q 414 953 354 1001 q 474 828 474 904 q 434 712 474 757 q 304 625 394 667 l 272 610 q 196 542 208 579 m 335 0 l 863 989 l 1001 989 l 474 0 l 335 0 m 1168 306 q 1257 171 1257 268 q 1195 38 1257 88 q 1026 -12 1133 -12 q 845 45 907 -12 q 782 208 783 103 l 928 208 q 951 135 929 157 q 1022 113 974 113 q 1081 130 1060 113 q 1103 176 1103 147 q 1018 243 1103 243 l 974 243 l 974 351 l 1019 351 q 1096 411 1096 351 q 1025 467 1096 467 q 944 396 950 467 l 799 396 q 1026 586 807 586 q 1184 543 1126 586 q 1242 425 1242 500 q 1168 306 1242 350 z "},"⅕":{"ha":1110,"x_min":21,"x_max":1093,"o":"m 299 989 l 299 415 l 147 415 l 147 782 l 21 782 l 21 886 q 122 908 83 886 q 179 989 160 929 l 299 989 m 167 0 l 694 989 l 833 989 l 306 0 l 167 0 m 890 385 q 1040 330 986 385 q 1093 192 1093 275 q 1028 44 1093 100 q 863 -12 964 -12 q 703 38 765 -12 q 635 171 640 88 l 779 171 q 863 107 789 107 q 925 131 901 107 q 949 192 949 154 q 925 253 949 229 q 863 278 901 278 q 783 235 808 278 l 643 235 l 700 574 l 1065 574 l 1065 447 l 817 447 l 800 364 q 890 385 838 385 z "},"⅖":{"ha":1286,"x_min":19,"x_max":1265,"o":"m 196 542 l 474 542 l 474 415 l 19 415 l 22 472 q 196 714 32 639 l 240 735 q 322 817 322 772 q 256 875 322 875 q 178 792 181 875 l 31 792 q 96 947 39 892 q 256 1001 153 1001 q 414 953 354 1001 q 474 828 474 904 q 434 712 474 757 q 304 625 394 667 l 272 610 q 196 542 208 579 m 338 0 l 865 989 l 1003 989 l 475 0 l 338 0 m 1064 385 q 1213 331 1160 385 q 1265 192 1265 276 q 1201 44 1265 100 q 1035 -12 1136 -12 q 876 38 938 -12 q 808 171 814 88 l 951 171 q 1035 107 965 107 q 1099 131 1075 107 q 1122 192 1122 154 q 1099 253 1122 229 q 1035 278 1075 278 q 957 235 982 278 l 817 235 l 872 574 l 1239 574 l 1239 447 l 989 447 l 974 364 q 1064 385 1011 385 z "},"⅗":{"ha":1242,"x_min":19,"x_max":1225,"o":"m 493 586 q 431 453 493 503 q 263 403 369 403 q 81 460 143 403 q 19 624 19 518 l 165 624 q 188 550 165 572 q 258 528 210 528 q 317 545 296 528 q 339 592 339 563 q 254 658 339 658 l 210 658 l 210 767 l 256 767 q 332 826 332 767 q 261 882 332 882 q 181 811 186 882 l 35 811 q 263 1001 43 1001 q 420 958 363 1001 q 478 840 478 915 q 404 721 478 765 q 493 586 493 683 m 301 0 l 829 989 l 967 989 l 439 0 l 301 0 m 1024 385 q 1172 331 1119 385 q 1225 192 1225 276 q 1160 44 1225 100 q 994 -12 1096 -12 q 835 38 897 -12 q 768 171 774 88 l 911 171 q 994 107 925 107 q 1058 131 1035 107 q 1082 192 1082 154 q 1058 253 1082 229 q 994 278 1035 278 q 917 235 939 278 l 775 235 l 832 574 l 1199 574 l 1199 447 l 949 447 l 933 364 q 1024 385 971 385 z "},"⅘":{"ha":1274,"x_min":31,"x_max":1253,"o":"m 443 533 l 443 415 l 292 415 l 292 533 l 31 533 l 31 676 l 289 989 l 443 989 l 443 656 l 514 656 l 514 533 l 443 533 m 329 0 l 857 989 l 994 989 l 467 0 l 329 0 m 294 656 l 294 832 l 149 656 l 294 656 m 1051 385 q 1200 331 1147 385 q 1253 192 1253 276 q 1188 44 1253 100 q 1022 -12 1124 -12 q 863 38 925 -12 q 796 171 801 88 l 939 171 q 1022 107 953 107 q 1086 131 1063 107 q 1110 192 1110 154 q 1086 253 1110 229 q 1022 278 1063 278 q 944 235 967 278 l 803 235 l 860 574 l 1226 574 l 1226 447 l 976 447 l 961 364 q 1051 385 999 385 z "},"⅙":{"ha":1075,"x_min":21,"x_max":1057,"o":"m 299 989 l 299 415 l 147 415 l 147 782 l 21 782 l 21 886 q 122 908 83 886 q 179 989 160 929 l 299 989 m 150 0 l 678 989 l 815 989 l 288 0 l 150 0 m 854 385 q 1002 330 947 385 q 1057 192 1057 275 q 994 43 1057 99 q 828 -12 931 -12 q 683 31 740 -12 q 588 281 588 100 q 650 508 588 431 q 831 586 713 586 q 980 543 922 586 q 1049 421 1038 500 l 907 421 q 829 472 890 472 q 757 442 781 472 q 728 340 733 413 q 854 385 776 385 m 828 107 q 890 130 867 107 q 914 189 914 153 q 890 248 914 224 q 828 272 865 272 q 767 248 790 272 q 743 189 743 224 q 767 130 743 153 q 828 107 790 107 z "},"⅚":{"ha":1194,"x_min":22,"x_max":1178,"o":"m 479 607 q 415 459 479 515 q 249 403 350 403 q 91 452 154 403 q 22 586 28 501 l 165 586 q 194 540 171 557 q 249 522 217 522 q 313 546 289 522 q 336 607 336 569 q 313 669 336 644 q 249 693 289 693 q 171 650 192 693 l 31 650 l 86 989 l 453 989 l 453 863 l 203 863 l 188 778 q 278 800 222 800 q 426 746 374 800 q 479 607 479 692 m 271 0 l 799 989 l 936 989 l 408 0 l 271 0 m 975 385 q 1123 330 1068 385 q 1178 192 1178 275 q 1115 43 1178 99 q 949 -12 1051 -12 q 804 31 861 -12 q 708 281 708 100 q 771 508 708 431 q 951 586 833 586 q 1101 543 1043 586 q 1169 421 1158 500 l 1028 421 q 950 472 1011 472 q 878 442 901 472 q 849 340 854 413 q 975 385 897 385 m 949 107 q 1011 130 988 107 q 1035 189 1035 153 q 1010 248 1035 224 q 949 272 986 272 q 888 248 911 272 q 864 189 864 224 q 888 130 864 153 q 949 107 911 107 z "},"⅛":{"ha":1088,"x_min":21,"x_max":1065,"o":"m 299 415 l 147 415 l 147 782 l 21 782 l 21 886 q 122 908 83 886 q 179 989 160 929 l 299 989 l 299 415 m 140 0 l 668 989 l 806 989 l 278 0 l 140 0 m 975 303 q 1065 165 1065 265 q 1001 36 1065 85 q 825 -12 936 -12 q 651 36 717 -12 q 586 165 586 85 q 676 303 586 263 q 611 424 611 344 q 668 542 611 499 q 825 586 725 586 q 982 542 925 586 q 1039 424 1039 499 q 975 303 1039 346 m 825 476 q 768 460 789 476 q 747 413 747 443 q 767 366 747 383 q 825 349 788 349 q 903 413 903 349 q 825 476 903 476 m 735 178 q 825 106 735 106 q 915 178 915 106 q 825 251 915 251 q 759 232 783 251 q 735 178 735 213 z "},"⅜":{"ha":1239,"x_min":19,"x_max":1217,"o":"m 493 586 q 431 453 493 503 q 263 403 369 403 q 81 460 143 403 q 19 624 19 518 l 165 624 q 188 550 165 572 q 258 528 210 528 q 317 545 296 528 q 339 592 339 563 q 254 658 339 658 l 210 658 l 210 767 l 256 767 q 332 826 332 767 q 261 882 332 882 q 181 811 186 882 l 35 811 q 263 1001 43 1001 q 420 958 363 1001 q 478 840 478 915 q 404 721 478 765 q 493 586 493 683 m 292 0 l 819 989 l 957 989 l 429 0 l 292 0 m 1126 303 q 1217 165 1217 265 q 1152 36 1217 85 q 976 -12 1088 -12 q 803 36 868 -12 q 738 165 738 85 q 828 303 738 263 q 763 424 763 344 q 819 542 763 499 q 976 586 876 586 q 1133 542 1076 586 q 1190 424 1190 499 q 1126 303 1190 346 m 976 476 q 919 460 940 476 q 899 413 899 443 q 919 366 899 383 q 976 349 939 349 q 1054 413 1054 349 q 976 476 1054 476 m 886 178 q 976 106 886 106 q 1067 178 1067 106 q 976 251 1067 251 q 910 232 935 251 q 886 178 886 213 z "},"⅝":{"ha":1214,"x_min":22,"x_max":1192,"o":"m 479 607 q 415 459 479 515 q 249 403 350 403 q 91 452 154 403 q 22 586 28 501 l 165 586 q 194 540 171 557 q 249 522 217 522 q 313 546 289 522 q 336 607 336 569 q 313 669 336 644 q 249 693 289 693 q 171 650 192 693 l 31 650 l 86 989 l 453 989 l 453 863 l 203 863 l 188 778 q 278 800 222 800 q 426 746 374 800 q 479 607 479 692 m 267 0 l 794 989 l 932 989 l 404 0 l 267 0 m 1101 303 q 1192 165 1192 265 q 1127 36 1192 85 q 951 -12 1063 -12 q 778 36 843 -12 q 713 165 713 85 q 803 303 713 265 q 739 424 739 344 q 795 542 739 499 q 951 586 851 586 q 1108 542 1051 586 q 1165 424 1165 499 q 1101 303 1165 346 m 951 476 q 894 460 915 476 q 874 413 874 443 q 894 366 874 383 q 951 349 914 349 q 1029 413 1029 349 q 951 476 1029 476 m 951 106 q 1043 178 1043 106 q 1019 232 1043 213 q 951 251 994 251 q 886 232 910 251 q 863 178 863 213 q 951 106 863 106 z "},"⅞":{"ha":1097,"x_min":21,"x_max":1075,"o":"m 269 415 l 107 415 q 285 863 111 672 l 21 863 l 21 989 l 436 989 l 436 867 q 311 678 350 779 q 269 415 272 575 m 144 0 l 672 989 l 810 989 l 282 0 l 144 0 m 985 303 q 1075 165 1075 265 q 1010 36 1075 85 q 835 -12 946 -12 q 661 36 726 -12 q 596 165 596 85 q 686 303 596 263 q 621 424 621 344 q 678 542 621 499 q 835 586 735 586 q 992 542 935 586 q 1049 424 1049 499 q 985 303 1049 346 m 835 476 q 778 460 799 476 q 757 413 757 443 q 777 366 757 383 q 835 349 797 349 q 913 413 913 349 q 835 476 913 476 m 744 178 q 835 106 744 106 q 925 178 925 106 q 835 251 925 251 q 769 232 793 251 q 744 178 744 213 z "},"←":{"ha":1328,"x_min":158,"x_max":1169,"o":"m 507 596 l 1169 596 l 1169 393 l 507 393 q 635 229 568 318 l 807 0 l 532 0 l 158 494 l 532 989 l 807 989 l 635 760 q 507 596 568 669 z "},"↑":{"ha":1328,"x_min":169,"x_max":1158,"o":"m 169 638 l 664 1011 l 1158 638 l 1158 374 l 929 546 q 775 667 839 614 l 775 0 l 550 0 l 550 665 q 399 546 454 588 l 169 374 l 169 638 z "},"→":{"ha":1328,"x_min":158,"x_max":1169,"o":"m 521 989 l 796 989 l 1169 494 l 796 0 l 521 0 l 693 229 q 821 393 760 318 l 158 393 l 158 596 l 821 596 q 693 760 760 669 l 521 989 z "},"↓":{"ha":1328,"x_min":169,"x_max":1158,"o":"m 929 443 l 1158 615 l 1158 351 l 664 -22 l 169 351 l 169 615 l 399 443 q 550 324 454 401 l 550 989 l 775 989 l 775 322 q 929 443 839 375 z "},"↔":{"ha":1328,"x_min":0,"x_max":1328,"o":"m 763 989 l 1004 989 l 1328 494 l 1004 0 l 761 0 l 910 225 l 1024 396 l 304 396 q 417 225 338 347 l 563 0 l 325 0 l 0 494 l 324 989 l 565 989 l 417 761 q 307 596 368 686 l 1021 596 q 911 758 965 674 l 763 989 z "},"↕":{"ha":1328,"x_min":169,"x_max":1158,"o":"m 775 864 l 775 125 q 929 246 839 178 l 1158 418 l 1158 154 l 664 -219 l 169 154 l 169 418 l 399 246 q 550 126 454 204 l 550 863 q 399 743 454 785 l 169 571 l 169 835 l 664 1208 l 1158 835 l 1158 571 l 929 743 q 775 864 839 811 z "},"↖":{"ha":1328,"x_min":210,"x_max":1140,"o":"m 1140 732 l 781 732 q 571 735 663 732 l 1111 210 l 964 50 l 419 578 q 422 369 422 486 l 422 22 l 210 218 l 210 936 l 944 936 l 1140 732 z "},"↗":{"ha":1328,"x_min":188,"x_max":1118,"o":"m 188 732 l 383 936 l 1118 936 l 1118 218 l 906 22 l 906 369 q 908 578 906 486 l 364 50 l 217 210 l 757 735 q 547 732 665 732 l 188 732 z "},"↘":{"ha":1328,"x_min":188,"x_max":1118,"o":"m 906 625 l 906 971 l 1118 775 l 1118 58 l 383 58 l 188 261 l 547 261 q 757 258 665 261 l 217 783 l 364 943 l 908 415 q 906 625 906 507 z "},"↙":{"ha":1328,"x_min":210,"x_max":1140,"o":"m 781 260 l 1140 260 l 944 57 l 210 57 l 210 775 l 422 969 l 422 624 q 419 414 422 508 l 964 942 l 1111 783 l 569 257 q 781 260 664 260 z "},"∂":{"ha":913,"x_min":42,"x_max":863,"o":"m 540 1011 q 778 925 693 1011 q 863 679 863 839 q 800 315 863 482 q 619 60 738 149 q 365 -22 508 -22 q 133 58 224 -22 q 42 278 42 139 q 151 543 42 433 q 418 653 260 653 q 638 544 578 653 q 651 676 651 619 q 521 840 651 840 q 365 731 408 840 l 149 731 q 294 938 192 864 q 540 1011 397 1011 m 383 160 q 514 222 460 160 q 568 367 568 285 q 538 453 568 421 q 453 485 507 485 q 322 424 376 485 q 267 278 267 363 q 298 192 267 224 q 383 160 329 160 z "},"∆":{"ha":961,"x_min":35,"x_max":926,"o":"m 336 989 l 615 989 l 926 196 l 926 0 l 35 0 l 35 196 l 336 989 m 393 538 l 274 206 l 681 206 l 558 538 q 475 783 513 663 q 393 538 435 656 z "},"∏":{"ha":1017,"x_min":75,"x_max":942,"o":"m 75 -272 l 75 989 l 942 989 l 942 -272 l 707 -272 l 707 782 l 310 782 l 310 -272 l 75 -272 z "},"∑":{"ha":871,"x_min":35,"x_max":836,"o":"m 626 -67 l 836 -67 l 836 -274 l 35 -274 l 35 -93 l 425 358 l 35 810 l 35 990 l 822 990 l 822 783 l 626 783 q 340 786 465 783 l 522 576 l 647 426 l 647 290 l 522 140 l 340 -69 q 626 -67 465 -67 z "},"−":{"ha":733,"x_min":40,"x_max":693,"o":"m 693 404 l 40 404 l 40 586 l 693 586 l 693 404 z "},"∕":{"ha":733,"x_min":40,"x_max":693,"o":"m 253 0 l 40 0 l 481 989 l 693 989 l 253 0 z "},"∙":{"ha":732,"x_min":219,"x_max":513,"o":"m 513 351 l 219 351 l 219 638 l 513 638 l 513 351 z "},"√":{"ha":1024,"x_min":15,"x_max":1022,"o":"m 590 343 l 788 989 l 1022 989 l 621 -272 l 338 -272 l 156 256 l 15 256 l 15 463 l 319 463 l 357 342 q 475 -56 369 296 q 492 6 476 -49 q 534 150 508 60 q 590 343 560 240 z "},"∞":{"ha":1161,"x_min":40,"x_max":1121,"o":"m 851 779 q 1047 700 975 779 q 1121 494 1121 618 q 1047 290 1121 371 q 851 210 975 210 q 581 365 694 210 q 310 210 467 210 q 114 290 186 210 q 40 494 40 371 q 114 700 40 618 q 310 779 186 779 q 581 622 465 779 q 851 779 696 779 m 321 365 q 488 494 406 365 q 321 624 406 624 q 242 588 272 624 q 213 494 213 553 q 242 401 213 436 q 321 365 272 365 m 842 365 q 919 401 889 365 q 950 494 950 436 q 919 588 950 553 q 842 624 889 624 q 674 494 757 624 q 842 365 756 365 z "},"∫":{"ha":586,"x_min":40,"x_max":546,"o":"m 143 -281 q 40 -272 106 -281 l 40 -108 q 99 -112 65 -112 q 185 -37 185 -112 l 185 760 q 249 933 185 869 q 443 997 314 997 q 546 989 481 997 l 546 825 q 489 829 521 829 q 401 754 401 829 l 401 -43 q 337 -217 401 -153 q 143 -281 272 -281 z "},"≈":{"ha":733,"x_min":40,"x_max":693,"o":"m 178 519 l 40 519 q 95 698 43 633 q 239 763 147 763 q 393 722 297 763 q 487 694 454 696 q 532 708 519 692 q 554 764 544 724 l 693 764 q 638 586 690 651 q 494 521 586 521 q 342 561 435 521 q 247 590 278 590 q 201 574 217 590 q 178 519 185 558 m 178 218 l 40 218 q 95 397 43 332 q 239 461 147 461 q 393 421 297 461 q 486 392 461 392 q 533 408 517 392 q 554 464 549 425 l 693 464 q 638 285 690 350 q 494 219 586 219 q 342 261 438 219 q 246 288 278 286 q 201 275 214 290 q 178 218 189 260 z "},"≠":{"ha":733,"x_min":40,"x_max":693,"o":"m 693 718 l 693 557 l 457 557 l 413 432 l 693 432 l 693 271 l 357 271 l 301 114 l 179 157 l 219 271 l 40 271 l 40 432 l 276 432 l 319 557 l 40 557 l 40 718 l 376 718 l 432 875 l 553 832 l 513 718 l 693 718 z "},"≤":{"ha":733,"x_min":40,"x_max":693,"o":"m 693 853 l 693 671 l 615 642 q 253 529 400 571 q 615 415 432 478 l 693 386 l 693 206 l 40 433 l 40 625 l 693 853 m 693 0 l 40 0 l 40 163 l 693 163 l 693 0 z "},"≥":{"ha":733,"x_min":40,"x_max":693,"o":"m 40 671 l 40 853 l 693 625 l 693 433 l 40 206 l 40 386 l 117 415 q 481 529 296 478 q 117 642 326 574 l 40 671 m 693 0 l 40 0 l 40 163 l 693 163 l 693 0 z "},"①":{"ha":1328,"x_min":0,"x_max":1328,"o":"m 328 1053 q 664 1138 479 1138 q 1000 1053 849 1138 q 1240 819 1153 967 q 1328 494 1328 672 q 1240 171 1328 319 q 1000 -64 1151 21 q 664 -149 849 -149 q 328 -64 479 -149 q 88 171 176 21 q 0 494 0 319 q 88 819 0 672 q 328 1053 175 967 m 181 494 q 181 394 181 494 q 321 156 181 293 q 665 18 461 18 q 1010 156 869 18 q 1149 494 1149 290 q 1010 835 1149 697 q 665 971 869 971 q 321 833 461 971 q 181 494 181 696 m 638 811 l 769 811 l 769 179 l 604 179 l 604 588 q 464 583 561 583 l 464 699 q 537 708 510 700 q 592 739 564 715 q 638 811 624 764 z "},"②":{"ha":1328,"x_min":0,"x_max":1328,"o":"m 328 1053 q 664 1138 479 1138 q 1000 1053 849 1138 q 1240 819 1153 967 q 1328 494 1328 672 q 1240 171 1328 319 q 1000 -64 1151 21 q 664 -149 849 -149 q 328 -64 479 -149 q 88 171 176 21 q 0 494 0 319 q 88 819 0 672 q 328 1053 175 967 m 181 494 q 181 394 181 494 q 321 156 181 293 q 665 18 461 18 q 1010 156 869 18 q 1149 494 1149 290 q 1010 835 1149 697 q 665 971 869 971 q 321 833 461 971 q 181 494 181 696 m 731 439 l 688 418 q 613 349 624 389 l 917 349 l 917 208 l 417 208 l 421 272 q 611 538 432 453 l 660 560 q 750 650 750 600 q 676 715 750 715 q 592 622 593 715 l 429 622 q 501 794 439 733 q 678 854 564 854 q 852 801 788 854 q 917 663 917 749 q 874 535 917 585 q 731 439 831 485 z "},"③":{"ha":1328,"x_min":0,"x_max":1328,"o":"m 328 1053 q 664 1138 479 1138 q 1000 1053 849 1138 q 1240 819 1153 967 q 1328 494 1328 672 q 1240 171 1328 319 q 1000 -64 1151 21 q 664 -149 849 -149 q 328 -64 479 -149 q 88 171 176 21 q 0 494 0 319 q 88 819 0 672 q 328 1053 175 967 m 181 494 q 181 394 181 494 q 321 156 181 293 q 665 18 461 18 q 1010 156 869 18 q 1149 494 1149 290 q 1010 835 1149 697 q 665 971 869 971 q 321 833 461 971 q 181 494 181 696 m 826 517 q 924 367 924 475 q 856 222 924 276 q 671 167 788 167 q 470 230 538 167 q 403 410 403 293 l 563 410 q 588 328 564 353 q 667 304 613 304 q 731 323 708 304 q 754 374 754 342 q 661 446 754 446 l 613 446 l 613 567 l 664 567 q 749 632 749 567 q 668 693 749 693 q 581 615 588 693 l 421 615 q 669 825 429 825 q 844 777 781 825 q 908 647 908 729 q 826 517 908 565 z "},"④":{"ha":1328,"x_min":0,"x_max":1328,"o":"m 328 1053 q 664 1138 479 1138 q 1000 1053 849 1138 q 1240 819 1153 967 q 1328 494 1328 672 q 1240 171 1328 319 q 1000 -64 1151 21 q 664 -149 849 -149 q 328 -64 479 -149 q 88 171 176 21 q 0 494 0 319 q 88 819 0 672 q 328 1053 175 967 m 181 494 q 181 394 181 494 q 321 156 181 293 q 665 18 461 18 q 1010 156 869 18 q 1149 494 1149 290 q 1010 835 1149 697 q 665 971 869 971 q 321 833 461 971 q 181 494 181 696 m 658 815 l 828 815 l 828 447 l 906 447 l 906 313 l 828 313 l 828 183 l 661 183 l 661 313 l 375 313 l 375 472 l 658 815 m 665 447 l 665 643 l 503 447 l 665 447 z "},"⑤":{"ha":1328,"x_min":0,"x_max":1328,"o":"m 328 1053 q 664 1138 479 1138 q 1000 1053 849 1138 q 1240 819 1153 967 q 1328 494 1328 672 q 1240 171 1328 319 q 1000 -64 1151 21 q 664 -149 849 -149 q 328 -64 479 -149 q 88 171 176 21 q 0 494 0 319 q 88 819 0 672 q 328 1053 175 967 m 181 494 q 181 394 181 494 q 321 156 181 293 q 665 18 461 18 q 1010 156 869 18 q 1149 494 1149 290 q 1010 835 1149 697 q 665 971 869 971 q 321 833 461 971 q 181 494 181 696 m 694 593 q 858 533 799 593 q 917 381 917 472 q 846 218 917 279 q 663 157 775 157 q 489 210 558 157 q 414 357 419 264 l 571 357 q 601 306 576 325 q 663 286 626 286 q 733 313 706 286 q 760 381 760 339 q 733 449 760 422 q 663 475 706 475 q 576 428 599 475 l 422 428 l 483 801 l 886 801 l 886 663 l 613 663 l 596 569 q 694 593 636 593 z "},"⑥":{"ha":1328,"x_min":0,"x_max":1328,"o":"m 328 1053 q 664 1138 479 1138 q 1000 1053 849 1138 q 1240 819 1153 967 q 1328 494 1328 672 q 1240 171 1328 319 q 1000 -64 1151 21 q 664 -149 849 -149 q 328 -64 479 -149 q 88 171 176 21 q 0 494 0 319 q 88 819 0 672 q 328 1053 175 967 m 181 494 q 181 394 181 494 q 321 156 181 293 q 665 18 461 18 q 1010 156 869 18 q 1149 494 1149 290 q 1010 835 1149 697 q 665 971 869 971 q 321 833 461 971 q 181 494 181 696 m 693 603 q 857 540 797 603 q 915 390 915 478 q 846 227 915 288 q 664 167 776 167 q 506 214 567 167 q 399 489 399 289 q 467 740 399 654 q 667 825 536 825 q 830 777 767 825 q 907 642 893 729 l 750 642 q 665 700 733 700 q 587 667 613 700 q 554 554 561 635 q 693 603 607 603 m 664 297 q 747 340 722 293 q 747 435 771 388 q 664 478 722 482 q 597 452 622 478 q 571 388 571 426 q 597 323 571 349 q 664 297 622 297 z "},"⑦":{"ha":1328,"x_min":0,"x_max":1328,"o":"m 328 1053 q 664 1138 479 1138 q 1000 1053 849 1138 q 1240 819 1153 967 q 1328 494 1328 672 q 1240 171 1328 319 q 1000 -64 1151 21 q 664 -149 849 -149 q 328 -64 479 -149 q 88 171 176 21 q 0 494 0 319 q 88 819 0 672 q 328 1053 175 967 m 181 494 q 181 394 181 494 q 321 156 181 293 q 665 18 461 18 q 1010 156 869 18 q 1149 494 1149 290 q 1010 835 1149 697 q 665 971 869 971 q 321 833 461 971 q 181 494 181 696 m 733 656 l 443 656 l 443 794 l 899 794 l 899 660 q 761 451 806 561 q 717 163 717 339 l 538 163 q 592 433 539 304 q 733 656 644 561 z "},"⑧":{"ha":1328,"x_min":0,"x_max":1328,"o":"m 328 1053 q 664 1138 479 1138 q 1000 1053 849 1138 q 1240 819 1153 967 q 1328 494 1328 672 q 1240 171 1328 319 q 1000 -64 1151 21 q 664 -149 849 -149 q 328 -64 479 -149 q 88 171 176 21 q 0 494 0 319 q 88 819 0 672 q 328 1053 175 967 m 181 494 q 181 394 181 494 q 321 156 181 293 q 665 18 461 18 q 1010 156 869 18 q 1149 494 1149 290 q 1010 835 1149 697 q 665 971 869 971 q 321 833 461 971 q 181 494 181 696 m 828 513 q 926 363 926 471 q 855 220 926 274 q 663 167 783 167 q 472 220 542 167 q 401 363 401 274 q 499 513 401 469 q 428 646 428 558 q 490 777 428 729 q 663 825 551 825 q 836 777 774 825 q 899 646 899 729 q 828 513 899 558 m 726 686 q 663 706 704 706 q 600 686 622 706 q 578 633 578 668 q 663 563 578 563 q 749 633 749 563 q 726 686 749 668 m 663 296 q 763 375 763 296 q 663 457 763 457 q 591 435 617 457 q 565 375 565 414 q 663 296 565 296 z "},"⑨":{"ha":1328,"x_min":0,"x_max":1328,"o":"m 328 1053 q 664 1138 479 1138 q 1000 1053 849 1138 q 1240 819 1153 967 q 1328 494 1328 672 q 1240 171 1328 319 q 1000 -64 1151 21 q 664 -149 849 -149 q 328 -64 479 -149 q 88 171 176 21 q 0 494 0 319 q 88 819 0 672 q 328 1053 175 967 m 181 494 q 181 394 181 494 q 321 156 181 293 q 665 18 461 18 q 1010 156 869 18 q 1149 494 1149 290 q 1010 835 1149 697 q 665 971 869 971 q 321 833 461 971 q 181 494 181 696 m 828 775 q 935 501 935 697 q 867 251 935 336 q 669 167 799 167 q 504 215 568 167 q 428 349 440 263 l 583 349 q 671 292 603 292 q 747 324 722 292 q 779 436 772 356 q 642 388 726 388 q 478 450 536 388 q 418 600 418 511 q 488 764 418 703 q 669 825 557 825 q 828 775 758 825 m 603 539 q 706 520 643 496 q 763 604 768 544 q 737 668 763 643 q 669 693 711 693 q 602 668 628 693 q 576 604 576 643 q 603 539 576 564 z "},"⓪":{"ha":1328,"x_min":0,"x_max":1328,"o":"m 1240 171 q 1000 -64 1151 21 q 664 -149 849 -149 q 328 -64 479 -149 q 88 171 176 21 q 0 494 0 319 q 88 819 0 672 q 328 1053 175 967 q 664 1138 479 1138 q 1000 1053 849 1138 q 1240 819 1153 967 q 1328 494 1328 672 q 1240 171 1328 319 m 181 494 q 181 394 181 494 q 321 156 181 293 q 665 18 461 18 q 1010 156 869 18 q 1149 494 1149 290 q 1010 835 1149 697 q 665 971 869 971 q 321 833 461 971 q 181 494 181 696 m 868 251 q 664 167 800 167 q 461 251 529 167 q 392 494 392 336 q 461 741 392 657 q 664 825 531 825 q 867 741 797 825 q 936 494 936 657 q 868 251 936 333 m 590 349 q 664 306 613 306 q 739 349 714 306 q 763 494 763 392 q 739 642 763 597 q 664 686 715 686 q 589 642 613 686 q 565 494 565 599 q 590 349 565 390 z "},"⓿":{"ha":1328,"x_min":0,"x_max":1328,"o":"m 1240 171 q 1000 -64 1151 21 q 664 -149 849 -149 q 328 -64 479 -149 q 88 171 176 21 q 0 494 0 319 q 88 819 0 672 q 328 1053 175 967 q 664 1138 479 1138 q 1000 1053 849 1138 q 1240 819 1153 967 q 1328 494 1328 672 q 1240 171 1328 319 m 464 253 q 664 169 533 169 q 864 253 794 169 q 932 494 932 333 q 664 821 932 821 q 396 494 396 821 q 464 253 396 333 m 665 300 q 585 347 610 300 q 560 494 560 393 q 585 644 560 597 q 665 690 610 690 q 744 644 719 690 q 768 494 768 597 q 744 346 768 392 q 665 300 719 300 z "},"■":{"ha":1328,"x_min":33,"x_max":1294,"o":"m 1294 -122 l 33 -122 l 33 1111 l 1294 1111 l 1294 -122 z "},"□":{"ha":1328,"x_min":33,"x_max":1294,"o":"m 1294 -122 l 33 -122 l 33 1111 l 1294 1111 l 1294 -122 m 214 949 l 214 40 l 1114 40 l 1114 949 l 214 949 z "},"◊":{"ha":854,"x_min":25,"x_max":829,"o":"m 306 989 l 547 989 l 829 494 l 547 0 l 306 0 l 25 494 l 306 989 m 254 494 l 426 189 l 599 494 l 426 800 l 254 494 z "},"○":{"ha":1328,"x_min":0,"x_max":1328,"o":"m 1240 171 q 1000 -64 1151 21 q 664 -149 849 -149 q 328 -64 479 -149 q 88 171 176 21 q 0 494 0 319 q 88 819 0 672 q 328 1053 175 967 q 664 1138 479 1138 q 1000 1053 849 1138 q 1240 819 1153 967 q 1328 494 1328 672 q 1240 171 1328 319 m 181 494 q 181 394 181 494 q 321 156 181 293 q 665 18 461 18 q 1010 156 869 18 q 1149 494 1149 290 q 1010 835 1149 697 q 665 971 869 971 q 321 833 461 971 q 181 494 181 696 z "},"●":{"ha":1328,"x_min":0,"x_max":1328,"o":"m 1240 171 q 1000 -64 1151 21 q 664 -149 849 -149 q 328 -64 479 -149 q 88 171 176 21 q 0 494 0 319 q 88 819 0 672 q 328 1053 175 967 q 664 1138 479 1138 q 1000 1053 849 1138 q 1240 819 1153 967 q 1328 494 1328 672 q 1240 171 1328 319 z "},"❶":{"ha":1328,"x_min":0,"x_max":1328,"o":"m 1240 171 q 1000 -64 1151 21 q 664 -149 849 -149 q 328 -64 479 -149 q 88 171 176 21 q 0 494 0 319 q 88 819 0 672 q 328 1053 175 967 q 664 1138 479 1138 q 1000 1053 849 1138 q 1240 819 1153 967 q 1328 494 1328 672 q 1240 171 1328 319 m 608 588 l 608 183 l 767 183 l 767 807 l 642 807 q 578 719 621 744 q 469 694 536 694 l 469 588 l 608 588 z "},"❷":{"ha":1328,"x_min":0,"x_max":1328,"o":"m 1240 171 q 1000 -64 1151 21 q 664 -149 849 -149 q 328 -64 479 -149 q 88 171 176 21 q 0 494 0 319 q 88 819 0 672 q 328 1053 175 967 q 664 1138 479 1138 q 1000 1053 849 1138 q 1240 819 1153 967 q 1328 494 1328 672 q 1240 171 1328 319 m 422 268 l 419 210 l 910 210 l 910 339 l 604 339 q 690 424 614 389 l 726 440 q 867 535 825 486 q 910 658 910 585 q 846 794 910 743 q 675 846 782 846 q 432 624 454 846 l 583 624 q 674 717 589 717 q 753 646 753 717 q 660 551 753 593 l 611 531 q 422 268 433 450 z "},"❸":{"ha":1328,"x_min":0,"x_max":1328,"o":"m 1240 171 q 1000 -64 1151 21 q 664 -149 849 -149 q 328 -64 479 -149 q 88 171 176 21 q 0 494 0 319 q 88 819 0 672 q 328 1053 175 967 q 664 1138 479 1138 q 1000 1053 849 1138 q 1240 819 1153 967 q 1328 494 1328 672 q 1240 171 1328 319 m 671 169 q 851 224 783 169 q 919 367 919 278 q 814 515 919 478 q 903 647 903 558 q 840 774 903 728 q 669 821 778 821 q 425 619 438 821 l 575 619 q 602 679 581 661 q 668 697 624 697 q 753 632 753 697 q 664 563 753 563 l 617 563 l 617 451 l 661 451 q 760 374 760 451 q 735 319 760 339 q 667 299 710 299 q 585 324 610 299 q 558 404 560 349 l 408 404 q 671 169 415 169 z "},"❹":{"ha":1328,"x_min":0,"x_max":1328,"o":"m 1240 171 q 1000 -64 1151 21 q 664 -149 849 -149 q 328 -64 479 -149 q 88 171 176 21 q 0 494 0 319 q 88 819 0 672 q 328 1053 175 967 q 664 1138 479 1138 q 1000 1053 849 1138 q 1240 819 1153 967 q 1328 494 1328 672 q 1240 171 1328 319 m 665 317 l 665 188 l 822 188 l 822 317 l 900 317 l 900 442 l 822 442 l 822 810 l 660 810 l 379 471 l 379 317 l 665 317 m 669 442 l 493 442 l 669 656 l 669 442 z "},"❺":{"ha":1328,"x_min":0,"x_max":1328,"o":"m 1240 171 q 1000 -64 1151 21 q 664 -149 849 -149 q 328 -64 479 -149 q 88 171 176 21 q 0 494 0 319 q 88 819 0 672 q 328 1053 175 967 q 664 1138 479 1138 q 1000 1053 849 1138 q 1240 819 1153 967 q 1328 494 1328 672 q 1240 171 1328 319 m 664 161 q 844 222 775 161 q 913 381 913 282 q 856 530 913 472 q 696 588 799 588 q 590 560 635 588 l 610 667 l 883 667 l 883 796 l 489 796 l 429 432 l 575 432 q 664 481 603 481 q 737 453 708 481 q 765 381 765 425 q 738 309 765 336 q 664 282 710 282 q 602 301 628 282 q 569 353 576 319 l 418 353 q 494 213 428 265 q 664 161 561 161 z "},"❻":{"ha":1328,"x_min":0,"x_max":1328,"o":"m 1240 171 q 1000 -64 1151 21 q 664 -149 849 -149 q 328 -64 479 -149 q 88 171 176 21 q 0 494 0 319 q 88 819 0 672 q 328 1053 175 967 q 664 1138 479 1138 q 1000 1053 849 1138 q 1240 819 1153 967 q 1328 494 1328 672 q 1240 171 1328 319 m 664 169 q 843 231 775 169 q 911 390 911 292 q 852 540 911 481 q 693 599 793 599 q 549 543 600 599 l 549 550 q 583 669 556 633 q 665 704 610 704 q 754 646 736 704 l 901 646 q 826 775 888 729 q 668 821 765 821 q 472 735 539 821 q 404 489 404 650 q 508 215 404 289 q 664 169 569 169 m 664 292 q 594 318 621 292 q 567 388 567 344 q 594 456 567 429 q 664 483 621 483 q 736 456 708 483 q 764 388 764 429 q 736 318 764 344 q 664 292 708 292 z "},"❼":{"ha":1328,"x_min":0,"x_max":1328,"o":"m 1240 171 q 1000 -64 1151 21 q 664 -149 849 -149 q 328 -64 479 -149 q 88 171 176 21 q 0 494 0 319 q 88 819 0 672 q 328 1053 175 967 q 664 1138 479 1138 q 1000 1053 849 1138 q 1240 819 1153 967 q 1328 494 1328 672 q 1240 171 1328 319 m 538 167 l 707 167 q 753 453 710 343 q 889 661 797 565 l 889 790 l 443 790 l 443 660 l 740 660 q 595 438 650 565 q 538 167 540 310 z "},"❽":{"ha":1328,"x_min":0,"x_max":1328,"o":"m 1240 171 q 1000 -64 1151 21 q 664 -149 849 -149 q 328 -64 479 -149 q 88 171 176 21 q 0 494 0 319 q 88 819 0 672 q 328 1053 175 967 q 664 1138 479 1138 q 1000 1053 849 1138 q 1240 819 1153 967 q 1328 494 1328 672 q 1240 171 1328 319 m 476 222 q 664 169 546 169 q 853 222 781 169 q 924 361 924 275 q 818 513 924 471 q 894 646 894 556 q 833 774 894 728 q 664 821 772 821 q 495 774 557 821 q 433 646 433 728 q 511 513 433 557 q 406 361 406 471 q 476 222 406 275 m 731 578 q 664 558 708 558 q 597 578 619 558 q 574 633 574 597 q 598 688 574 668 q 664 708 622 708 q 754 633 754 708 q 731 578 754 597 m 664 290 q 560 374 560 290 q 588 438 560 415 q 664 461 615 461 q 742 438 714 461 q 769 374 769 415 q 664 290 769 290 z "},"❾":{"ha":1328,"x_min":0,"x_max":1328,"o":"m 1240 171 q 1000 -64 1151 21 q 664 -149 849 -149 q 328 -64 479 -149 q 88 171 176 21 q 0 494 0 319 q 88 819 0 672 q 328 1053 175 967 q 664 1138 479 1138 q 1000 1053 849 1138 q 1240 819 1153 967 q 1328 494 1328 672 q 1240 171 1328 319 m 667 167 q 865 251 796 167 q 935 501 935 336 q 828 778 935 703 q 669 824 764 824 q 488 762 557 824 q 418 600 418 700 q 478 450 418 511 q 642 388 538 388 q 775 433 722 388 l 781 439 q 779 426 781 432 q 746 322 772 354 q 668 290 719 290 q 583 349 600 290 l 428 349 q 504 214 442 261 q 667 167 567 167 m 738 538 q 669 511 707 513 q 601 537 632 510 q 575 604 571 564 q 601 669 575 643 q 669 694 628 694 q 738 669 711 694 q 764 604 764 643 q 738 538 764 564 z "},"⸘":{"ha":760,"x_min":26,"x_max":736,"o":"m 269 814 l 514 814 l 514 575 l 269 575 l 269 814 m 517 132 l 735 132 q 644 -114 736 -31 q 372 -197 551 -197 q 119 -128 213 -197 q 26 64 26 -58 q 171 304 26 204 q 268 389 250 363 q 289 485 289 417 l 493 485 l 496 289 l 438 51 l 329 51 l 307 175 q 260 88 260 136 q 379 -17 260 -17 q 484 17 453 -17 q 517 132 515 51 z "},"":{"ha":1146,"x_min":75,"x_max":1069,"o":"m 501 671 l 501 861 q 450 914 501 914 q 407 897 424 914 q 390 849 390 881 l 390 671 l 294 671 l 294 1110 l 390 1110 l 390 949 q 486 997 426 997 q 567 967 538 997 q 597 879 597 936 l 597 671 l 501 671 m 965 1110 l 1063 1110 l 1063 671 l 965 671 l 965 1110 m 782 665 q 663 710 707 665 q 618 832 618 756 q 663 953 618 907 q 782 999 707 999 q 901 951 856 999 q 946 822 946 903 l 946 803 l 708 803 q 782 735 721 735 q 847 771 826 735 l 938 771 q 883 693 925 721 q 782 665 842 665 m 781 926 q 710 864 722 926 l 851 864 q 781 926 842 926 m 1063 493 l 1063 474 l 825 474 q 899 406 835 406 q 963 442 943 406 l 1054 442 q 999 364 1042 392 q 897 336 957 336 q 778 381 824 336 q 733 503 733 426 q 778 624 733 578 q 897 669 822 669 q 1017 622 971 669 q 1063 493 1063 574 m 754 656 l 640 338 l 526 338 l 413 656 l 513 656 l 546 550 q 585 419 571 475 q 624 550 599 475 l 657 656 l 754 656 m 896 599 q 826 535 836 599 l 967 535 q 896 599 958 599 m 303 354 l 303 436 l 396 436 l 396 354 l 303 354 m 122 413 l 219 413 l 219 317 l 281 317 l 281 247 l 219 247 l 219 99 q 227 76 219 82 q 256 71 235 71 l 281 71 l 281 -1 q 236 -4 239 -4 q 149 17 175 -4 q 122 88 122 39 l 122 247 l 75 247 l 75 317 l 122 317 l 122 413 m 581 69 q 642 124 633 69 l 738 124 q 690 27 732 63 q 581 -8 647 -8 q 461 37 506 -8 q 417 158 417 82 q 461 279 417 233 q 581 325 506 325 q 688 290 646 325 q 736 197 731 256 l 640 197 q 581 246 629 246 q 514 158 514 246 q 581 69 514 69 m 1069 0 l 971 0 q 965 35 965 17 q 863 -7 932 -7 q 780 19 811 -7 q 749 92 749 46 q 872 190 749 179 l 921 194 q 955 202 946 196 q 964 224 964 208 q 915 257 964 257 q 874 248 886 257 q 858 215 861 239 l 764 215 q 915 325 774 325 q 1058 228 1058 325 l 1058 64 q 1069 0 1058 19 m 399 0 l 301 0 l 301 318 l 399 318 l 399 0 m 892 58 q 964 125 964 58 l 964 150 q 932 136 957 140 l 893 131 q 847 93 847 125 q 892 58 847 58 z "},"ﬁ":{"ha":851,"x_min":15,"x_max":788,"o":"m 122 717 l 122 758 q 187 931 122 867 q 381 994 251 994 q 483 989 429 994 l 483 828 l 425 828 q 339 751 339 828 l 339 717 l 481 717 l 481 558 l 339 558 l 339 0 l 122 0 l 122 558 l 15 558 l 15 717 l 122 717 m 576 982 l 783 982 l 783 799 l 576 799 l 576 982 m 571 0 l 571 717 l 788 717 l 788 0 l 571 0 z "},"ﬂ":{"ha":843,"x_min":15,"x_max":779,"o":"m 122 717 l 122 758 q 187 931 122 867 q 381 994 251 994 q 483 989 429 994 l 483 828 l 425 828 q 339 751 339 828 l 339 717 l 481 717 l 481 558 l 339 558 l 339 0 l 122 0 l 122 558 l 15 558 l 15 717 l 122 717 m 563 0 l 563 989 l 779 989 l 779 0 l 563 0 z "},"﻿":{"ha":0,"x_min":0,"x_max":0,"o":""}}}
